<mxfile host="app.diagrams.net" modified="2023-02-24T17:56:49.506Z" agent="5.0 (Windows NT 10.0; Win64; x64) AppleWebKit/537.36 (KHTML, like Gecko) Chrome/108.0.0.0 Safari/537.36" etag="k_JYCujAD20vy5KRhZZW" version="20.8.23" type="github">
  <diagram name="Page-1" id="03018318-947c-dd8e-b7a3-06fadd420f32">
    <mxGraphModel dx="1393" dy="797" grid="1" gridSize="10" guides="1" tooltips="1" connect="1" arrows="1" fold="1" page="1" pageScale="1" pageWidth="1100" pageHeight="850" background="#ffffff" math="0" shadow="0">
      <root>
        <mxCell id="0" />
        <mxCell id="1" parent="0" />
        <mxCell id="677b7b8949515195-1" value="" style="whiteSpace=wrap;html=1;rounded=0;shadow=0;labelBackgroundColor=none;strokeColor=#000000;strokeWidth=1;fillColor=none;fontFamily=Verdana;fontSize=12;fontColor=#000000;align=center;comic=1;" parent="1" vertex="1">
          <mxGeometry x="30" y="30" width="1060" height="1070" as="geometry" />
        </mxCell>
        <mxCell id="677b7b8949515195-2" value="LOGO" style="whiteSpace=wrap;html=1;rounded=0;shadow=0;labelBackgroundColor=none;strokeWidth=1;fontFamily=Verdana;fontSize=28;align=center;comic=1;" parent="1" vertex="1">
          <mxGeometry x="40" y="60" width="200" height="70" as="geometry" />
        </mxCell>
        <mxCell id="677b7b8949515195-3" value="Search" style="strokeWidth=1;shadow=0;dashed=0;align=center;html=1;shape=mxgraph.mockup.forms.searchBox;strokeColor=#999999;mainText=;strokeColor2=#008cff;fontColor=#666666;fontSize=17;align=left;spacingLeft=3;rounded=0;labelBackgroundColor=none;comic=1;" parent="1" vertex="1">
          <mxGeometry x="270" y="80" width="540" height="50" as="geometry" />
        </mxCell>
        <mxCell id="677b7b8949515195-4" value="account" style="text;html=1;points=[];align=left;verticalAlign=top;spacingTop=-4;fontSize=14;fontFamily=Verdana" parent="1" vertex="1">
          <mxGeometry x="60" y="30" width="60" height="20" as="geometry" />
        </mxCell>
        <mxCell id="677b7b8949515195-5" value="Track Order" style="text;html=1;points=[];align=left;verticalAlign=top;spacingTop=-4;fontSize=14;fontFamily=Verdana" parent="1" vertex="1">
          <mxGeometry x="130" y="30" width="60" height="20" as="geometry" />
        </mxCell>
        <mxCell id="677b7b8949515195-6" value="Support" style="text;html=1;points=[];align=left;verticalAlign=top;spacingTop=-4;fontSize=14;fontFamily=Verdana" parent="1" vertex="1">
          <mxGeometry x="220" y="30" width="60" height="20" as="geometry" />
        </mxCell>
        <mxCell id="677b7b8949515195-7" value="Change Language" style="text;html=1;points=[];align=left;verticalAlign=top;spacingTop=-4;fontSize=14;fontFamily=Verdana;strokeColor=none;" parent="1" vertex="1">
          <mxGeometry x="950" y="40" width="130" height="40" as="geometry" />
        </mxCell>
        <mxCell id="677b7b8949515195-8" value="" style="whiteSpace=wrap;html=1;rounded=0;shadow=0;labelBackgroundColor=none;strokeWidth=1;fillColor=none;fontFamily=Verdana;fontSize=12;align=center;comic=1;" parent="1" vertex="1">
          <mxGeometry x="50" y="230" width="1020" height="379.5" as="geometry" />
        </mxCell>
        <mxCell id="677b7b8949515195-9" value="" style="line;strokeWidth=1;html=1;rounded=0;shadow=0;labelBackgroundColor=none;fillColor=none;fontFamily=Verdana;fontSize=14;fontColor=#000000;align=center;comic=1;" parent="1" vertex="1">
          <mxGeometry x="20" y="140" width="1060" height="10" as="geometry" />
        </mxCell>
        <mxCell id="677b7b8949515195-10" value="" style="whiteSpace=wrap;html=1;rounded=0;shadow=0;labelBackgroundColor=none;strokeWidth=1;fillColor=none;fontFamily=Verdana;fontSize=12;align=center;comic=1;" parent="1" vertex="1">
          <mxGeometry x="30" y="160" width="1040" height="50" as="geometry" />
        </mxCell>
        <mxCell id="677b7b8949515195-11" value="Home" style="text;html=1;points=[];align=left;verticalAlign=top;spacingTop=-4;fontSize=14;fontFamily=Verdana" parent="1" vertex="1">
          <mxGeometry x="570" y="175" width="60" height="20" as="geometry" />
        </mxCell>
        <mxCell id="677b7b8949515195-12" value="Shop" style="text;html=1;points=[];align=left;verticalAlign=top;spacingTop=-4;fontSize=14;fontFamily=Verdana" parent="1" vertex="1">
          <mxGeometry x="670" y="175" width="60" height="20" as="geometry" />
        </mxCell>
        <mxCell id="677b7b8949515195-14" value="Contact" style="text;html=1;points=[];align=left;verticalAlign=top;spacingTop=-4;fontSize=14;fontFamily=Verdana" parent="1" vertex="1">
          <mxGeometry x="770" y="175" width="60" height="20" as="geometry" />
        </mxCell>
        <mxCell id="inAHwRH8JmEoSRbN4Fz0-1" value="" style="shape=ellipse;dashed=0;strokeColor=none;shadow=1;fontSize=13;align=center;verticalAlign=top;labelPosition=center;verticalLabelPosition=bottom;html=1;aspect=fixed;" vertex="1" parent="1">
          <mxGeometry x="890" y="94.5" width="40" height="40" as="geometry" />
        </mxCell>
        <mxCell id="inAHwRH8JmEoSRbN4Fz0-2" value="" style="dashed=0;html=1;shape=mxgraph.gmdl.heart;strokeColor=none;fillColor=#737373;shadow=0;sketch=0;" vertex="1" parent="inAHwRH8JmEoSRbN4Fz0-1">
          <mxGeometry x="12.857142857142858" y="13.571428571428571" width="14.285714285714286" height="12.857142857142858" as="geometry" />
        </mxCell>
        <mxCell id="inAHwRH8JmEoSRbN4Fz0-3" value="" style="shape=ellipse;dashed=0;strokeColor=none;shadow=1;fontSize=13;align=center;verticalAlign=top;labelPosition=center;verticalLabelPosition=bottom;html=1;aspect=fixed;" vertex="1" parent="1">
          <mxGeometry x="1000" y="80" width="56" height="56" as="geometry" />
        </mxCell>
        <mxCell id="inAHwRH8JmEoSRbN4Fz0-4" value="" style="dashed=0;html=1;shape=mxgraph.gmdl.chat;strokeColor=#737373;fillColor=#737373;shadow=0;sketch=0;" vertex="1" parent="inAHwRH8JmEoSRbN4Fz0-3">
          <mxGeometry x="18" y="18" width="20" height="20" as="geometry" />
        </mxCell>
        <mxCell id="inAHwRH8JmEoSRbN4Fz0-6" value="" style="sketch=0;pointerEvents=1;shadow=0;dashed=0;html=1;strokeColor=none;fillColor=#505050;labelPosition=center;verticalLabelPosition=bottom;verticalAlign=top;outlineConnect=0;align=center;shape=mxgraph.office.concepts.marketplace_shopping_bag;" vertex="1" parent="1">
          <mxGeometry x="950" y="94.5" width="36" height="35" as="geometry" />
        </mxCell>
        <mxCell id="inAHwRH8JmEoSRbN4Fz0-8" value="notice" style="text;html=1;points=[];align=left;verticalAlign=top;spacingTop=-4;fontSize=14;fontFamily=Verdana" vertex="1" parent="1">
          <mxGeometry x="870" y="175" width="60" height="20" as="geometry" />
        </mxCell>
        <mxCell id="inAHwRH8JmEoSRbN4Fz0-20" value="" style="whiteSpace=wrap;html=1;rounded=0;shadow=0;labelBackgroundColor=none;strokeWidth=1;fillColor=none;fontFamily=Verdana;fontSize=12;align=center;comic=1;fontStyle=1" vertex="1" parent="1">
          <mxGeometry x="50" y="640" width="1020" height="330" as="geometry" />
        </mxCell>
        <mxCell id="inAHwRH8JmEoSRbN4Fz0-21" value="OPPS! We Couldnâ€™t Find this Page&lt;br style=&quot;font-size: 21px;&quot;&gt;The page you are looking for has up and Vanished." style="rounded=1;whiteSpace=wrap;html=1;absoluteArcSize=1;arcSize=14;strokeWidth=2;fontSize=21;" vertex="1" parent="1">
          <mxGeometry x="300.68" y="450" width="520" height="69.75" as="geometry" />
        </mxCell>
        <mxCell id="inAHwRH8JmEoSRbN4Fz0-22" value="Back To Home" style="labelPosition=center;verticalLabelPosition=middle;align=center;html=1;shape=mxgraph.basic.shaded_button;dx=10;fillColor=#E6E6E6;strokeColor=none;whiteSpace=wrap;fontSize=23;" vertex="1" parent="1">
          <mxGeometry x="475" y="540" width="170" height="50" as="geometry" />
        </mxCell>
        <mxCell id="inAHwRH8JmEoSRbN4Fz0-24" value="" style="shape=image;verticalLabelPosition=bottom;labelBackgroundColor=default;verticalAlign=top;aspect=fixed;imageAspect=0;image=data:image/png,iVBORw0KGgoAAAANSUhEUgAAAggAAADsCAYAAAARtl7eAAAAAXNSR0IArs4c6QAAIABJREFUeF7s3Qn0v30+1/Hf3b6XbFkKUUSFMFGMUkonkcrWIku0WFOnIkXRRmQpIkTRNlk7GCGN5UxTiZAhjY6UpWkGszBbTed5nXn8zuv+9PuPuee+Z+ae0e+c3/ku13V9lvfyer/e78/nur73PfOZz3zufffdd/Oc5zzn5qf+1J960/v//b//9/Xe683Nzc3/+T//p5freOf+tJ/2026/61zHXffc5z73Ov+n/JSfcr12vGNd+zN+xs+4edaznnW1Xzt9/+xnP/v6vvOMoTa2n7OtrvnpP/2n33TeM5/5zOv6zqkN/fe+Nuqrv33fuTvvzjXnxmAcvXZubXbOOQ5z63WPN0dzIgvzaxz1XZvaNnYy7trmpT9ybs6N03nmtTogg67tXNc84xnPuPnZP/tn3157zoWcOr/x0XnjpNu+67Pv6JfMHO+z9+bIBrZdetxzyWn7pC82sbZIb7XVcWNpjM5bPa4tsJWO00tyT04dSw7kpz3XrD2ZU+3sONjmKZdLOM+TJVlpo1e26ZzmmAzWTrThu/VRvkFXbLC+soPsi3zX3ncMvV//5k9933jYFt9Yu1lZaaN+2E1tJaef+TN/5uU3jeln/ayfZUq3Prxja57aMOf1P3rZPszbeFbu5/i1Ta/G1Of8uVf64G98yLX8IfnyIePS98p9sZHt1hc8JltY8vSnP/3m5/7cn3s/u14cIWv42ri0x77JhO/Bi9X12pkxLgbWfrrLvuF61/eZThfLO0YH7J09NY6O9+c9ucK6E8u1Z+6NoWvIVkxhz9qBRYv1Z8wzT7a3cuIT2lssN6+1UfiRDsgdDuYvzy/m0cfOkV9nm8lZW/p8fjGvc05d0snKG87c97SnPe25dbCdMAwTE8CBagbQd0ATGHKiBiG4dc2Cqza6poF2DKAS1g6YEjrmGo6yBCHha6vrOccCbePrmo4n2K4BJAx5r1tj1teCP7mYx/bVeT/2Yz92BZnGVV8LrpygMSXPzudsAtk6C8Na5TMa/S7Z6rvaqx8g2LU//uM/fo0JwNfXXYDC2VanGwwFnSUFgJG+9WsenHeB1Zh+3s/7ebd2sEHpnGNtkBl910/n0S9gNR5jBIJAXgCmxyUI6Sv5GXt9aY8N61fQWmDb4C6wAKbTvvucTQu4gO8MxrX5c37Oz7nAGBEFZMAV2ABFINl5/LRxLKGuvSUo2j7JGZvZvmDESRDojV/RyRJXsl2C0HsgtnZgTEuEkN/FGHNhq4AOGT9t03hWp+mBPpJTpKV27iIIKwvvEbklw/xlyX764OsboNfmEAsYsz68WEQW9Kg/to4g7JhWfiun+kduamexV3Diw44hCMjIXf6CLNGBa06cY6drw4iTeCDJ5DvrE0sQjGN9bmPF4pz4Ul/Jo88wK9ysTwRYkuy8M+Z1btebw54HL8Qaul8i3Bw2XtEHmSHU+Qs9imUb/87xiXm1zWfJxliXaNz31Kc+9bmMrwEDGIEhgdRJbKVB5ywFvhrtPcfbyXHsNZauTci9Eh4A7LwckTIFY84ky2h8jAeoc4AFvM4D8BxsAwhBAvw1vsZEGZt5m1PXMo5tG7kBIn1+6lOfesmo9pKf4LZB+xzf6sAcAU/X65tDbIUC2HDEZYTGhyAwnHWwBeRzjhs8GRAg168AWV/pI1k2f6SM4xl782ocT3va024iCP11XefVRmPtODBAZlYH7PUkCLXlPG2swzeGdTYBSDaQHmWzdCrY1V7jS6fAdOfYvDaYqMogYoJ2feVLfV/gLzMENI2HrbORPpc5ntW32khGtdeYyG91IHshc/7GDtYXNzFgtwFR79kLEDpJjIDBx+pvx7R+kOzWTwE3+QlOyHZjWLtIPwBv+wXqEhn+o6JXvyoo2x4d0Glzkw2bBx9ewtF36aDxJXt2i6CzxX2Fr/SBbHZN7xtfuibnXs9KS98J/IhT13Zd42mMyUgAaq7mAa+7vmtLGtgcuSOs/LYx1cbKzBzZTG01f3FjEyHjRbyddxL7k1Cr4ixZEkNk/oJk80MQzL/XTSaXLCCUG7/EIVhUX2FU49wkjj8bgwC7SSb5sk/98LvaTO5LlsQlZGQrHUvI1zbFFMS2NhARuAe3kWF2ATvFjSUmF0GoUdmBstEClIyNczQwTnQqfQ094WC02K5lABk1BzHxzuO89XeXAwiKXSMzAXhr+DmH8XUNZ2vsKbrrCb9jGNVmmEAoIXMiRgU0BU8BjnMAjWWdtVefxs5ha0v/yd5nINcxICDYG1OvSBQ90g85u0ZZalli8+q8dShy6Tp6RFjIWHDuM9Co39prPEgGcig73IxfRhQ4G7sguUGt+QNN8hP4l3BsYEZgaje5B0hLbBdczgxLEOesa/u1W3sCMECh084FLmvDWPsCrbEDivplI4Cm/tgq2S4AdKx+EMhkmjyXSCy5WUIOWJfUsznEbAFlKxLIrHkJLLBjg8RJMOu384Ec36lP1cfNmoE6WfQKrNk60ocg0AfAM8faQr4WDGW2zpOlWYpZArwkv/PpYH1kSQtb7DhAZnMbJID6uWRKB8jD+hIMXPujG+RoAzUyCxNUSdhF82UvEiY+SzYCLjLH1wW+JSPN71466DyxwTyWkNcegtB5J1mHlcgM+UkOtI+ISh53+VA8gJUIER+GX4h3fUogeq+qIWmAB8awcWgJwhIJOuA7YnKfz6SVv62N6Kt5pYsdH9s8q+YSl/Ut+FjsugjPs571rKuCsBn5GrsBYmUbMIDUsjeOx1iXNQMwrFO/ABX7EQhlps5jhDKBBcZ1Nn1vluRahn0GEoGAMszjrjZkOs6hdG3ri4FRQDLcOQCk5utPRmaOHBtB6HrEBABtZs4R6QlAACZGtfoucGbEHHXbWBm75jKc5+0vwHyXoK2sgZ85bna9smD0gJBsBXFkhJwQys2yNyszRgGIPO81R8BHR+blfM5/LjuYAwAVFGXNAFMQIydkkF8JmIgbUk5+G2A2I6zf9Rf+tvo5Ax/AA+LIHL9cwlP/q4PeA6/mvkFX1YBOED5z86qNkyAscZJ5yRrNZ4myQCtDMnf9IP0CIZtYPGGXwHoBGSlFECwFkolr+bdXhEGFtTZ3TObilT7ZnHbXt5AvbbMHsuTvgh1C2VjX5vkfnLEMSs6y4sUqGAQjBeH6UCHkB10nMVq5kP3qz1gka/CePo1lx4+4NK8TS81BPJLswjDzOOe2FQw4yeZ7TbabqDWGu7D8jHlrnyoeSxCQFrHoJHhnH7AApotDO/5NADfWIftIGNzhI/qCc0jifT/8wz/83L7E2hNILATTkqUloN6nzAyg45WFe6388gt+wS+4DFHJtDYKPAy4a22uYeSMFFgy5tqrTIY99r3xNemOJUwCxSwBW5+3RMcJaqf3HW98zYkSez0z2/pqXrXVf/MFGrVVG9oDlBuAn/KUp1znkEUK/YW/8Bde7G7H1Hx3s0nzao6Am9EKjioS9fXzf/7Pv86rvd6vDsoiZc1LEAQ5c66v2tJecuDkyV3J9MyI6C09Kc/2XePomuZpQ6Q1vHQOyAF3cnq5l3u522pPx5M1O8OKs5/0kXwEoQBKqZ+jrBN2nva6vmtr49SBJTTgoiJDRskPATHHxifjF+wE3a18qYSoCiWL3vOltUeg2zVsE8nou1/8i3/x5W8ChqxPlqaq0RzN154TQNRcEJglErWBPPTKfmACn2uO6y9sy5hkc8a0S4uqjwghEEtHCIJqj2Ank+cjxk5+yFf9CgK1YYkP6O15gDT7Tk5smC0BYdVMxK05IuiSia5VLq+97AJRJIsNvIiUytwSDvYHA5ExeuoaY+c/AhY8M3b4KOPte9XX+hFkYYdqXrKr7ebUH6ID2+CovRnsou+RiPrqP9laGtrKc9f0ORtLHn1egiCQNc7GZ1MmOddm7xuzqhrih0QgWDAbdmhPfFn/Q7ibyxLWbKnvLPHVRlhen+bYmNIbrOhYcxQnzXHJrqB/6sDeNcv5WxFcgsA+knu233nNoTGJB71Pnxuv2Bw8RjiTVXJqHldlpE2KHRSAMT1ZfQ1vZgasVjGYXOcSFmUlZBurBDgK7LOgvlnHVggSBlIAaLpux9dnbIojMg4loM4hIACHqDS/2uuazleK6TvZGTa6gUCgwzI3mDRHgWBLphy0Y4gO5RgfR+M4iJP+OHZjlR1i630+GTx5Atr6SU5Y8cpMX40vvclugBpSsIHF8o1jG1isqcqi6FMWUjuM2XwXhHsvS0HCEMBzWYYsAKb26JF+ACvb5CQIK3JsDwJZYNtsQTC2JGCO7Lt+yXmDU+0A3uYOuJcUdE52T7adX385b+MRsAT0JZgCa+cjHPyg6/izAF4/a8Od03UCofZUDOhem8bITyUTsnLkcEHpfI/YWmIQPOu7c5PT3n0DO+qTzxqfzycprc1ss2vIT0CvD/bT9UimLI/dskc62PNUGuhREuJaQU8gVGFECpSZs8snPvGJNz/6oz96vfZff82vQNX3ytZISnbRX5jyi37RL7qCQ4Hp1V7t1S7ybS9C51zA/7x9X52PcDjWHBu7wAJv+yygs2HYBYvgMkyFy8jK6kCs4SNwTyxQSaGD+vBvnwWi2TiWADdHtt9r41XFYevGSi+CbHbABzqGSPTeknNtIoGSPeRCoFZxEvccF+C3asXX+w7On/HAOOCepRf2xVeSEXknHxViOKdf8Q9ekjudXoTmx3/8x58LrClsXxc8GTKwO8vAJibgnBm575dkULAARNG7BiOTYtiUzSD2miUf5sGJ9QscCIhBUI5yEMcAhMvYHROYjQ24cCDKU0ZjHGuwmOVmEsYOKI0ZwDN68tMvQgPEBUnEJKNaoN1AY04LFL1nA9iusXOizRwAhbLeypD9MEBzJKvTrpbddo3S487RPDmfIMHp2Sjboy+2usGOg6lQAOG1u9pZe1z5LACYf7JpDF1jCY2uamvltLpYe+IbfbdArD/EhKzJaUFc2+avwmE+m22RDX0BVr61AGc85EC32u3VOPmX5GEJG3AWqFVdVr/69R07ME8Eb4k+gmv+5kIvO9f1SfPYdV7zWN82Fj6zskKYVZnomj0gJPXxLd/yLTff9E3fdPNt3/ZtN9/zPd9z8yM/8iO3G1Zls/WPjPFnBEnSI7tnCypVEYY3fdM3vXnEIx5x8yt+xa+4ec3XfM3balHjlAywO3qjR/qFAfwJvkkS10Y6hiC4ni2zWbbAHvm5xHExYOOSfulpsYhf1RfcXZsz1isSP+/vtHHtsjHYoOKVnO7CcjZ+LyxfjIUjArqYd+pgsV+y17UI5RnzECtxTxxm63yW/0lk2Ce/vzBUBcEalkG7uJMoowu39MRYCUugFsROo9oBEMq5piugYW4MhNKBQGNZgoCNK7+fLKnzZd6Na4GRc21w2X7JQnYtA2EE95KZpQOleUbW2NZxGA3QOgE0eVL6BjGyAIIbFLvGHMmiccoW1sG2IiHYY6BLCvc8ALH6OInOOpH32x4Hs/S0BivLPYPx6gCx5ZQbcLXN5na+gPlkzGRWe4CAnW1WcS+Stn7AlswjvW1pnn2T2YIaIro2nBwak3IqudTuLmcosZujMa0/y5xUBwXUlVnv2S0dL+EX/NgqXz/7BdxwZOWymU7n8eG7/GqXIhAgvt5YtpLGv+HDXXYrSDhG92SBeCPUjd8y1MqFzODFzt8mSsEWqD/hCU+4+d7v/d6bb//2b7/5ju/4jpv/8T/+x/2WE9OP8a1PaJtvChwCJxw4zxMEBb2Ov9EbvdHNB33QB9289mu/9sbJ27vY+AtZbgBG5gQW/mLj5PrV2jebgR2ycESi9vhb3yEjdG8MvdI921yC6TzH9Hti2znHzneNNsSNqgTIK6LORtb/CJNdLQbSzyZUbH19HXkiF5hvjnDEfib2eBKO2mZLqysEoT7ZEv89z7vv6U9/+m0FgYBkOpRLWDVi7QdgysoJq3PqGJAtM9tlhAVhClwQ5vQJfxnRll1NjiAbp5J2x3rfnCiJgrRhrAQu8C9TBdaCOCdrfDZ+MArkhlFZYiCDZc+yEIYumJP1OoBz9bOZKPDhbM7d8ekXCNf2kpZzHZ8DdN0SE9cwZvZhvgsM2Cpyw4n6vuu0bUzAhXNsdmgMDBsY95osAm5smQ4ZeucAf+edlZAFJf2S5wJj87e+TO7YvjFxysaBFOweDk6OGJMTGyFbzmvuC3JskM/ROTAArogT2xWAu37nsdd3rtK8ALQkbe3MdQDffJOF7Abw0Cs74Fcb7Owt2GAvU+aTC9wAHklht3yJ7Nht12qncdiYS3fI6xLqyKvz1u7NGWbBFnrcalf9Pv7xj7/56q/+6pt/9+/+3c2TnvSka5lgAzwsWrtd21iMWd/iR8YuyWADljvIm4003t/9u3/3zYd8yIfcPqyOrsiPr8JUY4D5AnpysVfDPGxy22qOpSd4pDpzl05rRwIqa95gR96WH04CA2PgD+xYmZ5YrhpDL5KLZMcn2BRbMI7mpFpxxjyyF4sc5y9I4GIY3+67+koWjUe/cLPz6tfYLccuqV/iU19LqPkfHGtsYs/lK93mWGdu2+pEa6rWOBhd59m0ViMmuk5uoK0R7Qa5zrWGRUmIRAOWUZsMA2FUAHk3H275GLhs9kHgjNc8zHFLfZzBnAQKTHCzlubV98nJJhIb6WqbbDrWOfpdhof9dUxmYo7JwiZFTilzXpDiaL0iPc0ZKFQ23I2YtbWyWMPpeqRKEGMsdMBIGR8H2gAsGPXadTbI7eaizcRqw16ADdTAv/lygM7d9e7OsU4uI9+sAWj0mk4QBASLzXXtrgeTJ/Bf0lYbjXNlIaCd69WIE/lx+l0b57DJqbabo6UN2StAbm7WHzdQr23mYzKdzqFTPta4yRkpUxlIZ8kCsVXVQMTqB1ghLKvvJSjnujZbsgkwmfE5pMqeGABVf/YD0etm8rtZ0C3IW5kD9AgCIlG/++wNZM5mYsDNX2yQo3v6JgsBcolE8vmf//N/3jzucY+7+cqv/MqrWrDyE9CXAC5BIa/a2Y2dsJOuEGD6oO8lS2dSldxqv2WHRz3qUbcPvTv9QEA6N8g1f3vN4KW9BY1L5caYehVfjLvvamMfkHb6ywaqrstOYO/ayO4BWpyEnXAVqWNnm1wYH/9jm4iWfV2bGGwFobHbXAsPm2PjtUkRAZMcqBIhUTBs91L0vuPiAfyvP5soN+YZH4IOO+pbRQsebvJcu2wRVjb+2wqCIAYMeuVs20kXC24Y+Zk5CsBdz7E7F+FgOACgc/Y9VrZ7ATil9jaIAY3OIaxlu9gRNrYMCrMULJEK4ELgwKXvF5ARIkFHX4A2oxHsEARBIbmqfnhfP+vkZIWwnIq+WN7zWCYHM74tX3VM5hgQbnv73rwZjCCBsCFViJN2gQsjb9wcYAN116kKyX5yImNiW4KNOa0Tme+OiRw6D5ggS0BjKx70eK77ySo2MwHKGwDXljgWme0c+Qu5CDq7ycx4jV17yWKzEj4ChFXIkIW7yCYSCZzY9xmMEdslR+bdd2vfKjD8tLmR/wUqz9vk2NyXSKwtuQZ2IC21Dcg7trcK9j29bSBAInffgnnCs82kO8bmFkcQCf13bKuAS4jZwmaH9PYf/+N/vPnSL/3Sm14jCbAUuRXUF6PY3cqR7gowbTTstTbSOxKo7fRZwG28VSd6v7pgz7Cl81/xFV/x5pM/+ZOvZQY2BL+MDbkQTJC5rRggMQIfu4VziC39CKzwQXxJBmx47eDEYnJprGu3gidbhy9kqzKy2IYcIvzkwC4E05M0b79klS2ccyR3vrKVB7ap2oE8sTMYCx/EBn5gTBvzxGQ2tliJVIl/MJU/uxZ+XT70xCc+8XrUcoIiwAV92QXjx6wWuBoMB19A7FzBR+faPkEOGweCskyO3qTWeYBNx3uvZArUKG0dbwPhmZFzAIDW8f4aF8Do+s3g++x/SzQrD6DAWRc8lZ4XzCibEZD3jsHcMT1Oq9+VgTHTn93gnJecXHMamMDGmFUkOLXsfufHoZ2jDbowX7Jcggk0yJ5dsaV1xi3jGj97Xblv8CEP8l3yyL6aKzK7xPGU0RK95kTG6cMOZlmPTBjhBJJLyJZErK0jsc0XiPZeAGazmzW6nrOfbSv1Gxe98zO+wg9UCYFur/o7AWrlYmx0DgR9li0J2pICYIaY0Jv+++y9gABIAa4lQG3wJT544h1gFvwFq0hKBLbbcWXfnWuZgh9+53d+582nfMqn3Hzrt37rdb6kS7DLJiQaxq6io7rwWq/1Wjev+7qve+0R+NW/+lffvOqrvuoteUaq+PmJiWsz/+t//a9rb8MP/uAP3nzXd33XTWOrmoHQZN+/5Jf8kps//+f//NUXX+JfcG8DGpnz9cVypCDZLrGlA+cuvmhviSN/4Z/muL65cYXOBUI6hefOXXJPfrDGXMUSRH0xF1FaAtX5vl8sX4zZxLKx8FuEYe1czCOX1ad5IDf1bfnrXli+MjM3Y9Ov9przLl3fxm17EDi5CQFGwFJDnHtLbYBiFSrjyIEEfsKhwM45y59bPm2ADEd7sleOshmbEvbOY4M8AAdYBIQxmi+DAzpne8DF+DBQ5y1rpUCkqWuwtQW65ISpLuhieDv2UxaCEsMVEIyPIXJQt+QghfoFqtrjmEAO66QD520gkpWetrS634AlOO6Pz5ybKHceghQwcAxrZ/ycoVcBCEAs0VhignFzjF2j3iwXkT6J5wafZKtKQn4boJEPtiTop8PNYKy9Ikv1vc8osfMc6OiXvdA9MrKE6tzgxE9lKXynz/x+MYF/ZBfa914bW0Fgf9qj+9WB+cqckoXysUBFZvxUFmmvApyix8aUzFQzLW1slrsZW9dvNXOX5OiU7Sv9Vyl49KMfffPYxz729tkTbJDM+BOcbEzIwCu/8itfZOAN3uANbh/vvUSNj20Sgqw6tp/Pa/vcxsj3fM/3vBIpfpPM/tyf+3M3b/M2b3Nh7SZdyu+y/2Qka1675QdkhuhZbhFsd5nnrEbxZ36wy8Vrj3z4lC282eSC3CUK7GfjFbxgS1sdXWLbeeLLZuHsHqmCbTB6x248yP7GPza8SUttnhWJMyafS9jmgRxpj8/BImMQX5rf4vnGq//nNscGvoF5AzWgkH0QEMUwzCZsvQMgMyTgxeBsZtlS1gYnwXPZqyAL1BvvrpPXlvJkbQF15AQYbokFCG9WskyVgXFERmp8Oy9gCFywaNdw9Ma/AX3niL1uVkOGuzbXd4LTvUgavfW6RmVN3r29GyROoz+JxOpzZbEBHXj1nTV+320WBKwFOBlXcze/neOpAySN3W4wRiJPgoB1G7vgKcMHeJ23pEWQ4LzrXGtn3pu7MdXfrs8vMUGk2Hfnmv8GQrJY8OPgwECAXP9bcmP5UDCml/oTtJEA4xAYFsgQR/68m4QFYwTm1AECZ5mHv5gzHagKLcmAUxs0AePKrTnsUuW2rd/acg3gTi4R19pU1q+tzY7zpY/92I+9+Q//4T/c/PAP//DtM/WV2msDiSCzV3mVV7l513d915s3f/M3v55X4OE9yYpP0RkfPJMwc4CTPrMl1/W9ubXU8R7v8R7X8gNb6vwP/dAPvcYDI2TTfAwp2MRgx8nnJHvsnW2yIRhIbwLwSUTJDN7U/y73NQ7H6HuXnzconnPhI5to3JUI8WnYW39LqCVT4ok5woS1v40nyFJz5EsqOmuDS+Th1BKTM76oYHWuJTnxlB6Rll0C4VdrL+zAGK7bHPvSBh3sokHsU7BsfmoAHMcDkAwG82jyHhKidFG7CTlDkb1uVnAXIAuejc8mkiYoc+IQ9Wc9BlPd6gSAYtj1u1nFViQAAiNwHkdZNrmZjvVgINc4eqhJ890fgXEeo68NFZmO2fTIwShqAVFZuDGeOmguG/gFT2Bhoyij6vslCLvm21yXTS5xFFBkvI13bwXaEiwm3fXLsoGDDWONZZ/gaB6CDjvrvObBlhj6EozkteQrOdWP+TY+9ihwCeKOJYuO0elm6Pyl9jZD733XbLZJBx5W0xwbz6krJWg7kdkIMG1cnnqpmoDA2Ax7EmUbHc+sYoOxoKjcrfLVZw8EEmTJFUnhF31GMFVCkgX77nXxAbiqGtQuELZhk5/2KjDTR9d7mE/XwhuY0vHdTNz1HfOkOXIB/sCVzbF9WZt5JIeeUfC1X/u1N5/92Z998+QnP/lql27hgw2UEYAqBD174F3e5V1u3viN3/iWgAnsSwT46QnavhfQBJ5tQ5DZc3zXmD/gAz7gWv5IBrLnSMMf+SN/5H77FQRgVRf7ZfgLmdFp58GBJX1LjmEWWfXqAWQCLIw7KwgnQahdJJofIKgb3CWq6dB5a5vZo6UBPrxLJflp+u4/7Khtm+9VVlYWNik2Dwkyn+i8JVkwB7bVbzbctQi6Kg4/OKu8kj3EpDEtQWCTfc9HbBKWgNb2ksPG5QFNV3x9ylOecr+7GDpZaVB5FpD1ysm72M5hGdGCv6AjS94MEIAyCIRBxiG7oUCgnuA65o4BTgQ0bN7pvAUuIFQ7fd/xNvxYT9+MyHW9ngJvPMuQN0NgYMrHjU1ZCrlBPtYIVD9WtoJO56vW1F59AEBBd+84af5kySA4QOPuO8HpZOoZH8JhaahrAB2nxIIBD5YumDiPIzY+slB2TP5k23tgTY/JWTmMLOhNdrZZ/WZpSIQKBQdg9Jx3gYIOBHfkxgOl6GAz4ICiQLr+wrGXqHQcQZAlerIZMK1d/tK5SB8/MD5BjH0jm+bMNntNH4iOp9+p4gC1rkeaBZz6QtLYyOoe4efPbBpBADx9z6aXOFpnXYJgHncte7hdWgLRWMhziQSgXcyitwXu9RcEUHv20wgmzeGHfuiHbl7plV7p9n7yqgWf//mffz3YCAlE4BqbBKvv3uzN3uzmbd/2bW/e8A3f8OaX/tJfevtgnWxPFriE4CQHAv1JFny/mapMURsn+SjAffiHf/g+5sL1AAAgAElEQVTN13/911/NsY93eId3uHn/93//644G/idhFEzsN1MpXj+onfTGLmA7rCSjZF17/H4JggAmUHUeDOD3fEdWz87qOyyHKfW/VQ1LT123RAd5NT4EeJPW3ZgIRyWM7FHgRyjtPZLxb/zbargxqiBsewiSqgtchnP1BVPtdant7EJ74mTzkUAhN42Z/NhunztPrKWr+57znOc814FVEPZxBgLZhsBBkUoXyEUTrtPNOmWt2D7hLUEA7MD2BDAKIbwlM4xS8EQ4gJ8210EZxAl4xgFUESNZb+d3TACsjwUK4E9Osl3r9KcBrZPUhyCyIIQ1q1wIHNpmgMuu6wfpqQ+7txvflrxUY7B5860P4GPMC1y1IzCRP5JEHkBzdakNczBO5bcFeksN7ATZWbImIAmqwBOB2XV/gQMJYR9I2FY/2DsSyS7IZMlF35GHyg97NS/jQRLPfTfrvHTCT9jCBgbzpjf6kgkhSNqSYQHh1angq/ROlr4XAPkAPwPCxgmQkGYBDiaQEfLEh5dcs4/aRMJ6z18Bqr4QFAGrvukGwVn/hGvNUdYluEqIkF5tfd7nfd7NP/yH//C2TN/vYlQlbCyv8AqvcPlWgbi7Aj7iIz7i5tf8ml9zEWzYIiG6K7CzHRhFn12z/otYmC9fFzTI2is5Zg9/+S//5Zuv+IqvuH2oVNc88pGPvPmYj/mY+z16Gj7yC/6SnmTBkkHEVgUBOWYTkjJ2yW/EGsnbznsJeedtgkdvbMlnpKV+vFdF5iOqa+ZBZoiRDJ7M7vLVs5qIGGzCsboT8ySJdC8g8z9kHIbCZkSafDcBkiQ1BgktgsCe2M7iET/lT527shDzLsyqgtAbAVdGsMxtMwnCbOCMYG9TM9CTBABaWZrylc+UIbDWvn5lIsaEvDRp4LLl4gUu/a4ia0e2QIAckTEx7GV4SrDrMMvcgL5g0K7n2G1tdB4WSzHGJKvagLVMkHNtYBR4nIesrLGcewuWtS9BEJyXLAmEgjKQBhCCPcPasS9rx/zPoCxIJLPWRf1YU+13jD3KCBoP5wAatW189JaMgQTw4BCyDBkrmzvnuEsMwH0JAlkI2OvExmu+7Jmd79jpqnOAFjLV2AGjwJadVLJWQRCoyYVNaE9V6C4SIlvfzEHWeQYEAVY2QhY+I+LsBylZ8pg+BZUNkHf5sDGRBX9hS4IDEttxyzIyTH3VlnIvbIMP5HcG4e236kfr95/zOZ9z8y//5b+8vS25H+qpbK9qGTHoUcbv+I7vePNbfstvuf3+JG6SsQ30GzQlGnydTCUQsIDc2P0S17tIQu389b/+12++6Iu+6PZBOPX1Jm/yJjd/5a/8ldsf29vqFp/z+xVbQRBwyFkAE5wX5/nzZtf1vQkWna5/rD1mP4tZW9XYfS+w15KDcRj7Eg5kxvj41YlZzWk3nMMHz3hh75LB9T/Yo1+2j2zzJQlRx8UyiWDt79KB5ed7EYSNQ3xp8Zt9i9XsxZhUU66korsYBMwmjrELzr32bz2m98otylSYZoNZ5nOCIfAXMAkPsMlczjISJoil1Q9Q5+QAzySVvBAERKK+Gr9fQeSAjG+Fh/FfgnreZsB1ALJaFsvBGFVG4xYpBOMck2xAoAYYDHgJAkIjcxKgActdgL8ZyF0VhCUIHE97dNyYGOxmJ3S/mYLAx7CRQWTm1LdbLzse6PoVspMsbGABSHSwJIC8jKnxsAttnIybDs1RZnmSPv0hMOt4mPjqbYO2bI/NNaYtwaab2lfGXMc1DkDpF1Q7fwHlJJv1pb3NYNdf2FLjEywB7ZZglTj5ksDtOjpYggATkkMg51ZB/rQZkTEhm2yuVxWR2rNnZ5Mamdip8w207IDuBY8NTjAmG2w+leS7dfG///f/flsNrS9LdfWXz3zgB37gRQwiDoIRm1ritJn0BnIBHsHtWLcqfvM3f/P1kKUqFfXTLYm/7tf9uqtiUd/II8JBrmfbff7ET/zEm6og7DP5tTei79swiTitv/AzOmjuiFnf7X4o2e/uVVD9Y/vrV3cR0SXUJ0GAk4uHySWZn7EBOd7qFqysXTgPY/juxh5r/PXnh6uy4b6XhPBvcUhCgTTv/FV4EWcxih8hC3wQ9rKNxn+vpPjEsz53PV+sL/uXap8+4BmZ9LoE/dqkKHBhXYLEZlgGoOwmq0AClNIwZCRgA9gGY5koQTNEDKoJdAxocPx7ZQFbDmXo98pe1wHOAMe5CWw3kVhOQIJkJrWxpR1AmfF6AFByas7WQFe2ylYcoPYYh9LbkhXKZWC1xfEY6DrvGgSgFcSNvTYQCQSGbuh0CeACk0qIDJ1T7nUnOTSH5GyTIkdg3M3PvJtPcrLJTNtKyuaBiXf+Gr1Mpz5UEIABwEM8+36zcqCtPaSgvgALgrmZk8BpTAIrnSItbFCWCEBkWAJ47cjmTrBzDbCRcXTtVjW8Z3PGcGY6yWJBRH/kAsRWP+yMfxjTqZMlrGfJNH1u4iHwk7N+zUNfwHB1JQAhEhINZGtBnBzgTnsPvvEbv/Hmb/2tv3WbEJElW2t+v+E3/IaLHPTjR/0lRxUlZJRdb9BGwJdsSy7+23/7bzf/+B//45uv+ZqvuaoXAbuApvz7237bb7t553d+55tf9at+1f2SF3Lavnpff5/xGZ9x8+mf/um3y2B99+qv/uo3n/u5n3vh0hJbPrFYqc0lYRK1Jb2CGPyGD5ZXYc8miHxxCQI57hLDJg3eIxJr63xYDOiYStouZcEYRIecycwYd1M0LN9KpDlauoOPG6+2zE8GMEH8Ek/F5K7pj0+Qc+0vaZbcL8aYO9nqs/aSLbyBpXx8ZXHfM57xjOsuBqyhjoGr9xpOESoLDGcNse8MhlNg0QTOuU6CgAhwMmPiSDsGSjvBgHN3fMvR3gNaQKYv7BuxoAygsWDMORil+XmtDSyMsWD6teM8RGQZ3LYNeJcgkK8S0LZLvs5hAM4B9ksQOAdyA0B9v4ZE3xixeQJ7RgYUV7YM0fxPm1Eqo2vAoI3GjglrA8Fio3S68gI2goex0cGWackbCVrCqk364bBseAPBZt7rrJ2zWe6OBaizT7pbP0RAtqJDTuazAHAG/nQgeMnCt2wLQOmX3ZjzklJAu+M9dYX0LBHdNpc8AdrdF7Hgj5jxwyWe/Gf7aSxL9PWLeDa2Lemyz65xt0vB9Iu/+ItvfwKe3QmcPcDoj/7RP3rzm37Tb7r9rYbFrDNA72fYsd8ZT33+/b//9y9iQK+LI/yt717ndV7n5nf+zt958/t//++/fWAbUnbiU3Os3U/91E+9uhW4usPiH/yDf3C7l4q+BQkEYAk9eSLbSvPIsfGeAYl/u9441i+WpND3WZEwFu3xubWL3jcuCd7iI7nv+FZe/A7G1b7K3GI4v4UPSyB3jotN5rRVHH6kvXthufFu1RyROBO8nTuMJDf98B1Y6tW8Lzn0JEVl8ITQfyWblCKYdDx2W0ccqMaU01pDrkTVpN0OUomu9zmdtZrKi10jEAPlhLnlxTLvWHPtWc6o39438db1a3eZ0V0VBGs1DKx5xATrb8uuSxA24NVm86qk1HXWyZNRbTTHxto8VFB2rb1yeeMmi8ZRG53Tdc0jpSm7qkh0Xv3WDxK0hEHgsSZde43RTmS3pPrNdGCdwk+C0HeWGDrmueGNr/Y2C0AiGbCglfzqq3mk2+bYGASdzvOky+YrCGkv+3n5l3/5S6bG3ji0UdvNMXtKLrVrp2/n9X1/StMnwehYc2l87La5ehY8O9uKieqMOe6x2qi9rmcjtbdBackHcmMJLdmWsWUbvW/cboU9Mw4bp2q/NpNT/daXu0Lyi9pW+k7f+dn6X/MgMwRBSVjlJ/tLl8rZyZ19exb8ljjNq/aWIAi4iFTj7Rz+Uh9nyRmg970ybu14MFT2k65rJz26w8TY+TMiVjtdw5+TV3LShqUTWNT8mn9LCZ5t0DVwpTk0/vRQWf6TPumTbtqkmAxVBgUeALvE5ky8BKSV1T/5J//k5tM+7dOucfZ9z0z4Hb/jd9x0p0E+1VMRv+EbvuG6vbLjVTle4zVe43q+Qf/wkD5Oktc+ir/39/7e7TJSsqmP+uxOjc7PZpK/ylw2U9/N2/Jkss0ustmuoQMEwd1btSHztj5fn6tTSzkI4RISMmJzfaa3+k6/zTndyaA7B8bw4WTfuflEbTXHxTaYwF/c3WLPRGPP5mq3NpqfeJAe+LOl5OxbBa82k1/9nhUEtgX32l9Ue5Y2xKvsyvKAIN53KiuIw2JHY/QbInS6eyQQHfYHi/scxobJF063B+GujKgGMCNKI/w677uTkbhmmbSsVLYFHLDOLfcK6JuxmQCWmYDOMi6C0feya8CQcbhGsFuWLQAbe+dSLqalDSWbVTRg5JTbXopxGwoHILMFWkx4FWiM+qLQzj3LTcnIfAU0rHXn33vZuiUgBIF+6GCz+mW0tUEnABCjdWzXzjbLXSK2suWwfUf3tamED4RdUzuAAiNvTByF7M4MZsuJQM2YADhH6bgMu/d9v36Qrvr+rLqwA9kE2+x7RIw8dxlux8pG2C37CLAWDI1J2Zl9883GtoAiMwK0Km4ymDNDZ4+n3ujUdaoBp7+cMtuytaqQSg0Qz1/IRYBAaNxWvYTLHJFmmVS6i6B///d//833fd/33fzAD/zAFVAD82wHsSvIB/o9djjy9SVf8iU3X/d1X3f7Q2MBpX4DzoL1+73f+11jpOuV65JnhGFf2dmSicbc0xh7aJH9UW//9m9/8wf+wB+4nqGAUKsKNfaC/Rd+4RfePPGJT7zG/XEf93HX7ZS1ryKY/DaTbSmhJYbspbb6L3h122Z2tfa2tqnytEte/A0p5wf1f/qOvhZH6YkNrj97r/IHK2Ft7RmfscHvjS+1c/oLjFrbZLe98pdtr3P3mUBLZgTqEwNVYCRnsEMio6K3S2Nrwzu+TaThY+1Iqi2h0f36wOLPktKNV2IFzGJnF9G1xAC8OplRyYhqbLM+a0mAQcOupTTsXJlHuw0A4xOQAMUGCeftxClzQW4JwhKJXQtnyBRJWAL6BlbgfxIda5abIXS9804DK/DFdPVt7K4nL4DHqAB15y84bGAhv3MNS9A2JuSBrgT+HRNSxZhXf4xlx27c5ltb+qUrckFsttpj/ua5BMF52qMnjt01nK1X5xlzslwC6LOsovPW1gU/5y1BkGHvMfowrl6BCn+hN8AIUAC3+SNBCy7aWDAVVPI7ezBqA5Fw/C7dkwv7Nl/Zi/kCoR278blm9U0f2hfwyIVM1qb0gcz2KpgseWWbAhxMQND5wZKLJWRt7vuCL/iCm8c85jFX1g1M2UVjtg4NR2RbyaUxJeeejphPsoOeI/Bbf+tvvX1eyNrojvUuYnB+1xj8NY9ui2y8zSMC8t7v/d63z0pY2yfPxl8l4TM/8zOvMbbkUQUCnjpv/aGlhJYYsiN+Grlo46JNiovRO0Z2oX06EBtk6+S55HqDNv9DeulkE6GTIGxsYFcbKBvL2veOyTNz+Au/6hzYtrJawrHJ3j4bpDEsRq7MHBNDTixHEOgUJpzxD0EQG7RzL4Ig4UE4kL3FE+M0drIwJtgLEy65tkmxE5fxbDAAyCmtDnLe3Sm9ApfBYHgNRPnN9djKMv8TADZjw7Q8aINT1deuI8qigCaDYNgyuBTdPJaYMBYZ5gKvTMe4N2hzktqTVW0gtDt/gzGDUOoXYGo/Y1ZiX/Kw4LOBYY2e0utLhYesADJgTNdL+gTMziMXt/UsQega+hD4jXPbs1SyAcFYN1NmsMrHG5xkCGwzm2CX9aWMKTjeBYgnqeBsyBL7Oc9LhwKXMQkSCILsus82nt5lc+sTm3mvPW7btbG2aax9f2ZEiJlMgk/0ihBtpWrJwl5zkk3gUhvKrEvENtNZG+QjMEF2yB6b12JH/QgsydnGyc22TgIns2s8+YtyfGP67u/+7puv+qqvut3cJ6vlE7CsMQNkMlkijmwYR7+ZUAD/tb/2197aoGVLshKkXhBysMGxefSjSu/+7u9+ybpNh3/1r/7Vq/S/9qqaRoaSn/d6r/e6+Y7v+I4r2P3Nv/k3b97yLd/yfpsQdzwRipYY7BHoWAShCoK7uviTZZ7GJzFCqoyLvpfo1eYu98JymNpnt8AbGyIKhyWg6y+dAzvq18Ov+AtiwubElzNJvMvXV0Ywq/aWtFjGEw8QnbVbWJk82CachI+df84Lxmyi1Xd0oA22v/pofkuoyZldds0u78JvFQQEEhYvWbgSmR/90R+9noNA+F2wO+03C3IxhmegjGAZ9QbFrutcGXWfgYPsSRCjGAyKkgQH62ApEsNbo9wgpm37ApYxblA8CYKAjGUjOsakPaWdzUyWIPhhpDUqxrGBVXuMM0e05nuyeDo4Fb1MkRN4DgJjTsac/CQIHIrhdM1m6ztHwXjnSt/m1bXNa/dmbCB0XvNZgrCZICDFns3xMtzn3eKFjLAP2Tq71d6CyzooG6YDgdXY2eOOXV+Ng876bkuhm31sxc15bIIeVldATRv02Wd2AZyNYW12iRkb7lX20bm7H0EbyIh++TNAbh78lA/vZ3bWK4CSUW1wdt6CeH3sJkVknZ8a+waG9hO0Npyu/tk/+2fXcwpaUhCs2c8ZtJvXnkMntYek1GbjLGD3g0b9mNKpb8CtPf2sbd9FGOgTVn3lV37l9auKtddjj9/3fd/3fj/HflYntN/rv/pX/+q6tnH/4T/8h2/+5J/8k7dzW3vs3JYX2qiIlHW8pZUe/rTLN0gZ+VkyRB7sLbBnJR3verp+awfxSo9IvoRKArWYTxewdoMnTJGowsC1287hw/BCEoZ48/Ulop6jAduMg916qqIAfOKtOYlX/NMP0RkrXCVbZHvHuvFUnLPsjdjyl3RgvhsbtAH3EL2+3zkiCGxK8qwicd+zn/3sq4JwCjPhKedQICKx1YRToZstMI7OAQocffs8GZTrduKUydAAh4C2GdGWgJa0AOMNmBS2mS2Wt2UaTkpBHeMwZ2ZCTlgnWW6/+zwCAQ+YGDNCA4D0B1hW0RtMtUd/G0wQBGzU2GUFgqfgT+4CLpAkL/LvdXdbsyftkJv2BLHmRhbsgJNnZwirwE8Wa/iMW9vIjCB2kgVy2f6Mh43UX84nsAYuzgdeghiZLSDro753jwDH3ltmT9vWL9mZszGxbwR4CYiqCFuiZ74kw9pMvn7Y5s73LgIuuABdBAEAbsmUzLYiuPtKunYJBh9egFfZRJqAe/20lNBvIfzZP/tnb/7rf/2v17KAWwUbJxLAX5bwCF6CXwGy9fwIWLKp5B4p+Gt/7a9d7wUnvs226OAuInAvcrBEInl//Md//HVbY+PvmQv9XgOCemIzDECQk0G/8dDeird4i7e4+Rt/42/cbuDUD1v8u3/3714VhA2Mr/d6r3d9x+b4EsKfHN1ae2Ign5ZAIdvsZvuxjLltSLCUxR3bAN54kHw4KhAimBtk+SYfEbg3uWAXG+QXgxcD6RuhXoKgX+TB+Bav4ckmhohlfSI3m8gsESXLHb9rtuLG3vVTG71vLI4tSZN06df5ybvzbiuH+3PPC8iEXyfLBBucTS6cYzMTQLGsk5I2+5dl7CSUWO5FEBp8Ywxc13GAGmVudk1A5rHZzb4HeBnPBtTN/gWaXSMDeEBoA8OyTux5FSiQMQLOWZucErliVJwDQTkVvSBoHewugkAuG/gZLBkgT8gDUsbBNiAKRAiDwHgGVvPZrKgKQsCMbLKDkzghbH1vjAJIn42BvQFxut/qAuBhM5i/4HQSBOvfS5yMw1hW9wuSiKI5K08D+9rZjUabEfGxzqlNa6r1JWjSE532epLrkywBvOZ1F0FYucg+FpDpkU6aC5IhYJzr4c7Z8xAERLFr+EhysuO98e5vSnTs3/ybf3Pzt//237599PECrr5Oks2mtoIDv5aAFaSrHPyyX/bL7vdTuHyU3/n8QAiCAAKcW7748i//8guY23z4uq/7ure3OMrm2ZikQL8RhD/0h/7QtV/iEY94xPW0RD9mZ+6Sh5Yg2m/geG1GgiIo/G/Jy4mFKzvY5pwwi6+fftA5Z3BKBrsPZMnwmUFvAuA8c9skSBAVqE/cgk1LOOA3HKGblUO2ssnexg2yhbFiFzxit66hP3Jj60sQ7pqjfXzrb5apxefaFIeWIPAFmGCsvhf7EJ7OI5driaGGM5q+bHAGA+Q4k8nJWHaJQaARoJR+ZRwdd/sicObQBrjrRUBeSQTYeIJZgtJ27QFdxrHBbo3I+AhrMxgC65Xi1hABpSwN06KYM5hzog1ia4ACF7YGrJcgGC8m2njOoFi/xiSzbv72bfSeTjNYt4gxStmIoNOr7xhfMsH0OSy5mpOAuWOQmWwJkpw9n9yDkpZksAkBss/aQCQ6vzElPzrgoEtsO082gyGv/ZBffSC2dmz3nQCy42M/q88lD0AOuPAVY991/Nr140/rvJut803kuPaXLNTPMn8ZYPO0ZLiyUUFYkrEAyv7NX3YOAxBWoMxOkcjNLoEl0F1/BHgIQtfLNmtDv+y/eYUB/+gf/aMr8/UDNNlZ8ihQClSbFen7JOhsvdd29HfnQ0GzW/9242Ltk98G7ReUGJyBl3332h0Ij3rUoy6C9Vmf9VnXXge4Qyd39ZMunvSkJ10PTOq5CW/3dm93VRAQTAS0PrLnfouh5Qy2kayrOrRE4e4RRFJAR2prCwnomFv7yI+/dB7dwxCENZtdQrjxgB3xxXToevPYbPy0pQ3azkNo6JwdSvDEtcbkVmoY0zH7sBqHJwmrkMFO4xAbdgNo45b8dP7iI4IAb5bkb7LSdX22BAKja/uuDecqHORMBnDF0oF5nFgu9qWP61gVhAU5FywYnsDYwPpjiCYnMAAlpQ3g4fhm5VseygllSmtUa6QcR1uAVxl3g9NWJ7yvfQFT5rRZ2hojksH4sLMdAwYJMAFen20OaYwA+aw0cILkuXKqT7rY4Nf7uwjCMvA1Wu0gCEqw9bWAh7QxnM0W6BGBMVYEsrYQibUJILhyQw581/kRBBnMlpktZZH3Bhp64minjE6CwIbX1k8S1DVLEO4iNwAxWWz1CLAiI4Cmz+emKwBKFmSH3AraW5lDLJA0lbQlh5vprFxOEKgfICmgAxQAz/8Qb7oG5EuctcFfgKFK0GaEHUPS2JzztmTaecBws6/G0879dux3e2K3IcKA3Wm+sqWzDTgwZX2u63syYr9N0O2PgqL9ITDE6wMlB3eRhObWPoKWSeqvfQT9LDMSsmRq8QDuFPD/wl/4C5cMemBST3Xkn3t+wa4+qrrwha7p8dAf9mEfdvubNq69i1A7Zkxe2eYuydEJjEFKYAXyxp7gJnsm49UjP9EG+9nEkt+zn85d/IHT8IMclxBvIO997YdRzQlxEkgbrznyg7uwXFzasW8cQjh2jkuwlhCRsyVduoKBS9LID4FRyUYkVg71La6LjdddDH254L/BbgVuALsHgZIwXZ+X8SABSz5kcIJznxEEDn2WRCiCkBdABZYFLmMHUEDzJAibVaziO28BlNHu+O5aOuDcAG8zO8a6slgD2zI4YARmxr9LB8bOWQV+c9cGHZx7ENaBToBvHspN3iMLjQUxZFSCjkAHBADI2gE5Y+f74Jv6ZPQnGJykj+NxSuy787QhaJMtHWz2uzrtvTXgHTsSwNlOgiCI1j7C2rm7Bi/oyJDWNoGNatm5p4GPbFaB8NLjrt9uoNY2uzC+zTj44oL66lRfS76MiV0sAV7fNj5jQkSRpca3z75HeNlQ4y3I9YTDL/3SL719aFv2vLbPrxBj/gH86HmDhmDSTzKXzf/KX/krL6Csrb3uwRKDJQjG3DxbJnif93mf61kNPYSpxzu/4iu+4u0yETl2vfF0XTLpWQndBdFY24TY7zTs2AWeiFTk4T/9p/90ezyfe6d3eqer7938Sr8CjerJBnGBBUZnq2x6yTF/FF8Q0V791R99N7+thhrD2twmjIvR9CUGbAKzpPzEys53jTYWR+v7vBNgyRFCseThJAuSpcXM+iLbrSCsjZ6J385jq+ZnHDqTkGStMieO1w89rkwlP9d3LTEknAbqyWPW/QhhWU0GYQ8CwGcQMuUGYMmCUdVG5b82/CARTcIudwa2jGeDhKpDIOGJU8aBEVu/BEJICxCurzLo/igGoFDgqfgtATWG/ts5vU8bEyC30tCYLDEQeH0Bf+WhxrjZXO875imVAJ/hasPSi4xdQGseKjyevsVRuta67l2Bv7krRwNr+j4dVEBeoGgMyYDu68uDStgBO5Oh1o6nNvYeK97zzh3+zkvGe8uUbJDe2QWygBUjr7vcQgfsgG0CLBkRYPMktz7bL7K2LgAjGEhF8lqSVj/95xfZFVu6i1R1XmNPxsqOdJpdNUY/KmNPQ/OyQx3w1jZCLVAih4gEW6+f/rsNju80F+d1nTEhc4CH3Luu9tzG23n8av2++fV97VXq75iyf68tKbQLv3MQg5Ur7EDQZWCLKYAQgUgOVQtq85//839+69eC1wYs8/Z6G+EewBt4w28E0I/+6I+++eqv/upLLz0+ubI/ErUkpetc09Mcu3uj4y2LtAmRzDdD77uWIKowlAkbQ+1EGn7f7/t9V1/NC97Ays7xECX2k6w8JZZ8BCSBFslXPUMk2Fl9iQe9t8wK8xsPcicRFIcav9sIszVLbWS6SSK8hY+d4+4yY68NSwz1Za/LYlEEi23WVtcgRPbzWFbPHBCEsM3TX8UlS2Dsnb+wW3KGvfyvV/ohs3xl4yR/7tzGIw7VFkw4/ZTcYDr/uuykCkKNGgymL4gzuK0a3EUQluVS2gqSEAwuQyGg+loFYlOCJ0BZIwJQAtddmRPGv5UGWRAFLuuUSQi6mx0xCODKAWROrkFGKCZhr+H0PYX0umytc3eOwGCBQvVjs1fyA+qnU3Zc0MQ6OzfDbjyYJTaO6KgakO0SxWU8hOMAACAASURBVJ1D3yOHyGZy2SxcG0qNQC95IpgCPPIgaJOZjL/PAjDn4FzYt2wL4ZOlbCA8Mx22xDaRAufVpvZlRMlBFi7jX1KxgI5QvyDMfwN1bWjnJAiqIpzb+M4xIRzpuvGpbvX9+sTOcTFhg1Tfq4wgCILWZkqdx2YQn3TYXBD09ftzE3PnIps9NdBTAIEfoBfsNwsSs9kpssCWyNSTTgvIv/k3/+brMlm3efadoKrdB0MStKefPj/+8Y+/blEsaGYnb/u2b3tVB/q9hf1LJj0OursevuzLvuwaa7/s2GbNNlTCs5OzfM/3fM/Nu73bu93+5g55fNRHfdQ1b3NVPSKnZJ2Meq0vNixrhh2OIRmdx0/zq82ukQU+uriyiQuCkI0Ixju+tVs2oE0kepcJJb7izo6v9wK4OUoGGpNNiicWsS+4nG/3t9k63znHKwlZQr0kbTGVP0tCFjdrHw4sqUJEzEOs6fz1g8a19rzx6r7nPOc5t7c5dlEdnOuOm+U2UI65pSADNBFZKzYHSAFC5wNrBtK1BLAZHed0vg0xQGkVrY0NHIIDcgIskQRCpUDZDSEiTRQJjBGPPt/Fdq2tr4FvoJTRGjNZcZJdWzP3fT2BvjEwcgBBH8ZnkyeA5FBb4hNU6VBb7EBw3HkLaL0Cf0CIoABwJMoOXxUEwY0e2KPv6RRLFojJabOPEyB3xzT7BnKyH/OpPzoTQM+2N6s5ya9xccTTNxYw1j84qe/oxvzvGpNjyFWyTh7GRPYIrqyIDpBPpHzn27W+lzAgYkCp89cetKcfNnAGEoC8pG8rbiocZW7f9E3fdPORH/mRt78TYeNimVkBVRWJjd9FFMwLDm2m9cEf/MFXqb3K5AYgejpt6aH4DLQXJ/v1yO6caIxVgqoi/vpf/+uvuxP6rYRk+uhHP/rmcY973KUXhCrZtJeALpAEftzn7pLoPNiSjJpvdz286Zu+6e2tcLCI7fHrDSqqEx3TxyaQdMom16YWE1zLfuAz3bNdcUa72lvSh5guxq+/wDdEgo/seBCXDcZsiv+wD/YjqeJvbAa+ItmWhWEM+9eOuLukGg44pvIpGT/37Gwb9LxJj2qdGHsXRux4Lj/6kR/5kedie002oSoLr/ECFEYhc6gTQF+DSqZKkgTYdUC69/Uj2AlsAsJuNtpqRWNQZq1fwK7cApxqT/k4RdWGckvX1E7OkYOdrBgZEQxlMCsXoBww1Q9D7nWNmGF7IlbHtxzdfDPUfXaEqgvWro3NrhEbxrYZv3HLCBAGnz2chB5rt75WH7JVxpW8BH7jQc4Ym8pA1wJs2UfnrNNz7C0VJ6O+9/sVSpxsonbZWe8Rrc6jA0FLuRSQJx/l7b5TklQZ4FhdT7aqATIE4JuuOs8PYdGBjLpjQIHMjZV9ItgyhK7F2hvrlkUBhqrGmc0tgMvS+BW/kEU19uyvPz6GlPADQNu8a09Fa9ehu17A3yyILdDvAn7t9SCi2us87fW5MfFLWY8nZVbK/jN/5s9cTwtkj8m+7/0gldJpx/0Zg8/8Wt/8oJ9N/kt/6S9dtidoO1dQ3DYfLDmQrSFeXgWwf//v//21D+IJT3jCtdzBb+gfjmXzv/yX//LrFyXf5m3e5hrWJg8w1etf/It/8XqQlIpnMu9YT1fsaYrZVfPd34/JbpW364+uF+f9oFf97x022a2AWz/ky75l+J2DfHYe7HaNz27NlDyQjTlvgBakJZL6Mj5+n33DXgG7ee4PSMEfy2R8equAjlkWbcyIVvJT9atfxGsDcX3AhI5v23AZOVD92PMQts6FD5Z3xaTO8QNzkgjVvLXvzrN8evnBj/3Yjz2XkLEjAQ9BkD3VUBO35rJsycSXgfcd1gLIgMtJEAjFNYTMMTYoygI2w90dnWssCxSCWH0ARnPnYEiH7BKDBBrmgWVu1rdgnWwCIYAs0GCFwHSBa8tS2j3ZeOdbkwfiZwa7lRWgxxGNiZP3SrZLljZD3gyYfpsrlgxI9cV5AQodbiDkeIIV52Xsxicwb7+OyTyWaS9Bow9gw0Yb9wIu0BTc+8we9bXBp3YALwLM2cwLoe562dWWZ8nMscCl92wbELKz+pQRda2Asu/phF/qW4WF3QMNeu/zEjHtNEfzYj/s+CQSSKTz6BFp67rd9yOoN6ddNkFmkMpP+IRPuALb+gt9LxEReDeAr++vXfGXNvSVQRcg2S6/69X/gyUFe/36e9/X7+qrPltCqJrQMkIbGE+76Aec+tGofmo6kuAP1iJmZJIOq5D4XQpBuqWJ/aln+AgTNqDBR23zR2Vrwcl57Knv17bocQlCbSJKnWuJlFw2EWSPi4F8kWwFZ8G0tmGb+NK4JQbwofNVClY3tRdxyjbZ7cYQPiFWbL/1Daf5evMVU/km3GrOCBOCxY75IxzZxz/zPzi1JHeX/2A2XDE+PgWX4M91m+NumtiAcRIEAGrtGhg08YR3Bh3rxAaFeNQOo98sVemEYSuTYG2MQya2QQwrJGAZoEBgDUuwE1wWyBhIxxg6pQOy5rDl2dOJlM0QhAyZ4wkmSyQQrl1jQ6LI34Yseqp/8kZklsAwqJPENFaP/uREWHvjNnYAsoFTEJFV0AmdLvlibL7bz+SNMddn93K3axtZEwgZKaM9H7Pd97u2yek4PMddYnAXaZEpAzLVqfOBXMmVI65jLxiSp0qLYKwSwPnN6SQxfKnztMFfGntZOPsT1Ngo/S35RSQ6xvZ7nyyBQ4FDlaPv2tBW6T5yW/Cs2tafjKxyd+NYYpE82MQCMgIjsKhokd+SfT+Bjih3K2Mb72AFOag2SQpWzxuM2R1Snc3x6zYm9lyA3/gbf+PtI7IFrwV/7a1/PRSEQUD0CiMXdzrWEyL7jYmWWsoAu8vhtV/7tf+fuyuQutW973r8dE9bVI0QwHpuQksasE22bp8K/+dj5CLAsRn+kv7ZIj+nm61GIV7sZ4MiO60deLcYvX2KF9pB/Gsv+5aQ8EHkU9zYZJAdLgbyv847fW+rcXxssRzB6NU4EYTGh2AL6CdBsnl/dWAc4tMmDJtQkGF+ghDBSvFKbECWNwG6H+GqglAjmy0Ar5MgNClCODMOSicsxmTiwHUHuoSB0ghWX0CQEWFaZ2bnegbq82Y8wIqDLzPjmIIv8ORwjNA8NggxLoaI9PjtCcbAsZAWBGsdb9kjpTPaZYX7fgGLXBgmA1PSEmSTBRkZHwJzgiHCRgeWipZAyALW0ZAQcu4YoMh4Xe/XHM9sivHKdI3vlt3Oz9mypc3cN/gCS3LZqss6K5KhNIgQ5rACH6Lc+I1p39cewkrXS8QQIf2ursjIHNnzufEUgDYPa5Hk11giXQX6gkMZaZ/LRju3uyV6rHByByAC+GZBgIz+6BheFGT7r6zZM/0jDRG913iN17g+994dR0Dy9F/40HHkNRm0qa779hv/yrig0XkIhizzDJD8lV+Tufm9//u//7Wr31zgDqDk9w8FGbirjZMg7Ocdi6C3WMU/Bc7FWHLYTL2HSnXrpLkiaR/7sR97PfdhEwlERfYKm5Jz17GTxdvep5P2hNhHsoG28Vnzp4deJXHrm/Cr4/mcPjsHfq9d7rXkHF4gg2fVTvvmzB62HTawe/GMo2OWBi1l7nLkxpvFn67bCgJ5biYvPvBj/kZmZ2xAEDage09e5gu76VM80OYShPXz+570pCddexDKFlJyg3HLx10VhBpKcJ0nmwloAoImWxbQqzXahOced5vRgO4CJeCo/dhybTcu7VlbYYgJh4MAuWWwbodM2IAnIwWKtZ8xC2jAegGssduD0Lkx+M5TbmpMDHGBVSZlPc86Xe3lRL3Kljq38xqbdejkmzw7z6bCNfrG7qdoBW8GTvF93jVpGd7uxyhYAEJZgPVvoMPgEUJZhr0UDGyDnX6BGsfts2P1s2X8+u+YW0jJdpk7O2tsqlP7BEIkl7HLOOs3mXU9HTR32Xr9uj0QMCKKjV2wXx20/t01jaO2G9Mucy1B3epW7SkNRpJqw/j6nr8kV+vw9WsuwFHg67U2+r7163/9r//1FVwjA40NcWGTtamKojzMb5zLJpDIzdCAh/bWnuwXSh5dm47bhV8pv0BUOZzPpSO4oDLhFry+7xcNu+1PgqDipAqCNKycd5yAkJz4Z+1Vmi84Ak3H1tZfVMRAuydBQAQ2cCAKMt0z+C9xO30NjmV7Ea1v+IZvuLpm6+FLGxe3KpMcYBvbbJzhXjoSkGrDujtbqb/dr5WcbczrHMuOS4DTnSoBQrPPz1HOJxuxp1fJx+pJYmvsqnYyamRyE66TGCAmjXn3PDXW/v2gl6SmPva2d74oAcpu3bLOdpEsmNf8iged11/tJUsYmdyLG7XF7ruG78G9zkuvjVucrK/ari0xvu8kp5KeJSf2IFzjfcYznnE9SXEDwmZjwGOXCzoXQ9nrOrdBMnJlfCVDDgmEE5CAdAbmdRSsliCAk2pF4xdsXEfx5mKOAihywUj1saz2ZKe1fcrJd4KSDFZgUSpa9q2vzVKMs/Y3Q+icnLEM4F/8i39xObg5AkQkoc8293XdrmtvX5wKIDpvA/kJOHuN8XHc9CHYnKC1MlwAF/gz5o/5mI+5NlqZu77IdsfVe2x8AZ5eVs4Adlm16zln+toslGxtnmvMgJG90RU56Ke5c7RtV5DbzXTsb21b5kCfSsHknKw80KYKQNn1f/7P//kC/+/8zu+8vXOh6+jBfPhsY20cnSO4pr/ekyF5JzcyXp/frKN+uhbRXpk7Zt5VFtqR/4Zv+IZXqbzli4IPOQZqAXBAWFBrjvWPKFURUdnxzBZl4x3fVlKaA59vzq3f95sEPTcAodklxbWFF5QkrB2c75eoPJD2znO33fXNu/w6GbHzqkcf9EEfdD1Mic0nz+566IeokI9Tv7D2xDzBbbFX4OvcdNiTHSOrnatStxgja9b3VvPIiw+woS2509G9MGptfdtTBeQf2oGDyAu72JgUBhQ4u50029m/rZbwN/Mlv10KVU1DivjTxqjal0BL1Ne3en9Wgxcv6QnO9LoYqaJTO3S5ts/erk2KHWAQQG5Zm47roIZzzs3WKWRLLyaISS5oAWzt9bpZ1pZnKQ/j2dKZyS+IAANKI1TjRWDMSaYIqBnFBsTOpaTeA1YK3YAhIGKWAfqCdO+7TvZqfL0iVNte57VhqYwq59tjq3xjWUNEzICIVzKlo5MgLKgtGdBHxxmTMSR3QLFgtsEdAaAjOo0gPPKRj/x/bHCdZJ2o65TVnbOB3/jJWZaygY2emgedYtbZTiBRJts17ohh5xyXc5nHWXFb0ljbAjN72Mx15Sk7QjbTaX3md9/2bd9281Vf9VXXunRP3ivbALh8FjjQU/PhD44Zw/rDaSf0hdid41150kltWBJCksqmVE0aR+1GFtok91Zv9VY3b/3Wb33zqq/6qrcY0DyrIsoYVQFrrzX5xz72sTff8i3fct3JoAy9NsnmYA5gbBzv/d7vff24kSWKnfOS2xc0mO95/OquoP1A2jv9c+2Z3WrvLkJDL53zdV/3ddftjTBbAtQzF37v7/29t5U4+LMbBJcErK0bAz/oNTsM6/7pP/2nN3/n7/yd26UI9nUXti1BuBdGNT8EfTGATFZWvluy4zvkqGOSiNXTxhnzZj8qIY2ln8buiZtil7ix+NMxFZMlMxIF/nqOyffsFU4i341nifg+eXRJWueQLR+SVPO/JQgINR9Czi4c70FJfcGpnVyDqga9d1sUoSm37AYigRTJOAOhDSYIAgE1MBtC1iA47JaiAuvd6WziAgZwVX5ZY0CCAB6jV8Xoew4EbHftbMuU3hujwG9JIDkhG0o7naN60rEFN4G/Me3Ya68MoNuegLB1NXM1H69riPTFqdehjB2RcM5dACfon5kGo6L7Xk+CsCRjA5XMoZ3q3e+tbZmrJRDOxgnPwGxOOwZzQOaU65DhzbI2sJLp3rq7ZETQTndur9xKjYzVebXN7tntZq42jllb73y7+lXYyqQf85jHXDvOKxd2DeJt7icoktECb4Sn65dY7zJD17AdegSwvQKOBRJtdZ3bR5Wf7TRHxo01GTUugNcYIgq/5/f8nmsZosqCp0pWdk2WEQYbfju/PRU9PKmHBUUUbJxma/r0ml57hHK/lrjJw573wgb2u+x9A9gDbXd9VNtnG8+PjAikzbmNmF/0RV90keD+s52IWRVJvxrJR9jQBjuYUv9hkeUGOpQY1FcVrT/2x/7YpYtK8Ahyet6nHbKtzbw3edn582lVHnh+Eq6Vhxi22MxON6CfBEHc0seJo7XR0zZf7dVe7TYA8+/mv/NCQDc7h3ebUMDyM1FFvs6YtDHTslvthTHwAllQqdiq9hnX4IR41mfx4PL3pzzlKdddDBy2LwUuwVJJt8ZVENyPW4ObYTHOguKucde+rKxralsJFfgIshSsIkH4ja029jkNDH+JA0eQAcrWja1Xt1wJ4pwD8zJG62qN1724yywbT+3J8tYgPChJCbd5BXIyOoTBxh7G23gbe/sM2sXt2fPYqCC2zG+D+wbMdbZ1qg3a2jud7vzM4YDGtiEjfX5g6JyuI5Nsq1+ge8u3fMvbp/N1fB+hzHiV/QWWdMbOADJnwL4FAEsvtb37J+hOm0ikkiKwcJ7gvvdhc3KVL8QYEAisbNWtpth9Y7fHBkGsjaoFrcP/23/7b2/3FGzmK9NgN5sBk/UG+g02natCcJK6BdsNfvrZzAbZ1zc9sIMdI3vSN90skL/Jm7zJRRbe/M3f/LaqQNaAS+Dp+yop+Uc/WhRR2HHoOx1GOrqlsfYRIfrZ4LSE6Cfyhz0uMz0Th9rmtw+kPeeu/NfH79UW3cnq+6XHJz/5yff7hcd+yjqfs8s9/GntOjnBfPYDs8xvMae5IZgRuJZuIrJ0wJfoefXfOSd+3RX02Qqd3wvPTttaErsk8F7Xn2ThbM842vDZEyv9iY3JQQInMPNlj6oOY5qzpHb9cb9PH+7USe7hiqXFXW5wJwWiBbPSYf8esX6veIVIuJ5/24Nw+UJPUhQkGcdWDjq27ItzKWVbE9cZxQDWBZAUpY+OC8YAVSnHmiUwxJoYlCAAAGoXQcA4t7QiGHltzDI3iiGcxpRytLftCgBKXuRkjgKngIAV2oTFYJATTqJKoWrT55RfKbnyO4BBdOjEA44WgNYBGPUZtE+AXqC+C3g28JzBY6/dDPMuR9ygIfNI1j3EpUfLshk6BOBAe3VK1lg+IFbWBihsBjlFVNkW0OWsdMnZ+h553GUHdsx3kL7aRVCRxiUtm73qm3+Z3/d93/ddvyj4vd/7vbebGIEGGW/FgP7Z8ILjBvPN9jtHNWvtx3vkYUHs+QW4JY8bcDdgk23y8CC12u/7xtK/zVrZxTu+4zteDwLiP2TeOYGYINb1EanIdHsy0oGMs/7LtLpj4U//6T99Gyh3zmdweH4k914ySF7ku7KgixeGHNx1zUkYlkgsucnOPv/zP/+m6pyA1biS4Yd+6Ide1Rq2gYB1Hh3xa9npJhHsWsaafj73cz/35lM+5VMuvcL2xqO9M8DfC5s2MMOQe835Xli1hJz/34VHdxHh7WvtmKxaQqmC0LFNQjZLb1wbm7ZC4/vFfvHE3WGNQdX8jHnwo+t3D4LEVLyCr/SnggpTLflsPFe51m59XD/WVGNKpg3AM6sNXGCvsRzTuqfMae9Pb3IN1mYjDtLAus6Ob+epDuzErVvJ+hqfIJqzu3tCGUbgtVTQ+Z0X66ofgu9798cKrkgKcOXktdmx/eEhDz2qvca9ZWYBhzEkm+ZbPx3bcvQuP2zQUwJOFrH+P/Wn/tRNwULAVMrmbIIEGZvDAtwa+TrEkr4lAILWXY66YO+8zT5PJzydbQOU7KJ2Knf2uNdkVnbdPPtPh/Vp7V4FIfkI3Nhu4+hcDNu4jCkQrKLTOcqdzpUFdMxSGzIgUDbOjmU/nZ9t7V0HnUf3gDgb2czycrjn7Y7mY3tuGw0rB3/N13zN/X4enB/W1la8ZKvsYPW4ALxBHkABsTM4Lug6tgHv1LcAf45hA5dzgB08afzeL1HovNpL3q33vvu7v/t150Gf+6evXdqpv7K7ftBJgDD+ZP1pn/Zp1xIDzFq/2MD6QAP5+hSy6jskhN4fSKB7Qcax7a3vN//uYolcVfY3rsbTf3IqyNGZCjDbzFfoJXtzV9vijLt+8r9+Qro9Um0i7Trkejes8+HFjbVF359zOsnavfR2BnvyO/u4C8NOH2DjxuSa5NiPYyU7NpMtJj8xdO/u6LrkFGkKG1ZHCBgsR37pAMnt++To7onmI84toeg61fWu6ZhnldjkK/HVRro95yjGu2Pivqc+9anXHgQBvY4adK9uS+w9ZQd6gqxdoY7tprjdqGRNVQZOUILzmTEuyAOLffQwgEcQFoSxOtn2AvwSDkawSwr6AuxrjAytedkcYtwUmGKAYOOQ6ahYYNTN/65gh+l3LIerbLqZ0Bm8XxAQeTidcwYKsqrc2W1wSFlyV+1ZgoBgAK9enWeeqk31ddd57LvzOZggrd8N9rUBQLtmbT09pXMAqm9ER0DjL4Fp12D7Ha/PgPWzPuuzLqD9oR/6odufPe9c819g4z8PJ90+kLEsYXEdf0T+BNX8KLn1XIX3e7/3ux5sZInG45KzgXyyWxfblxCWIff5YHt42py4gZp9PJBx3+tcGd8GluZhqRaePpQEYduCTfypz1/yJV9yLamwSQnK7/pdv+vmIz7iI25L3clJOVrm3zzC2Oy294JYBNs+EJlq/lBFop+RTtaWLR4KuT4c2ljSnXwiVzYpwmu2JB50ntscxRckTSIsQRIn+157iJvNvbVvPw/ivMmCtvpOFR7WSordBdL3bELcRPyWTHXetTTxrGc967rNUUZ2smlgxEg2mG82o9x31/F1eqza4Jo4B5OFE5CS+5a5lsV23bn2j0kKJp1PKeYi23RsN8BgVzlNf0oyHJKcGIXv9YEZCk5KOYgLkFpglCF2rKpD9yeXVSvr3Us3DwcHeiBjuIsgJJeehf/bf/tvv3NNEjklCyCshMbB2IJS35kVrP4EaJUd2Y1gnC63LLjOy77Ysc+rq8YGrJEepKFgx/l67Xawj//4j7/dY4BEApYFZxngmVU9EB08HM5dvDG/5IXU88c+WwrsmtbJW3Z4j/d4j4uUSUgKZGXMf+JP/InbnzMWELudsqxvE5zTBx+MTPgm/Mt/K7W/wRu8wfWzzbuW/FD2e9eYrTVHnPp1ym/+5m++3QdW3xGn7jB4rdd6retylZjGfq/KimpM87T/jM91XT+//Rmf8RlXe2XK7pZQZRV0tPNgZP2SuPaMfy0xtAdh4wvbYgOwvvHCPLGmV7LeQC3mwTVJC5K5+LLV6rOaDJeeX8xbkiGBRjIkXcZz3ebYJHaNqcF1IudUNrIc4FYYJc4tHW5wt1ZOIEAXqCIYBCsYnxUE48OaLDdQEsA1PixJe+eYEIS9rjk3j81A7zJIBGizgq4xJmtHXXtWGiivY7sZiJwbz7d/+7dftyWVSSa33W9xkreXhMM8mD7vIgjpqPX2NqZxRuCVXGX86RDY9N06lFIZHWLidCWwYvECrMC/FQTOvTZ4Vpn4hzGtnSmbAw0EJ10ij53f/ekFrp5tEZgivl2nPX6B/PAbwPNgdPGSvBZB2PnQBZ2p5jROwYU9tFTwx//4H7+epyBj/cRP/MRrh3l/9gYFrp3XzybzHbpHGF8YOayd0mntftd3fdf1bIF+WKq/fkuhB0Xdgu3zlphemD7vusY4yBN29VyMfuAqWxIMet/POudrZ6bIL/lPfSFfiEE+QGad1+cqXj2qmT8KSg/V/B5O7ZijTYpktjpYf1WFhh0CMdlLdMTdTUIW93ovaRVPtb0xRPtLJOAULDOHzl3M2jhqXDDm+jXHTtjgvYMF0AbjXMsGlCi4LgMyCOC3AM/IOrbkpMnYNINxpwQgfxdYa6t2Nju0XszwCRrrF4C1jYDUDuHmWEDfHE+lklHt2phYWzZ9EPaCn00jSFbj7rG1PQK2n7ctCzAO/S+4PZyc5wUdy0kQAH+l4Td7sze7mhEgO4Z4AieZJdCja3bCmZahA3Bk9BzrWSFasEPo2MkyftnaMu/OK9h3njte2I/Ni+m13fYf/dEffT3caMcF6AVFa42IrLE3rjNzeEF18HA4bwMNgAVMfJNOjVeg6nM+Fka08fBd3/VdrydHfuAHfuBFyNMBsv4qr/IqN5/6qZ96PfIZhljWeTByMEakw/rye77ne14bSyvFv/7rv/61STD9WoqFKQ+m7712ZcWXksG7vdu7XQ+ZskcqG0wGLbV0O7E70LLVrRyQOeILz5LnbcB4XvJYP+2R6rkUWyGWnNmIrZq2WfVDNf8XRzvrk+n58z7v825e/dVf/XYZ3twlKYK3pBaGke15nsCumrnJq/fwjmz5CuzwmozpVEzkN8Z5VmJhjRjGvyTAVwVhDXeDssF38lYTVBCALwKwRsAwkA3EAsif2TuBMsqu18Yawra3WcBWI5bVcWLkxJw2qCxB2AC/gZ0DCtJ3ZaWds+vV96ogCCrIUQ7c36Me9aibT/qkT7qIwe7nkPm+OBziRdnHSRA4T1lN2Y1MqzHQPdsEhpxmHW0rA+zAdelTQEUoaotu2e4uTSAnbHCD+GZfG7zqbzca2axk3wugafmokmzrtX2HQJzjYcNIyfa142ePL0q9vSjaJg9zAVCI1xIGPkzPkQNPXez22NbLkyv7sjxY5SDigAQu6VjseKDzYx/aq3JQ1a9g2bEeLV1mXSl/8ZStPdD+7nX+4pzgUYb7yZ/8ybdLxpKmCEvf+20MRJjcZf9kDH/6LNgjWX1XxeaLv/iL77d0k9zXXx+qeb6k29nYUVXIEoNKJbnA9SUHElr4tRUE+J88F7cWB11nqZovCORbmWRfbFtfdLo+JflhNxJVfnn72qOWDbRBJZWr/gAAIABJREFUbpak9ICNAEzPNzgzNYSBUdm05wExG8Q7hl03yIDSMwKApcxNwJDh722CDNzud4BJSIBbQO+zOW5FAFAZE2NHesiisSAZnG8Vre3683CpznP/PMFb/wvceuhL2WSbfYyjNgXQl7SDPJT9A6bNvNtM1S51dpDetxKldEcHPveabGVwew0GjBScx2RJyAMiwXHcBeM8OsbQt5wom7cJ1zHBjlO3/hsJ7Pj57Iu7AtZmLw+lDh6uba3PbvBLBzKz9WdrsQDahtGwoAcstV5cVY5+Thk/UHK1xIxdVb3oYUSPf/zjL3/tOQvdtttGtgVsY3xhZH+Om2yyI8S27yIoPaK6MfU5GXjaZAH9jd7ojW43z201c6uym42GWexeIOm6r/3ar71uv4ZpAtrOUUL1wsz34XQNHxRc+4XRKghL9ugAxiQHVaOVLZzafXPFPLFGm2xrcc/mQ4SzY34MULxc8rBtnPF0CYx4KJY1h8XU+5785Cc/dzPWjHwf2sIpBKs1SkHXY1Q3MzZxzLR2PPmJIDMi5CHgrSwraNd2x1QrTHg3jxFWAveDRzbQuE0t4ShbIzC1ZXzKN4wcuZHVb3tKcxSanDzBba9HWhqD0jLytXdgNJ766VhrhoFMcqrPNjsp7a3iH07O88KMZQmCoOwuBqSqeW9A3z0sNu0ks2Rud++SXDKsPZulLOlstSi7d4vS2ndjlKEuibRJq1clQc7eNe6KqI+AuR9Y6ftuVe0Z7t2VUsDqFtY2jJ2l2RdGnj/ZrtkM7Fzmkb1mV+09qOTf37me3neW/+4iCUvST9/bYFgZ/73e672uDZLpsspBy2Uv93Ivd/tLpSqmD5WekIVeVaySQ597UFH7MLItS5R9X3Wu30eA7WFlNmqXvDFaIssvEDIYXR/Zd3ujPviDP/iy4X1Qz0M1v4dbO/CqcSWLlo08BwGWIFXJT9wQ3JNRG2r7U9laguA2eiRYfN2ALfFQCZCo+1EnAb3j2lNpN35Yuck9/xED7Zsyj4vk9STFOixwZVSMSECrc4G/zoAqQF5nq+FIAOMT/Nxi4WEvhMD46lNpfg1/M29C5RQUJgPkEM5zG2Htyfo61vf160l9gglQsMRAmdYz90E77gG2xtdYtprSuDG8nFCZmZLMFzHr3u0eo9s4935hmc/DzWkezHjOCkJzrILQbY4ds5S1z+XYX4lLb/3R6eqAU6VLFQTtCegCxpbxsGgO3/ULftkC0uKnhv3aJPvrGpvjNvvNidtv0N0Kfa8ioWSoYiEQncHpwcj6Zela2alMjoybI+KPYAbI/fhXT2MsaPc7D2t3ZCzBeH5y2uydzWQPkfnuvuk5A33uOR4f/uEffvOar/mat8++kCg80ErFOR5j2KzcWMyrX/H8qI/6qAt/VT2TR4Q0/+qxyghU18L5zl9CLalpDLBYZbfruruqJ1eeYzkrty8rtqeCQM4tMagOsR8VBLGx71W5i4Ge6Cux5Pt9ljCKO4uBSJoqhMo1nPLLm7tHarGyMWQLkliYVR975xaCIwnvWOPORq49CIBVMNyNFoyqizmjjNy6hc81qOyH1axDIxoYSufb7LjLDQa6bTC4vSVw1yuV8/XHYLfiQQldR0CYFoM/lzps6hAk9lrHyKVXmWjtETwjMy9MPYV9/dd//U0/nILNMy4E5WXF0czjrgpCO78D9M2OANSCHQdZpwX2SIFsyma0XWJwbO+CoTu6QjxVA3YcKj5958FLKhjILDLcGNtn8L7v+77XHQtbkUIkZA3/nxTc28qBcH7FR3ejlSrMborbWxrTWb9c2EODKg3vHiEPeLurd2TuJAh97rkVPVehtnoc+lu8xVtc6/uWxu4K8AjgA/XnJTOnncDC//Jf/svNh3zIh1w/3gWTBaE2cbYPQ/+SpL1lkYxVwVTbPLdDubwffmoJIz3sI875CF96WbNnVavm1xJDPzTmu2QWdux+pbtiXjZ7VqUlK6qUuyxq30yyFHMkF7VfvxGEYsgZ84xJFQPe0Wv9IhWdA/tU+7cScj0oqZM2aNs9LVu3Xr4VhK7hlNbdO54QnLfVgM637gpMlfoxWqAOQLdfpX5EokkqUdefp0URhjEJ2th83+tXlUTbxp/xK2Gfm3Vqz7LHZqz6ZSwdK0Ako/2xJu0lp8p0OVw/xVpmKtjclV0+UGB5uJ5/F0HoOQDtrk7fEb1kpOqSDVnKkfXQofUygZ+xd43lmYsFP2/nNdLmISZbFUJyO7drlKA535Jj/tF3lsbq04N7+r5SbJsve4CMrEwGQQZILF1tMHq46u8lMS5yoQskfEmnIAVMt1zad5GDfsWx521kN26P1NZd1bqtUiAM3/qt33ptQMy3032bJD/swz7s5pVe6ZXut09C0F15PVD9LmEWkHrdKqrfa2nDoDEKLm1I7NcHG1u/lVBlpXkiW1ua9mRPc7bmLQPu9uvusHItsraVA1Wel4SNvCj7pIfsqE2gEQSYsnFI5q0i0+v5kDXHVIDoytK5GKRyf1ay1/bFU/EC7oldSzgaZzpNn8Ygwd4KBdISZl3z7jbHOmhyddiXG/itRzXQXatoIsrq+0xoG1cMRlWhjncTV4MS7AE3Br7MSHuyhg38C+p777MSPhDQ7+59wIBPhQkaWJ3yWoq2lrS3U+1GnuYoY13Sso+4tIZe+z1kJAcW+Ox8f35Zw4vSEV4cbd9FEFq3LQuToXfOkgI/rmTZqHGeZBMBZKcIAidAzPpsj03nshH2ozqxlapdYuA42YISX/rbv9pow2kPqtmKE/AFzLK9BdkXhw5e2vuQGQnC/MVyTfpCytmFStQ7vdM73XzAB3zA7SPfEYOTrC1pQz768aweQPSDP/iDV4DoqY6RgzYD2ku17bCle7X9E+lBYIKPKrACUXbUnoOqFx5QJIFp/0ubJyPe7Fywz277czs5zG+c9okhAvXVfpr2N/QIcDJvTOy3tsz1gZKgn0gGD6fjSxCQoeYtKVQZ7jsVav4vNmxw7rt02J9fAaa/jbt9hwQI5n1nSXqx7XyCI0zt1RIDEgAbEU4VWonqdfzZz3729aCks2RyGgIn6dxdSlCi77gSBWFYiwegHFt5gzEJ3AgHIFWC3bYbF8BegrAMzDgEa5ml0oz5YtObsVtiUJ0gF+ucjUUmozRDJs2XwRinkvNmsp1fua41S9fW7s6Xwz2cHOShGMtJENJBmxTf+q3f+vaZ8eYO8NkDQOKcK3d2mP46z7Wcl/EvqN2VkaoKrWMjC3TIBjgrwgjIIzzddqcyd96bDFAfCnn+/zbuL4EzUPH5dOBJfz2J8X3e530uwr8biRe/asfnzunOgDLogmv6fru3e7urktAaP6x8KHTB1tkv7FsS2fsqGFWn+nnlMCa7tT+mzy0ttIEyomQTuTmdvlGfqrWWExCqru2uhaph1trFgheW+DwUcnpxtrFkoE2K3ebY3OGHasAmwzJ98QCpY58be+CKJYTdz6YKIIh7bUxwSXxDIPt8V8xjz3dVEOCeccHQa4lhA3kX24OgQZ1hHnZCYj8Gusa85XfnAevaa6IEj+UkmJNcCNQMdisIDFZ7yjUURlCIBILScSU0VREK7VxZ/h6zf8H4rDntksouldSXsp4lFXJ4whOecLu0wADIgrHIil6cjvDi6OsugtAmqkq1u8dgy2a7vLSVATpgS5bJTiJYn0tKdznorr0K6UB1q/db0mUn1nJlX5YPqgj1764at0taf1yS85MFYF8cdrV9rO+QMaAWALvLoSUHoAoQlc5hSO32ZMICZJl0+m+Zosc69/sQkhxY82Dmutk3orCJgjH1Xb9a2fJk1Yy+j8R090J21obEbkNsWUWSBEfPu7f6nq1vtlkf4XxYVTWMPassPJh5vrRdC5uTs99iYFcbu8TJjm0Mhft0sAnGnif+SXbFq8533mLRGXc7T0Vsq/XpDE6pgKpwLLlg+7sMdd/Tnva060mKW8Lvoj5jnkonXdh7dypYRgDInBCzwkobTN/ZTWlwm50TSpPc8m4Tk81Zf6tdZVpZOxLA4WX3m1GYo34Fe8sInbsEIcFabrmrcqCdLfvsTnbKklmSU+W6MsythtS+dW9B6GWRJJwEoc9VEB75yEfePgeBfv1YjA2cyU+ARV4ZNSdSQZClC9zKcJy37+nXOdpHCpSNt1Jlv0Nl5fS1P2jzuMc97soq85G7lotkXsb2sqjflzT4n1kdn0tvHrBkd3eVnu5ysMtcVmgOXfPd3/3d1ya/yH6f3+Ed3uH62Wi3qcrGVRHuIicvrEyWJGwCE45GUKpqWGpTLm5cPYirhzS1P6FbLv0qamOsouBHlWSstZE9L1movfqJhLT/QPVBtcHYXti5vbRctwQtHXiSIluB4ZLsjVe9RwokzEssxI0Tb8h241XXiW0qDFtBkCQhEuQLbzcZqT9LEWK2BFwRwF6Fq4IQeDqxwbkTAfs0MBcDRcF5dwMD25zQ/gFCJpCcyu2GBLuMZycu4GJTyjiEv4yptnzeErG1mo6buArCko/atLZG8Ri3dU3BvuNusaM8xoEJlnHkeI3JPLoXvox59y40hv5kwAzjZTHDXIKgopQ8Ws8l83S9dxogBfYgnDpIp/S2RHPB2nqrQHGSTZva2BmiuCXfxrH2bemg78roKkGzL6QbCC9ZvCuYvLQA5kvTONd/FgibQ3p54zd+45uP+7iPu4K9Sh7CmZ085jGPuSoHfia8ZYX2L7zyK7/y/e64eSj8lK0uKdhMs/fZWUG/MVf2F3RUwZpH43v7t3/7+/34HruVycIpe6Ma/5a1Ox6R6CeyP/uzP/tSObnwDwHyJxPJTQbdxeDXHCXSlqkkmFuRl4QkJ9ggEZHESooR1XCl2LIxWaK6y9ob17ZK0DmNKf0aU32KyVtBl7TApNrxS55XIvPMZz7z2oOwpTbEQKZT48q/WwYWyLAPAZjhLrtWPhOQe7VcYBKICbaK/XMU4L/rMYxeAFaO3mUH7W0A3raUrS0RYGHKL4iQrFX/u74tc9FXMvF0RwGuB+bE/Ls3vrY4njkgSSoTL4vOtwSBDiII7UGQqS+DtoyEANylA7Knr/S81Z3ky+lW5tkMe2FjbPdk55aJ7CnhWH3fg3Iq6T72sY+9349wNVa2tOXhl6Yg+9I2VskIeW9VCGlTBQoIq/j0E8hsDya1R6ifXO9hSP312Ob2LXRnwC4r7LLAg5XVkgTzWKLa++zsK77iK26XBRCHzv+Df/APXv8v//Ivf2vvMEoAQbz5wS7Zwv3G0eOj++2GMKzP5/Ldg53rS8v1dALX+4G1fdSy45aGF4tUfSTGEsHOEZ/oYwnsWYEXm5cQ1i+CcFdcM14x2RKr5YPTDsT4xdAr/j/pSU+6Kgh2ODaJNu/kTH5LoEZVDWKpBbiOd14DrWTVBqAad57NMTK2zsvY9qlStYH9CrpNzI7O7VcGmJP4vfddj9lbI5tYbTSm+i0DqF/LJn3X5wRcG7WtegBYBIQAoTn1DxzciufhUl1rZ7zb3pqHMnNzTGaBURuLZKEqDwAL4WIgLy1O9EDGeVYQmmvPQehBSQJ539mFzs7Se/JMp/3ZkJXu0kd/60iAu9ccNZvpvGRdG7Vnf4CKloygcxaYd9+BakW7xNNp8/mCL/iC60eB2CMSbTxLdF8WSd8D0f+L49zN6JFNyU46Ygvpp6fiBfrp3O3N7Tno4VaRg/YZdIdN6/DpnI434UHwze2FIQ1n5WArV9lftt9SXA8pyubZVI9pr6Lxeq/3ejef8AmfcOsHvXGLXfO0h6BrWy4Jk8L9cFP22Of8Kr9oaaFfpZR5Wpb4yWi/MCsb8aCk5AAv3N6cnC2juxOgz+IVgsBeJBBnvPJMn5KR3ocntZGutuK9G2w7J2wqRvV91/W+v2ynsWXf2lMZl+ggz9k3bLtIz9Of/vTrx5qwENWELZcokXeOfQXWMXo10QRmDViQ2zIKNoul7HJBx841X07d4Pd5BI1hKwSNWTZqc1uf3a8um0wxG5xrX0aKUW9pGHM2R0sHW1JS7t7bF5MdMtL3jbW1q56YaE3qJ6OjsS0B12sVhH7uWTaUfncTIGfr+uTa627QQe6SszaVQAVruq8PzqEMp5rTMfazJTqEVVv1h7AKJjnhw/1PIDiDJlK8479X2XwzKuDCTx8O8+frWzJtXGxDJoUQBOBl5S0f9NcSYHuEPI64PQdui9TmQzXfJbHa3CVVZf2ISj/i9uhHP/q24iXbz1ce8YhHXE9RLEnpsx3zsBdWdmyXWVW3YGDnZeuf+ZmfeZHerlfJ0CZZru4fDnp/UY9BRo4gSG7rl5zEPDinIr3xqvNhmOWHXpd4LvmwFI0Qimu1bc8abDOm2hPHtjJBZzu+rbSxt93QfS0xbFmcATBepRODdi5n2WtlXTrVoWsp8SQIhLybL1QWGK+gbJKM3jXIhyx8mRbQ2OC/zGnXh5GWrSQQuHFbCkEqFnixzcblF/timJUo+wyoBDulvxe1gT8c2j8JQjJO9lUQuouB7DgQuQK6LYE6tvJ0vRIe2yRrjkxvSKfyGmLXeVtZQjr4BNAMuNt30E5yLP3hIOd7jYE/nsfvIgMnERDAyHiBhfy23buuf3HIBrE0TmRwyWVjL7tqPT8b6EeMepbAN37jN16PT440ZAPv/M7vfP2ksczQuvAShQc7p00UJGWNyfMI2iTZY9h7lHJLWd1W2bj9hHXVsMbe46Qbp+Xe7FdVM/342/7My3NGOtZemp7KWP/9l7nWb/1om+7vRSIfrEwebtcv6WwPQo/T3sTXMqi9HvxBXCEnlWIxS0CX/Z8J7RlPa6e+3IkjSVKplEhvvBLz6F2SY6lBHKTbraJedt5dDL1RQVhmZI12Gagd2q6pY8KSNXc+ISwz8v4FIQi1ZRKNaR/eYM/AucSgwrEZv+wS+CfU3q+x914wsSYny1qWjbQEIDs+Bl0bynq9z8H63NJCD83hiEgYUvNwc4gX1XieXwXBJkUkIB0nu66xobRx0dUuKSFZW0HAuB2zflcb9ijU/j5R7yQIKlqIAdvnI90T/Tmf8zmX0yLSLyrZPRTtApK1fwT8J6poIUVIBvDjJy8pQnCXXADyVkYaX7f/Ne6CbhuI/y979/7r2XfXdXz6J5gUlWCsFooI0oIUCmiUe2stSixgJUptpQgN0SiCRCBVE38SUw1eqKRtak2MIiKKVa4G0UYKrQoiijeKUKwBAW9UgsE8d3icvLo98505M58zM609ycnntvfaa73X+/J6X9ZaQr8Z10/7tE87ji/u++RU5CA+ZHiBpEvMxXVgynf0aSe8fs3XfM2xZwovVOSjNMFznvOcYy8Vx0oDvupq0nVWaIlckgPeLqPTPQGBaqQCvGQVr+xGTOTh0nR4kttjRxz3TBf1/QIE+kYkkj3p+k0ln+dqU+xnHbg6i+Pbc7dIsfv7ztxzvprnc1TK3BoTB9684pFD1h3WhGEgDoPBIAYkjSCkvqF+RrZXISkPpUh4dxGuZ2yk4BwNkM6guCEjCn7BhwI/EQQEMjEMBiZEBOkR49sIAq+jtqQwjBEI6vue7ZAMk9RrExP6L7UQ8he2hNog+1VkT7KQPGzfrgMI0bPlZgGEnSvGvu82JEf5M0hr+PEiFGyuCDP+Ydw2tCr1JFwngtC9Dm7qmfisuWwdffvyAy33MrIPS7+HvZ9xX7qQRzzpGbxkHgdlsl6OawB+c7Oe5aOmib7w4tQSffRHf/Sx6+EP//APH0b1HOVsDovwVeD3u37X77rTZkrVKa1Oo8uM+2HmAz21QT/ZRbbzFTo2uiOc6UkeY30PFDSOD/zAD7xKpdKxjJO2V7+Yb84JPdW11Th8x3d8x1WajuHYyN3DjPk98V7AuL6nL9oHoSJFtgFA4DCqM3Afned+dsnvbBlQ2PdWVLFlbErXbGRc4fWmzjm+m2pdmwdIcHzXLp9t48HvHdbUmwz+brXcxZZxEbKYq+ucnLiKG8qWM9llhFtbIEy3eZeIsiGbza81oP7kfIVR6jPBobjXqzcxqwybjMbU326GRMHX9kYQgIfaWmOisMcYEbmQXkVDgYFoWSXwq171qmOzkUJ0xkVgRUg2BPieKET32+frAEJjTzEFECjN6CIPZj4WUC4qliaoD7yhfgcCKELhv+ULxt5vtbE1LLvUiNHrec1tOeGK2+zxwUO7X1o8juvOfGZM0Xb/8DtgxSDKX6MvGaS0ziDjcYxRH9a5yIj+2T/7Z+88/elPP7zkViNkiG0a0/iSyUB+q2m+5Eu+5KoAe6OjlwYIwFPPFpWqT6U6Agf6B/QwSvFtB1CVmiMzG+lsPPFxRbQK1QBgjts5LP2t3/qthxwqhDPnHCbpOX1eEPi45vlRPRdQ6hVAuM4BXR0jtRX92L8N/eO5cx3I6jDL6BunVQfNgxQDgOC5nHn8JOrUdb1fXdlndstYzO1G7o8UA+VKUeiMsCkGpbhV52OiDZVj2O3MEqH3/dWpRU37nrLVUc+hkNQAiHb0+znkvEhtc8iLsk0YoLOGG7F4IqsEey/tAZGtcuy3QpXt215O7wwIula7l2RyjLyeoverOB9XOPxuACFF10ZJQEDzsREE/IlH8OMadG1D3xslWK9phQgfAiP7W+0E+KKfqBm5eOtb33rUHlgNcRawS87p/bSFVisnaNbrehP4WIRQ5BB4WMOw3pPojDRefH/2htBq6UGO1rj67n7GdpNrKFeKNYNfvrh9A97//d//6G/zWiShTa2EgxnB9NqznvWsOx/8wR98bKCUEa4N/EiGtkbm3D/jvFu/z2NHs/pQ34o4ZoSk11zf79an9/wP//APP4orAwD4ex2Zni/0vcacw8Rw9cxOgUxXFa2gm/R/+7v8cJN5cS2jiOfQCv/2ORnjhT/IM27znuaqtGI7VIpSsmONTTSTHtmIt7kx3wsQ2LVNdYsouW9tsqi7TbJWHzL8ZLBXNu9skzfaYW71/eq3UgxrsGpswx46I3e/RUBqAdQqmPBFutveeuQ6DjBsboWnrS7irOz0D7HVPmwNAoMhZEOoF8BQEIDIMiyjjpk9CwP2WTGRndkYp+5JeP/e3/t7x+XymKIhlPGlFSVGER2x5LL52Zzx0vM2Beo65blRE4ar9eaf8AmfcCgGvMTDYbAoPMqaRxNteVobWl1hW4E9gyh8slEryjovoHbsKEroqinpVL+KFO1I5nmPkp6UvfGZZ3To+w1JkkvRuwxO95SLz+CU0+7kv3bfs5w0T/tHfuRH7rSHx9ve9rYD8AJyGU+Kpe/aFEyxJhCN7x4VXcgWj7yTQp/73Odepamiwatf/epjw5voVDS0tEInq+KlUguNrTbaRbF9Ehrf1qsA+Of0EmO8QOEM2IEtutEujUUuvvd7v/cKCLTcrIJES7JX3z772c8+PP6uMa9y0nRe39ssB1jo2ZZp0+VFKyqCxMuA0MMCgqcCSQtaRGfxM5l8VDzzVM/ZfsbTCxAY43WsHUOgFkAENB5Yh7tn4lG/icKzI/q1URxOsXmko0SI9En6/TqAQF9wbskoG8eOHLq3ZY4bMnQRQ5pCxnBdt2F6hprhx1AYn5IgtJvH13F1B1twuGFhSMbAN62wA0oxLUBY72aXxPGotphjQUC/9ywA4brnEn45Ioaue+vfW97ylmMddcqHYfMMxvm2hI/yMVeiMevdbV8epRASfPSiGAIIhXb7HY8ACOYDP56FkvffdWsY8ZxnLQjc+QWOCa/nZjgzoM3TbqhU2ihFHr/ZE2E9h0dJT30HltACeKW4GDOeWjvBfdAHfdCdj/qojzo85bxrxg9oXfDh/tqNFu3l8c//+T8/vPC2+7Vue4HoeotowpNZpXsb9AICO7mx/QuEZI2tcHpGkX5q/laX4UPr0KNRq5A+9mM/9gAOnKazR3y/48KT8Xq0CxT8hb/wF45j34EJegrtza3Pz3zmM4/anQosl77khQFyvWfSWfF5z25fhde85jVX+9doa/txyTmiA+j/dQAWSF3aeXqYMeCn2rCT4kbN9Xt1EbrfzV6xFdfZUM4KflqQvxGIp4ogWAEB7AGRa08BBNEK+ljfDzv3sz/7s0cE4ex9rbLuhrtFELpu0wO8cuEMHet1Q529h4wIg2jCVoUKhSJkv8npmJj6x8tbZQbd1/cNW1Og69HrH1SHsAwSgjdp+sfYdw8l3ft2M6sWIfRvEyYGyj0Pw7DX3YuW5i36V3SVVycH1X3W9z8OAbwOIETPUgxFEJa2Cm/qsxQVYeMZA7Y7j3hsmX4jCOYXn/YbxNwrI7r7IGx0oVBsx94CwYAkg3rpeX2q9jyTB0AOgVKRJOA7OpZ/L3QeXxSe1gZA7d7kDS14z/ger5dGK5LSkcOt0qG8pPvO9SFk6jZppM9FBQrXFxEhnzzw+p1x/bZv+7YrR8AGQjyydVLSLUVV2pq5cxiqZUAfChe/GdvdvGL82X3VQ3RuQpHGnms5ISAWGKld9MRrXdu4qquoX82r6EfXk5d1kuhK+iGeKaXQeCq01d8FBpd2Ysj/LlmnV6X0nBvBFtwmr9xv2wBCrwGEZzzjGf/P/jlsKDsJiJkD9gWAAy5Xt3HG6ZsFd5tWJ++7kSE7KVLOKaYre+7yCDnBUxyq1YEHQHBYU0ynSHGXEW6ne1ifhVFUNKc4hNH9tntHy59QVBRyg2LsoSSAg/I38Ly5Bl0bcsOEuGt5MQaOGUU/eAmKFHd99BoTISEeq4k+Ax1pjV6bsF5j/DYsafOc+uNAn2Ww+2XKm16341aIVJ8U4h2T/bSnHYbtcf1dBxCiXRGE9kGgvBqLfGvfWeIK2DUORywv8AI0MXmv53qW2mA4rwMBCxDqwyL9FOrLX/7yq6WsgNd66o+atsB7z12ezoBRIH0ffavOb6lff6rl8aYxAAz4nuLAP/FTIe+uB8rjtze84Q0HUAgYd23GrSI5+mOB8aV5cNsznrYJ7shjOgrSe4oaAAAgAElEQVT4FLHsurbGfvOb33znB3/wB4/VDV0TeBBhilcaZ+NVd9WOhaUtCu1Txguu0GkdlU2j9r6UQgcgFTVot0K6LZop8t4om2gn3qyfrWJo58T6sWNKJ0oV0LeNx86j5Cre6P6iKeRqnTjzdem5oufXcG0UofFHb6D/UcvT+XmrM5uTUgxF4Dgua/gXENPBxks3sS8+b20BhxZAUEtDB/a9aH332yuDnuMIdf06tKLrtafAfiOqG5WoXfb5AIvVIDByJmVD5w1gO3BOMejMGVEjkAeu8iaAogEQfm1QyPIx+rQgQ8hww8dPFUHY/Rwg/o1wmJiNalAO+mR/AxMjR9ln641bR11+Uz6I4hDBWOajSC4lAI3BcwGD5q2CmvLHUCdP4dKCfz/jeCqAYCdFwhHdo1t/FCQguopMSgDIcz++29SBqMGG9fBZPAKUdp05Nb8JX4bhG7/xG48+AdTdv0b0fuhw6WtWiQGutmatf3/wD/7BY51/vwHXgJOVOHiVxypdJwy/AD3ZWQXPcJV+aRe+ahXWI22+Ls3vZ1nyuXEUds+7Lo2yHjHF59XcNcZ3vOMdB1AoF1+ESH0CXZW820Y3DzJQW0Hj8uQZBG10Bmj9/u///mO73pYTrldPP/IoPXejZvRIvwX04sfeNzcclLNjBTwwAj0nXs8Tbq426qQ/+o2vL8WvdE7t4gm6qpqX+hrA5C1f6rkP2w7ejT72QQBEzVs0q//0CIDoOhGD2gAsgQW2Bpgmm6L6nJq+36jQRhDWdvfM+pFss6f1RwRhgUTtbZSj6zeq8bT/83/+z3Hc8+Z+zwbt7H1CRQwSMCDCUHvLzDrRdTanaQCIFZNDPBCS/C5mYVwoMAYeOgcC+sxIiD5EqNqrDQYfuhY2NYE9X/SDEgSgCGvXyFHbQCRv6Qu+4AuOIi7g4TY8dn3CPITYnKBPNG3tdwDhG77hG65k5Db6dL8CeB1AiLZSDDsXy49C2qJXlF5jIQjAonnllWD+rVHxHDRcVN71Ihm7w1we5ste9rJDyPIAKXyKjtK7X1pc4jq8wDPw2hgKsec1vva1r71TvrprgabGIAKDBmQcaAeMAH+yvoqPcox+GalkOznLeHba4M732YtGZ/N0U8Cqv2jg7I6AWwWXpRCih/MVjB3/A/zaIdPNcbUANlKiDxoX56JnKBIsSojH+h2wpE+Mr7nodMQiLd1vuXjtB+YYBTTV39U55jBaNsav/uqvvjI23S+C5JkLGmqvsdbX6ke+8iu/8uBjYGDBzSV487o2PJ8hLT1SWqXvi26VEu0gqrPON+4Fe7fVx7v1mxOpBoHOYOQVFq5+FZlJ9+x28QviOL7mqufv8nmgQVoGIK1tug/I4izVxoKBTc9ztqTOV3/hOcsnD6frp3/6p3+Bt8CDtvuWgQlX1hFKupuFshh9kYY6LyyHSOdIAzRUexA9JbLgYtEUIRbi3PC59xidAQd+1iOqHeG8RWTGz7MgdLwoRF1l03P7z2P5pm/6pkPYbal8aQRubPVZHwg+RYeWLe9qF7bOgCgstmHT2+jX/QjsdQChvjiLAY/U13M4DOi0N0E07zqRBm1LO1Eq9QsPWu2Av4GKBR4UO+HrGRnTb/mWbzlCwhkOCmw9occBEHbOAaroUtg5Hgx4Pe95z7uqg2FsyAQPYxUv0BVd0ZbH0XXaiK7kXt7VfLQTX+HrdgBc5YVnRXXuh2fudo15WjmIBtHkcz7nc45C0vVSOSkLlIRs+66lq/GhQkFRSgbbfbVJ2Ze//8zP/Mx324/lzBPRoohKwKDNj1aHrOE784/x+T6a2QumPn32Z3/2nT/0h/7QVeqDE8RJo185O42/tpqrwEGplR0Tw7Zy8zDzc7d7N4rjmqIhf/JP/smjHuNNb3rTATYbL32nb7cZhXqqsa6D3BLUnK7lo7VRQviM/KbRF2SbX5FdNQP1gy3j7NYGZ2UBAvkDrs/pJbqSo+wAxZ6BDwF1+lO0goN+rGLgyQvB1nlhQ8YSQko5Bhy6pvdQNUHl7R3o4xcL+lI03kM3hHkREs9QeHK9Y4y+aQVKsTYhLCiKIkM80QOhmBUOwCQ68BgWwPR9k1FRV+1q24SXe/3zf/7PX+3ZDhXehiFuHEJAjRvDNG5bQEfHiukq/KtC+Y1vfOOVp0HobuqxXUJZ3A0gWMVAifPOGZ7Gg9a8I5GCNTbSLISuPosmAUh4e40dwLU8AWDWl0BBxqPQc0KG7msMblux3o3+IkfAVQA1+cxAt2wxXpESUKdDXtT/RMNoQP7ME4PC6OD9VTwAds/JS3b6aRG1zjWoeBGIpWeW3oz4g9IPeKmmQoFhe1RUf2A8zb3cvmgnANCYAtCFjt/5zne+21LHeKwzDzoMqUJCSp3ijtZ//a//9aNgUOSAfuq1dNTf+lt/69gojdNDPwKueF3b0WPBgu9rDzCNfqJuzbVlkBy0rsOjIkBSsEUd6lPPITtk6rY9dGPBB/W3vidbpYN6rX5LKgfPPy5gsLqyvkevAEI1CPjePC6IPqcOumZ12Nk2kj+2kEy4B0/0jLVr542S0HV1O54QAdm2gQP34U3zdIy/IsXNKTKkOt0D6jjDyiOoEeF6xtkA/MbL02GEq03e3HrrGBuCAipcA8DI4SxAIIALKrS3VbOEYvM77qmfJt77zYcxKpRL/avIqI1XCpVpG0NDvpcwriss1wGEFGR5vPqQQsvo9vzyjCk/f7fRp/sd33UAobktHFwRHaWGfzCw+bGvAw+Yx7oRnk1TLKMzDAAgMFjbDEivkLWitD7njcvhk4sFIfc7/tu4Lj6246mxf/7nf/6xWsEYgUrKTDiTXKHzRvDQ4jwH5hB4A7iAMUAsOnXmQccGt8cAwwksMEp0w4PwpXujgSVftd8Sxhe+8IVXm5ExuD1jQ7WdddBKh05wtNqI7DbujlEOaLVqoYhEyzu1ZfwVQ770pS+9ShEUti+EX8Sg9s9Rl9WBjDSdAzhdF43i2fWaUe20xcAqT7v+M6z0tbnotetaTtkeHgE5MrV0fxRRMLq/PjWOF73oRUeNTH36U3/qTx1RJzzGmN2mPr2XTOpD/Y72VjEAD2ujGtNGsjk8a4fwPQcciOXoAfpssvltTnu/AGHt7tleSdn3PSfpXHfHnu5Y2H8p+atljrwvSP46FNvNchs1elaSGz5a1Oc9gaasCQam6XsDXcVzFqBFPJDRpiUM/MxoogvGtoqD8qRMTUzfm0xgSRipa9sPvXDdmZHOCvBejHi/v6/RW2CDcapubue4vJro2ZbAod4FCLftKdxtLHcDCHZSxMh7v/kQJgOOmh/vCe85nE14Gb7aQjMGTU6OkODhaESw29Oio3YB4KU7ebnf+bv0dWQhBZPCzRMrhNx+8ckEz3MBJkUmvUfxWN1hnhjznnGu10CDTfN5ls2S+lzhbkbWs4B6ugDd9/P90Mjc9kpvML6tJPrUT/3UY74YQB5gY6mepKhfqxjaRRBgMsY+9z6gUR1PhrhC32qMWrqMN3r9db/u1x3Rw4BBKcaMcMWOUo/GDdTiKYCJbrkbH+m/sfXangz1Bb9zmIyR0bHVcjQvepQjU0THOPeZZOOm83A/c7W6p/6XQggQtIFVW9H/8l/+y48VL2pXNg1zk/Zv61q0qe85WxWpri7hGAJkK2veA20LEDYKuiDIPewVHsAr7C7ZAwDZoKUfnUVXmvO9Z23cjuHo60/8xE8cEQRFPiliW8jyTFIcCX0dDKk2uV1XgU6vhWArOOFt9VqoMc9LXqTvuq57oJrrDHid6j7Hi+YZx9CW52Sca0PR0AIEEY36KdzZ4GO+woGNs7b7q3+13R8Bg/iAE7SIDg5yoUx7Rp5HTL1RB4xwRr2XMiQmnJBT1PWrOcwbL6fX940x5Zw30xyegdFtCdRNAELXAgjNpXXQzX/zkxD1vtfmsXMueq8oNaPYddEF7dEE6G1+4pnmML6pje7HZ91XG2gUr/cMPPfiF7/44CeCh44Lgh81LRlWhrK+Z6TK47ahD5AsslRfG29yQD6MF/hSpxOde28Oaqv30UyqjT7g+WxqMR1R1KC5iWa/9/f+3qN4t8/1gZEEVIHem8qI9MpG7mozT/T5z3/+FUCo3/Uj+pRyK13Q3PY5uhjDLtvMAL/kJS85+LF+xyM5A4ovOUvRs62Zv/M7v/OgbdfXnjSMlGz398x0YPTZCOZZljeSsACseasvHe9cjVHtVPXfc5P9aEsfcnB6ft+lp9r3oeu7Vj3DWQffJh83LjRIBiug/YAP+ICraHI7Q5bG26gGntjvbrOP17UNNDWvUgwMfbRNN9iSO3mT1mu8fc42AuvuWxBANu2K2Tw2z/FQ7/s9/RVvNa/meCPjtdvndD5d2XP7I3PxSbLN0RUNpUtEC7uv644oWYc1MYgraIts14PmYREQyqVOiwTwyiBctQqrYHWOUYem6qyCjdqGdEQdIJxF/d2zNQi1vR6myehZXSdcA6HJ/ayXCo0t8RiG2m4dc6GxruMNuOemiu6pGJ5gLOBYrxF9Yqbf8lt+y3GWOwaIpinEwpFy+BjsNj2FpwIIjMGGQVPon/RJn3QVLq1vCuSg2/VCet9cAXZ95uUaJ5Qt7C7KgHZA6hlZm7sMYUKaUm3b7IyHvjwO2p35AD0alzEWrv3SL/3SK8C6EbOdk74nB40/WvJQGe2l53pL3ptH1wHX6Lzz3GZKFfSlLLuOHD0MPc/yQPE2Tx//8R9/1F8w2G2JXR1AMus+jouoVTon5RptKnKsqj4etJSsPrc0seiEsWoDzWpbdMGcoK2CbvRbp8Lc0FmrR/QXnUudtBdH6Q88DBCjfe2Z+14DL1/xFV9xlXKyZPW2AK65pzvP+iC6vuIVr7jTTpdOzIw30gMBsDWewJK2Hofs4dP6AiDoD1lqTHibLOEBdGZfzRddxF4BiuwkG0dH9aruoHuT4fiKDoju7KNn9ll0fftHd270Y9Oz6H4FEBjNRTiL8BlBKGPDuwz5GlxC1H1Cl4sG60yDEP5dZLT5GO2oCl0vmBcJVGxV9lmp8TAVW2I0Qskzry0AR39NqDB+CqfwY4qP17FCcUmEe0bO+mRueFGhz+oN2jbXZlApgryNr/u6r7uqIcEkl+zj/baFaXktjHyK4RM/8ROvFG/tbUhumbm5AFIh6TVOK4S8664jdKuYd+4BC/TFW0VgOrUxnlgjfb9jvtR1Z35e4Bp4DvVXgJZHhrcX2JNr7agPIse83gUI5JkD0TPpAaBsgQXl1HfynbWfh5V32EqQ6/j5QQzVGSBQ4inMvB/KNxqoIwLmySrZId/1M3BRRKt2kp9qiwIa6ZbC81/0RV90yJLaj63foucobteJrmyf0RJfnseD9pv2qD9FCEsjBWZEibSBtn0O2OTVBowCja2m0B9Ls8/e7KV4lfxu/7zvt1ILRTSccKuGJD0QIO+PbXgSAMLKXjUIpe82YuZ3wK4+r70iq9EfeHMt+cOLeLTr1ik2N5znrsNnbNfaK3oeeFhQQjZWnuOZdaZEoJ723//7fz+21lPkAqnqQAOFQghbDNbvlqMw7l0n9CiiAGV3DaVEcVEkPX89Qu/XGKp9oJBqAzISXhHaaaCr8Ci1xmKnR0bHs+rDTqBnQ4hdp4K9wqa/+Bf/4jF+HsgVQX9xvfmlkO7ZKFFuJr4+1cfy5BUnCkvVr4xGGzdVaY1hjOtS/bupUtH/ZUgpBnPQ2ER76ueuC+77fldEuBEt0RQgAl/1mcIleNHHMt4dg2fFJ81p+fzO1sCzt6lU70XLjWD1fucyz7Ics8icZbyiSWf5O6/6WaUB8Cdz0WEVHnBHiZ+93uhX29E2A9Dz0xcdYdw8WwG1oOBBAAJarXysA7K/A5AUNcBDbwCQjaUanrztagvq98r993zP99ypKLH71ttDg/QH/RRgr42iES2hfN3rXndl+ADX6LuAKzoAsOYDj9Z2W7i3QqM0Re13DaeFYdl5rI8Bs85bYIAYGDRBs3vx3k1/ZxMWCPWsdGY1Uu3jQAfEI4Gz+KONqgBNr+e5vmlfHub6pU9jsszRPNe2JdHLi5adrn0BktSIXBdBABxqS3oK4KIfRd2Tza5Z27ir/aQMlQrQgWw8/qFLOAf06PFZigERdRqzEl6eGeQsLL/e3HofOirsBeWs1wfRepaBR1REgWoYuBWIjVw0SQAMJWkiTBIjro2eQSAJLcOJSDYf6drar7CpMGN5ndoDkvRvJ/hhGPM6Bdh3AAsGzBD8jt/xO45T5/TBXHV9BVShXsrRuC7RtwdpA0DYFEPLm37Db/gNB30x/XWKH28un22kwRwyAMbaZ3RjDLSBpvEEQ+j929/+9uOwn7wvgBI/P8jYH+aeBXSM9EbsMgTVHhB6JzUuWEqWyO1uHIVna6+/jYrtb7UtugcgLN+jZfReQ1S75ftLyVWLsDQ0z14fhkbu1f7dgIdn6Ts6clgyVPEjz5CzUag+ELa6CKD07HZx7OCxImJtUIWm8XibAKE//tNHbVLe5gCdm9s8bNHNreNYXUmndV21Fl/1VV91FVHcdNryv74/DFDbeVvZFd1IpkontLqmJaiMnahvKYboHo2N+UkACDsuAKFljkAimaivm7pG33V8+26BU/SWmlig6J7V5+YdGF2nGFitr+fr2LwzkHfd2lfOj+jf8bkIQm9sorBGLybloQqpdPPug98gV/FkqBuYtbmUekIbE/Q9BuhZtV8binEY9/q0yr8B9Ry54X3uKv8lFqNoCZS8dn1i+CkFAKbPoikKMm1bW7ixQqXv+q7vOipvHZu6kYyd6Esou/USveel1b+8tArTWq8dTYRTgaAAQuu8+8Ocoh6X6N9N21iAQBAybh/3cR93KNPzjofNFW+46ykUhWfmSsQqGmxtAgHhDaNR368XLfVUe4oe82aqsl5lzvgI2d10/A9zff3A0wxP42juq8pHg8YVzyYrigpFBEVg0BLfMw61Yb8E8tczAFIgCqjXn1X4K5sbeWlfgOZ6v6MLHtQ4nYFF/QP6FwwDjcAzw8Xz5lxEu8/6rM86wEx/9lcIcHUWxxd+4RceHjxZonirCahuoYJW/KLuoGe1SVLpiYo3KWK6AggD5ugTofd0TZHADFP9qA0pBhFaEVVGp+XX9bW+1J6jozfKdo4ePOgcnHma47b8mu4ufWPVQr+Rv55bBMEqhicNIACK0ato7B7WxC42HrZxwYN9KvrdPFtSu44rniVHyZ4aBFGsXkUuAIR4BDBZkGmn0ObbktyNoC8wcT+dptbh4If2QRCC7eGUQZ3h4WM+YQ8hC8K5YRSGiFJHXGHhiAPlbhpACEwYpvsYQv2jePree7/tJkHaIHBQkudSjl3nuSamV1EOE2oyMrSFChGaQt5ilO4XCn4YY+DeFWLvIdEqW/No7CEgT64/ja9USBEEws9An5XDJfp6P20sQKif0SrvqjGIIKgAZ9wx8KJgygfaZagILAMKDIl0MRS9aq/fgFx81X1tjdumMv4IsWffz3gvdc162qt463vGrCgSr2D7uREABqm2yLAixVVQvP8dt0Lj8xzsfeYAPd3DK87YFiavhod3uODrUjx5twgCXbRyrW/mv9dyzMm6cXBiAgZFAdq6PDokf4XKOw66o7MdBR3A6s/yy95nAKtnqQ5jefQ8l4BcwN++H6W5iiAAx3bQY0jrswp1QC5vvHz+6mj8wRD0rP17GICw93qmOe639H71Ex/xER9xtdSYEUMfRYrue1IiCMbWXDmLAd8ApGeHFo3VCQAI5Md9Z/3FoIt0smXSUcAXGe57+rF+Ar4ALCDPMZJG30gDOtdn47CU/2k/+ZM/eQAEyoPAQ7nLwBQAww6NQy6AggrpM9Ns27VlM4e+Z6i98hA982zYGlT96Htej7Cb5+7EMtzrQawiqw+IR8gQu8+FvipMRKsNHa2QnT2ahzEQvDuGX+jbRP7W3/pbj+1Wo2PKKgXmBEKM2PbAFdlhHvQ8K4eH6edN7j1HEPqcd5SiBXzQnTFfgIe+DBswR1k27toBIvGc+hd8swaqe7dYKO8shZ5H6HTCNdCXnOOb0A54BXqawyJygRj958lUqJfBQm9j9LyNwEQbfMFg4/MtIqb0GGBKzlzUn+3HtoGHO2AoA0vhmbeHMU43peF1RnF1Rv3OEWgpYXzgdEEV5KUXRQ/bRMm80C2UOJoae6sgMvbrsfEIGYJoyoOrhqh6iIr60Lg21ed0j0gRfu63ag5yDOrH8srD0Om6e4HsBQLkEW+ga0tdA4cinGszeN45Cm2UhG+eFICAR6NlW9e31TJ9av546atfycnqKE4350dkXB3BOqdnR5OTQ//vzqjLv/p7nc2jDzx350FUYe3msVESTxvKMTBMQSF2o7BX15xz/NshFZhrmM4hNZ481Cz0wiBErK6h3HrPC8CcG0Homav4EZvgupfREEGQF1wBl8Ptt/KmhetSqrXRddYdq5s40+oSwkjhUh48rMZVAVQhuRRU12GWrlljGEAoLIaOGOIS/XuQNs4RhOib51DeFv+cjZXnUHb7XAbf3G7UoWdZjbDCZf5rT8gd2AR+2w2vHQnrH4X1uIzY8hZZBG5f8IIXHGkvNT9ksnvWS6nvxti9QDwPZmVRuu86443O275n0g/NAcWJH/vc8wPazTc5kg56XKBrdQKnqLG1LPO3//bffsVqFKrrjRW4oufwWTeKoEhf9drSvkAHDw8dKX2fk+vP/dzPvfPpn/7pV04Q4CsNh+70dq+7pBRP3CZtzbM+9Cx1Kr0Grj7yIz/yOKuG/gQO+53OT3/tIV8LNm9Dt95Ed63xtYqBA1Y75pIu6jsRTL+RxY089JtU9zrPq8PobeBce322BPc6gH4GvIDnpinW4eSU1XcA9LCfncXQw85hCl5936+33rVyZBvO4GkghPSAiUZIgkCJWCYEWXW9fznQVTxLYMaufoTue71O4QEc6hN4WUsggk3QeQEJY3n8lgrG7KsQdmy993dJQ7IKydjrW8L0m37Tb3q33QQZUJGHxpQnEUDAdJfs202EbIWcMAjrFg7tuGfzvuG65hRg3VoXYHOFcj0P6PvsES8IEQVixLrHBjKtVMmLdA1BvU1l+1T09Fyg2fgqosyQLZ1WuYrIAQiuAwLI2JkuC65X4aEHea5dhnABLYVEkaUPet/2wy27K48OJACED8JPl7insYo8UeydY9IBQnSMfHDz4LCmaHHOJ+Ml+hAgph8CRxUPAhxCvQBFSr+lyjkkn/zJn3wFYKUbrK7JgaHXOA7RtD5XSK3mJro3hv27FA/Tlb3GT9cVbHeqaH0KJPS3MrfGr3FLMawTsX2/VL9vwjN0EnkDEFZeNiotkrCRtLWT3bdRuZ1/bQLyGzVi19A8WkgTMuj9ZqntlgfQ/eu0bzpynQ6yrg9HkWINl/MqLEngu6nPGcUatrtannO5xCbXMaVylglLEx1BnOYYarRnuCU7/d49UBihUp+wyKjrYhKH0CjA4lUjqqpfIGDRKcNCudYeATO5kC9UXl/KlbYVa5W3DEe/NzFCe6vcCGrfLWC4CUPutYBM/V/GyKto1UJ9p3ijWaHx+uba2grcPCkphkW1a+jKTVbA1Hd2Imt+7Hqp4JUAJKxVxXfNRpl41QTSXOHHeLg5kn6IZs1jv9vBUUSqdFI53AWB5vcSc/sgPIEfeKTNd2HZlC9Zaitgu7olK13bGHs1llUuxtTvNl2J7tFWkW59FVFbeqw3gudXGXIGyFvPSE5f+cpXHkCBMhP1exCaPOw9eHK9wPrbfhJf+7Vfe9BszzwwJiB8l8Xa/S4+Y5gBMI5W6ZX4HdiP1hUhFlXou4odO7/iQz/0Qw9w0Nw5XlwIuHsqOqzN7pOHznjVZzpgAfNt8Gxt0rf0MqcLoPo9v+f3XOnPfsNvzfl/+S//5Rh7fFGfc3oqDOasnvnicQCEdfrikWpTSjGIoPfafNgdk71S9M8OsXHsFf5RyLrF9yLAbG184TRHDmPtpLOSy7sBBDUr6N6zbPiGxudoReOxO+1hG7dIUZhI2O+MjBDFRjwUrWpUDMlwQSFL5AgDIDBkvEDIivdu4JR2/RMCFqmovX63PI5ACn317I1O+CyvKMwMICzTt2d7hjijRYEAQ7Up7HMb6Bzw4AETrGc961nHscOU/ha58H5EQ6JFm+c8KREEyph3aV5SDBUpQusMkj0rKApzxRumdKWe8BGQxxOpva3g5TEyal0vKtZ3KeR2pCy1pI1VTgsEH9ZA3eT+nts/uayqvbM28tKac5GW9W6Ee7tPWsH7czEo2SRL58hhdDcHvEGGrt/Ma68Ai4gj3uy6QE3nFpxBxU1ocalrGc5VvNGhs0wqKoy2tn0/53zpKXRHP3TGV9FCjrnVBQGk/voeEA7sJdvpmw/7sA97NwARGBDx6R7r7tG853cwVsWqto8G1G4T1DJyUrSiA4BLS0WLCjRGgAG/uBdfxHNdW50GmeOFm+vHBRDwRn0XQdjIJN2x9mp1D1ApusCeoRd9Jpq+aVGRdqmI5VMO9wIEIBIw4UgDGWedyuYvbdXgHTbo537u547jnilNxhu6p2wIAyUhXCFHK7zNaO7nBR6qOi2H3BSGwVGCgIowH0ahfDbciajGsYoMUYWl3Q9kACZdF9Fj6EBBSL6cHgbYEPcS9mGV1TLTWaBNXH1u//LCs50sqMrU/BC8HWNzUQShylvG93EJGWNAma534+haoEsfgT9hRsBneVWYFdikSNeYiizEX4CgUHv3QdGua9+DNsR5xzvecVXTor2HneuHuX/HVJ8DVYVvRQzIKBAMPAJYaLSAGi1XRvqOAgc8gBIggIFj/MgSj3KfxatKpyRfHenb6YhWB5gDxuJhaHSTe1fW8JZ+50C0JPPX/tpfe4BLKQH6Ddglu/t9faCz+l50MzpUSNwySg6HpeTtDVARX2CAV9pz6SYRnvjd0hY4N18AACAASURBVDltxKctoey46kcp52hF10oZ1OdAVcXH0Q9fsjM733RxkZA2ewsgXOd43WReL33tGmWHNXFAAQV617OBN8abvSTD5E6of3UU2Vo6mGspw55rNQveXbB+lue13/0GfNF9dAT7Tz8+7ad+6qd+oU5SJjHgpgRiUlWm3dR/DNqr8EiTm0fLsNeZEHGIm0Lpt12eQ2kAGAjdZxXCvVdbwCvsN1t0bmRgoxi1hZCUZUSUK+03+5FD/d1jd77G//rXv/44Ctaa+K4XOcEEtckDeRimpGy0QZAYxugQvVrK1iEyeTX1lQci1Ks/5qHPljkeaPAXoy3rqT9Mv296L4WyIKY2UsRqEHhp0Vu6ijBJV4kk9b3IwEYlMDc6Rh/huvpgXwtKXL62vnRdBqzzF1rBsGHOS833Tem2fLFzWPi2XDUvvXEU7oxfpAR4EisHIgjJFNpSRn2O52vLYVX9xkCawwUI/eYzhUdB6Rs9Uv8yaPUdyO5eHu+D0uZB7yML5hkd6tuXf/mXHyDMjpAALJArRVUbvHr6KzqIICyoSleWIrQsu4PVOpfgec973tV3lHTzhG/ReI1r+vfHfuzHjhMzM1z1b4G494DQg9Lobvct3wljMzjpqYosN9pRPwCd3sdnyWL3pM+e1NMcV/7spEifNlfnWoDGRg4aL3sqgrAyzP5IF9TupuKjzaYJN4p6BgjxxkYQes8Rq111getMAv5AQ+0HjuPTwy61k2I3yKVhKuFFylZeJAFgSNczaaDC+3UKUzLijJZBnHOiQqGQF6VR33gpvQIS+rcIm4d4BggbaajdLagRnraHe4qx2oMUbwaiP/SR+70EKDgLHboAOjxjkymcHPCiNIT2eDFrzCjyUgx2UsTUt9H/+1E+1wGEeCXF0CoGzLqeMrps/lIU4LxU7swTC5Su69/yBZpE2+jVHgiFawHT+xnfbV5DLshjfVe7oYCNsoouru+6826g0fwcxjQ3G61pPOjOgcCPZ4DgeXKbAIJIBAAQPZOrlpDmTVNot0m7e7Vt7hlyOqZVLJ0KWZ48OgCUIh3SnfEtPYcHgQihdQa+6FRL/pqTgEJLlVuxgJfJcAo6gEYv92xeqHx142ob51axqDcB+ESBzOe9aPCgv4v2ATWNt1RJy1lzZNST6RfPm1OjnwsQbgvQPOgYu898VoOQLjYOAHMdTUYcAGZ8N8XA6zfveJATwuaJytCJZ4CgBo0dI08baSCrm6YQQdBH41sn6Aog1Ekhjhpj6BEGqqZQefV9vyhyw5K8Xh1ZAlDwBBKxCBGlhOkY/g1h1Z6QP6PPIwIQtAf5ywMi4k4CENBuiRUlFq7r9/NGF5QD4HAJZiZkwm3mQgQlUFC4rk1GzEH9SPhCe6ugMAPA1mFNGbzGR1kcE/+LZ0Y8jNDc9N4zQODhl5MWQQASAD/KOprYWMXc82wXbC5PQM8QO4DJ6Au7RUs812/VeHTwFVl4XIBq6cvAMsCNuTx+SpiSaXwiKuqD8D5DVTvr9VAIZLGxogWgb05WHvGZOQRSzwABL+NxNP2yL/uyY0fS9WBuyk+XuJ4cADg+1+9ORy10H43ptp4pbLwpUPNDtsxF9O+973M+ik6WwlJbUDvRPHluPxNeOHnhmJBpuztWkFrNQgcyaZ+iX2fgtmR9QWE0CdRUu1GhZEaUrlr9xqYAn3T0phhuq78Pwi8LzLtfigFgIy+A++4OaR7xydXKgF+M5LI/nGDyps6Nbe2VXC1A8Cz8A7yvbWRblz8bByDKLgAg+6xD91rmiLHW41/lgkmbUIUODO16C+sFIq6B84oBEAKAENINohVQ51nBrxe1RBVSaWAiEhHDexNGeLsuIjt0qe/f+MY3HgLce+h2lRhFSLFegpnRIRRtdURKnxC1drqIBqAkPQJQdD9ES5FRJq0/rkiRwlhF/SAC8zD3nAFCfY6O1SCIIKA7o909672uMexePAKlAwiMOiVFUNCl56ywMXTxYMVSb3rTm672DVgjcon5fhgaGkegsdCyUCbeX48fcAJqFxApRMQvq/DQ0BxQPNGMUsNz5hRgPgOEjWpI5fTMFG1RmscJvs5A2Wf6rGLBwCJZ19dzPrnxLIiiN1cJ0yUrq9KsIj54f/sF5IoWpq/Mg/ShdJIll3TUw/DZ/dzLqABARd+Kjrz0pS+92ka5/pLTs7EV+Yq/dh+E9WLvpx+3fc2CPjspru2y6djaK3p29c8Wtos0AQ8LpuhFss6g4x3O03lxwAIEqRyRhe61LwaQ1nfaxKv0o3TVsZNiDGoZXw8t59Yrwwox14GYwJKcrmsw5RV7X8flQLuuSWeMe7DrIBwdjRBbZLhhKcV4agAasJxO7zeK0fMNVIilZyFk46zv3WO8CNJ9/+Jf/IujCDBD7bnQGcOwAIF3ewkGjU6Wmgor1s/Cmxn5DoGhGIyTgPX9GXXWz8YLIBDmJxEglGIoglDf0L3ICP6x/4SlnNFdDhefNc/y5NAyLzc6xj82qMm4Ri85UN5PdI0vOjGvjZKAiFXugNYl5vwmbTBOokAZr6Ic0axx1Xdj7LuAZvRKDuyuqbp+5W0BglUN3RdN1IFEB6tmNhUIcAMgohAMhmiBOY2/Syv0/Nbqt004J4Pc3oQml7h2jSnZ8Fp/Cynn6dc/47APguXOzY1CxGTOUrLuV4eFh1sC2f0iPd3rOrqs58tDc544DN1XlPMHfuAHjtQCXcqochrMwcrCJei1bQBSjFCbtwX262P80u+ivsmc5fHxVWMsAtJukfFUtHWa4+PUUWca6Yux7FbL9HDyp6C0eWsuGOM+N/bosEXY5lUERdqIbtvav/rk6AKOTN+tzm++AQRt2ElVTZ8ahAUcUgzrkMWP5upp73rXu459EFZAeQk8fmiHMVWkyFvoe548ZsHs8nQKObbt9eRdV1+sGtjJEXUQ6YiwIg0UXv3cQkShZEqAsV9Uruo9Zi2c2IEsGJ9XdClEex3jn72YnsWwpUhahZAxwFw85fVEziFhk974AwjOYsD852deWnE8VXvmAk/1qkix38y9uQIieWh4TbiOUerVvAJDPjNU7okuFBfDC/333DYeKhSMjtp7nN4umjJAChQbiwInHhpvgRcAyC5IRGfytDwv0kDGeDJ4k9FZI1T/tLGeTveco5Jd+x/+w384ChW1+STQ9sy39altizsMa2uw0JlSRaczQKWzovsah+7fnVp5j+QSXekdvElXVZiYI5Ou4rABWpfSVdfJMNklg6vLW2FVOrPtqdV41QYnDrAWtQMu2Y2MbJG7b//2b786P0J6+lHqp+sAAt3SbwGEcw0Cj58TKRrHiRHdJY/Gxf71SkZ49ezn6in8tBGE5l1EayN9tSMytamN1b/klE3ZcRjzVYrBQ4AFyLTOLKMLGfbd5vJNNA8HUzdA+dDtQN+f8zgGREFRLk2MZ4kMQFAbeus9gGBSEEFaQmhVX2on9Fox39/9u3/3KlSIQMZzCSZdAVtjvZ4W45UC6Sz5z/u8z7syVOupUQQLxHi6CxBaJx9Tn5E/Zr7EuG7SxnUAoRqEdoU038a0Hmpj2nAdA7dh8A3x4UfAYvN00hRAKUXmtdxz0S58y8AypjcZ76WuBS7J6Rd/8Rcfq1p83zjXcPNyCT/QSbkv/c6GHs2kE2uXM8CDYSQBtDNAID9A2iqhrm2TnJe//OVX6/YvRadLtKOvjaEw/nOe85yDzpuWoT/QQ5QS8MV/FD4eAgLWWUE7upeM9Bn48D6+7Lj56jfoPuDqNkGW5yczayN6H681l6UXGmfeJ+/1HDpfoyjaURs5nXfbB+FxRxTMWa85W22UZN7xN93Lrm1BIL29AIH8JM+r2+KFdczJJvu3QALPAabsqcine4Az+mtlmI5dfhQsOPRAGyX1BqKlSFzUa/8qMGtIkSIk5IHAQx3hvXetEBrjR9kw4oiC4TcHini1IX0BhW6kQfh0FZnwjbXGiAu09Py8r45ibWOcfu9zhTaFAnk3l2LQczv7eT3gmKad3NqopRBcfzFcUY5Clb2Pro3fhk+E9ozUAwgxNYX1uIABxb0AwTyWYui452hAOGzWgelFSbq/ebV7GWNW+zxdRhAv9z3wwHuLdluvAHjmnbVO3RLe9cg2QnEJQ3STNggyZWAFQ+NpLClkRmg9ux1j1wJf5GVDi8kOQM0BUG+0QIRs9zwAYUGp74FyctqcZjz6PTmrwO7tb3/7FW/epoG7Ka31pTD+C1/4wgMsphMak3B51/R9f3nAzQE+5cH1ud+6p3HLVzvLJbqqgTJ/fdcc9u/gMNd9/dd//bFCAD9bYg68cGhuKzKzRkZEqvRg+1oURVAjgS7r7EUTS5UbmzRK9Ot9jkI7KXoGG3Qp/XsTHlh9BcDVZzsp0jHmqlf9TebYKw4rAwx8rpz1fp0fspRuj+fYWeCT/EnLb7SVDNNn0TJdWT/WoReF2Ogz3lln6thqmWHGlClHhnmFPEJ17YbbzsZ9vQ+FjZR8HU0w+jujJmgyQmOqReMUUYqFMtzQnPDbdQBBmAbxAJqe2f7lnZj2tre97TC2ckHAyG0y53WAIdokXG2A005kgJl5QAchSwZsDQFD2XhLUbR213XQ8IMIyyXuuS6CUIqhsRJExn7R7fLZem/yausZE1bCuwDBGEQrEho81+tb3vKWO1XY4zMKHc8+LoCFbpTya17zmsOzBdaNX1iTkl1veJWQpcrkxXWNk/ytJytysaC+9xtB6D3l5VmUDrrxqHt+G5FV9/O4aXsdX5OhljpWdLceFkO+npgxxI9qQoByAIlu3Ehfbag5QjNtbZQwPiztFc3a4XX7s544YLP0voTcrtwsGIwvcmRa2th7zmR8sBHB+ruy1G8cN45aEYQO81odgdaPEzzSmfUlXfqMZzzj6KN/RhbY5kioebPSbIEzOVhQTsdzkgD6LTjcuT6vYmiONtKwUSy/iXCIauBJY+SAue7YSRGawbjdtBGEbtLpHsrwb+ikgfYbhQU51TGKeiMI1wGEDdPU1iKjNXoEST97xt1CppiN8krxL8oKtXZcbkU1OzZG6jYZE0DAaLzbFFKbjFC+wky8Bl7kKv9VVo3PfFWF7Wx7oSeMc0nFcb9tXQcQ8obbkGbpQdFQoITwrKiACp6xfBsPCo/gn67H2+Z7q8i/9Vu/9djRjZHs+dqirO53rJe8bj2U5r0CxQ/5kA+52nVPSBdPAFFr8Bl3chqf4CnyQS7Jr7Fv9E3BHIcCKBC5wGdSNMAIviWvHX385je/+bGuZLhujtCucXZoU+dy8MjIZK9dpxhtAaqwMX23oFzbHC0OwSpu+jja10aGoP+Odq94tt9FR8n9RtgWaF+KB9mAnMfGED80zvr0mZ/5mVeOlbldXd6955Ufa+gaZ3o5p+gf/sN/eLUcm+e8euE29fHdaNUz6YyisdVZLPBdp5gzag7Il/sZfQCh78/2d6NA+GVtMvuVrY3/ONJnHUHP4421G567AAwgxXOHXSqC0A9NYA+sMQdDnJUrdGHpio5SHpAvBq4twtFDC5cUeoFAFzF71npz14VOLAWkhPRBBMFEUOzrRXZtIc5CevWrPF67pTX2xqCNZd6zl3BJgcNEJqm+t7Nau/jt5iyUEuEQftcXYwTYGMNeiyBIMez1j0PQgEU0FQX503/6Tx+HNa1ihMLdQ0GpH9D/3e3vDF6vA76UTbywleJCtK3hfsMb3nClhKH+xxU5MGcUSnLUipaWCLY+X5qGN6GAWASh3y1/E2XivUkjdA3j3ni3qFCUQBW169B2efMMMkQmz9GP7k3WAmKFlBfUXEq+HqYdCleqL68RsOSI0BdoS5FLo9RGc8V40HkAF2+zdkVx0BbP00e9dshT6cL+gAPGaI0OJf8w43+qe+mW+l9qoeifdN0CR3MPsNOxtY0G6WKpl+SvCMI/+kf/6GrfiCcJILBLOVvnCELzZl62ILBxNsb2tgAA1y6tbcE/q7uBi7NNZvO27mVTBav36AHP4mxuNH0deLa7OT34MIAAxTK6WzhRJ3UUkhIq2jwGtEIZYAjGtu8p5NqheLWxCopQESKd7rVnJ4Q8HcKyxKLU1qv0vjYIdxsilXPWF+jYhBvTpYzpKkqCDED1W+Mq55nXAjz1un3HiJQDYbsuLNxvDmtaT/i2lMf9tHtdBCElUwShP+Pd67S7KaVF7Yp/Fklv2gyydp15TQgoNQJWPURRBODlfsb0KK4BbOrnB33QBx0bZ7UDHyCFR/AucL1GmxKKTlIRjBhD31h2hcMq+L6naMxPbW5NgvZ8v54tkNVvtZXB6+jjs/F8FPS8lxGkowJG8QMjvM4DL3pBFeC5ehOt1jiat9oVrRGFINscsu/5nu85vOuWN/as9JTtsMk1J+NhaUcfeV2ASh/X34xeAO+5z33u1S6OfV+fm1s1CLxh9gCgrV3n3kRTAOGf/JN/crVlNLtz26DnqWi2Ojua/NW/+lfv/Mpf+SsPm7je/9kp5qxll6Ts1670zJ37BQ5kBkASvVog370bQcAz+oTOyx8iy/oKLAAInrfg9Wk/+7M/e0QQ1lARhk0rUNyUS41qUCeEzbr/vL1rbfH2KBGeQ6+1z/CvklvlzxtSYLXeDNCCqTb6gZCNsyhG/WgNdvkuR1ZjZPUVJpjndgkPEprjIXgmAxZgeclLXnIoAch6vQTMKnS5CofiWmZvDACCdi6lSB5UEV0HEFr/HEBAn17r+9Zf4D+0w694BT+KWhHgrdVg7BhPgoCPa7PlY63RX6+AMF+SF25KP+NNrjoAJ1AlLbZpFUBx2wcMyATaohGAjOd5rvhTZEbkKmVvrvBdr0BB93kv8hON6Qfh5pbgVnS3xuhSYPym9D3Tq373n674+3//77/bihZ0iO70HOMe7RR802cLEMgfT3EBf3PnXvu+pNeqkUpXVbAsRUo3m9NLy/V6twsa6P9OjtzzNNKx0SLdlOHfFUCNcR1GdUNrIxpXkdPOQSFnC34fF1/oC0fWWQx9T17oinOUhE3b5Y50PZmToroOIJAx+go90NbWAX2/dpI9VV9FB5I7AAEw53wAF553zPvP/MzP/IJOr5D3I8WyYaVujmn72zAFT5YX2CB48j0YstRpzzpHEAxuFT5DqE/nQqiuVdF5BggE3VgS4Haga83uek8bDux5BM79l2BQEwFseEZtt41yhrKCFp5y/cB8vTe2ZUT9W89bX7u+ZVrtpHhpT+NBFfAZIDT/e9wz44Tn0KoxrZcrgrBpqFW6jN9GYCjV8/x2LaXWEsfOYBBFA0h2vJfghZvSD+80xnilcKz8I1CwNBO2RjOyQxY3Cug3snieg/U4FohScivD5wjCeimAFkVXoWU7l2YMVxbOtL4EOL8JvdG6vte3r/u6rzs2S2KMzT8Hpb7jM14a/WX8xg5I8Nro0b2u9qJjBqB0lxTH6iTjuTRAAAYYHWB9PdIinKVmbTYXH9ooqn5tBOFsPBnWXkWDo0WFnemBUgwc1icBIKCz+bKKAYBaXbI1NuyhKBP9dQZeAMLZ1opyMuLkSjSh9u4VQTinaLYmhn7AywvSl4cPgFBnmmw71+3Ww+uJYXo1CAw1hZJStYtYobm+x1g9o13UCk0BERBWnyMkxE0QeBw91+Cc5tg1iiV5OF2zYR9hZnmgiNB57IXrfvRHf/SqyKhnm0DM2ecN215SSVFAjE+g4FWvetWdj/mYj7kqLtzoDBAAUZ4BQn2VX8awQFU1CAGERbz7/JsozktcewYIzdke1sRw4ceeyatqzqUEFMNSUmhJYVLEG/nyHrhg+LqXgiuv+iSENs+0pnCiT3tGVDjX2Alzr5R6Y+flJiO78+iCgGhprAu+ACl1SdErHo1GZ7DAwFGgCxDoDju51d8MAX6OLyuiXS/8DL5WcV2C/+6nDfIRv0S7QExr3/GPIi4RzdrkJVoO2Sv9BZwbC5C24JUhoL+KdLYRUssH1ZXgbcbkNoAqvQc092pOG0/6O3ktDy/6Gt8x9vt+dVG81DXmvnYbY230l46uYLwixX5jSG9zrPfDC/QKEB1Ya6MkTrVoWdetXkYztgeIrB12if0T9QQKyB9nvN/Rep0cQIwOqA/4x2+1aWfULRRlSzaKgB7m6rDDpRgwrFAEY4ghV/HodNecaxVM6g6c4iEMPosg1EZEMyCGGhgRZiZswjob1QAQ+s3At+8iGQlxa4jLe27fm8z6hcCYEuq/pJLathjtF7/4xXde+cpXHkrYeFdAGDuTCf0BAf2usOzcZwBhjeL9CsZtXHddBKHQ4id+4iceQrcFcvEMZb33uW5RNsVzjvyYy7MQoROE37NSYL/tt/22Q1ltWO826HDTNtfz6ATANkpSf8OTlToAbOMvNCQv7tkoAfmguK4Dm3gV4K//vEMKvc/nCAIAglf1p+/bmKxUyRq+2zB6N6U1IxlPBRAqXP3Vv/pXX4F3vGO8IinGih7rsXE81vNc8IqWaNHy6xyZCqkr7JZGAjbIBS/7kg6M8emzuUsuWmbZSZxsgiWaGzW4WwRB4Vv0EfViMIvaBRC+5Vu+5Uo3P0kRBGAnUFsNwsojncMAA80cWPTDJ+wNO0n+2C/3AaLsM5lbkN/7fr9bigG/sLv4CJBgU3auAYTjuf/7f//vY5kjApg8CpIXoNN9Lxy7Ibcz42rzzLiUWcQRLunZG8Ja4187lBMjRzAXgatLMNA+53kCIn0f+ivkzlgQaMblporkXtcDA+uxYyaA5Nf/+l9/hIurOdgQFSZY0KYdCmgjJzt/6NQzvuZrvuYqROkaqPhe/b+N3xl6wt9Y8kgCCMKseOZu9FseNdY1QEDkgosFUPgHbfFYEa52J4To8fRt0OFB26yvbQXdtuC8L2ecAEONuzGQ4QWUlI1VG2tgRAHQTxtnnq09QH4NHsO6SukM7BjCrv22b/u2o9ANIKFPGCj3Xtr43Yv2C+KjRTLUOQMLtoAvKVO/oSGwtToLoO35wNzyKr1aG8nEP/gH/+BqZc/daLC65V7jut/fzXf91c/GUeTqT/yJP3G16Y4i32hB39afLSTnsF3HZ77LIBVNABDwl3sf9fxfRyd2pRVhRRDwPVqtrCwgwA8LFslgNBUpBrjofb9t1HPluWecN0pau7myvPbdONgQdmj18Y7/OKwpFGgyYtLybT0cytvOazDmCNn2KuwP4fRdBTV2TSNEhRfzkkUMoBqdbVBdq5BQwUu/C9/Urw23bOUsodwoBEL9s3/2z45inxTjbSv+9bYohWWGxhUtWqaWULS0sevsvtX9wq5rxDAPBYPu0ZsnbHJ7Xm1U7R4wgk5vQ6Hcr+JZoIffurfaizZKqo8OPrHTXN8RDAefNDbFpA4UYpzQYT2svou2eSldFxiLjyi4nhFftBHNZ3/2Z1+llhiq+x3fbV5nPPX/+c9//rELYeHevles1Hw3xsZj99JolXy7jnI6r/ppPvqL1gGl6G+f/75XaU8RMt7mlF6g8Mh6vC7E6T2A3hLHwDGl9aQAhAWojb1C32c/+9lXK1ssA+fgxEfNQd8rwMOHvEaRV8aPd0g3AqnR+Tu+4zuOFNLyNGfGPN0mr+EDhYe9trNrdCjVEn3aKrszKqSbu8bycXajsWQD6rvD17Tdq10gex/ILZrU2DeiC6zdzeG8bTosWG1c6dJowalsPhuHA7h633hF0tJZyWL3ig53LznxvvE74MrqDuBMisE2BGweGeZc049d13tHhydXXZNdZ5PJM/oCPF3XfemA/o4Uw1lxn9GLEIbBUEgYGHNvGoBC0xZCiyBErAUIBgtkQK+L1BdN8bYZzfrUPeoi7JdQey0PKoxddbrQyhqo22AyY+MVE3CvMdRnfMZn3GmnNsCGp4f5emUIgQL0E1LqGgp2J5mSK2ISU6/Se1yI/Do+q+8BhAqfeFvLtL0nTHiI4GByxorhwRN9v8iectW+UKj6l3e+851HBMGcHQLytKfdBnvcuE39aOyf+qmfeueP/JE/crW/gX6i34YLhTHV2VwHELoGX4lCkA8hSB5Qn9WBUDy84I0gkDMAvfZ4KehfBKHam3NNzY2Jcws36GN9azlmu1Zu+is6AAh01HqG5BVAQE80wqvkF8D6T//pPx2OTIdZ4f3Ve7cNEPRvZa1xlQL99E//9KtTC0Wg9Ntyvu6jyzdqwAlcR4muj8YZyPRAPLG88yQBhPp7PqxpddYC3dVNIpYLENjULeYnIz2H0T+vVtFWdBdxqi0RLDoWoNpI1YJ6IIx8+20jWkd05H/+z/95HPesU4tuIEGDaQAxNmMMDRMcIQ5trHEDIhj+fjOYc3hF2AbgYEDrD8HrXqHJ7q+9rquvGBQTv/a1r73z+te//qpoSKRCTuzS+oVhAlYIhf70e2j7G7/xGw+0ZiwKy7rPeJaGlAxGJMy8w+bRNQxDqB9AeNyG7wwQAJqiKC1zxNQ7x5u6ooQoZPzYWAEyArUeN8BFIZkXipfxzSuqHgSfXZovHqY9tInHX/CCFxzFa5Y7Md7kqGvV9hgjGV6A0H2US31jfMgfRb3AQ+0CWvYsysZ788H4MTbbfm1nDFpuzLvW54eh0yXuRev6W59a8fSRH/mRh0KmO6KRKB3dBqjRK8ZDT0nTnkE9mY0O1UgVxrayo7aBNq+XGONTtVH/HK3e85/5zGcep8J21sJGXwEY0Wb6x3iBw17xH/DOMPV94y9qXDTpSQYIjaO5qQaB40EOGgfbs7VBdBlnz9yjDYOMrmzZpq5qg/MIOABiov/riC547Tmi0EDpyuzehyc4sQc4s5MitMeTWFS8AMEA+t2BNnVojaEBLXruvkU8Z4AAjCBkgzmj7Nq9LpTV94vu+2yf73/6T//psbc+b6f27XZmM49LC9wi/1Wy1jYXcmp74Q//8A+/Kj4iXPU7ulEQJpcCXy/NXC1DYNi+a37aJz2mxoiXHutN2jsDBIbHcc/9DhjFT811fzzMrt+DNhG/DAAAIABJREFUbfrtnNtb5US5NucKb3pv5QNa9hq9ijSVYmAggYybjPG2rtWXXos8VYNA5qD/xphib64Ld0e/9SiE8JNFUUDKAFirLQC79uJHQEwUgpJPZoERsr5Fa93P+DO2O6dtAJRs1i75rY/797jmAGisLwGElpb67lCcv3igEoAlmiCyuREY/NR3wCoDiX7d/83f/M2HXiC7pYvid4VlnntbPKZdDkj9CBQEDhRpciaBHbLEcPFYm3e2olchd2Pg1DBwhb6LIOwqhuV5oG3n5bbpAPB5drwpgkBe2DW8vjVja8QXIABM5LH2NzW6INxvu4mfiKp71insOrb1bJNFcYAWPKgf9EhzQk6PZY7dWMOWMQl7nCMINSCCwNAKdaSQaqccTB2Ti+PJMu49B6pZIq+BT8nZdKP3EQAYketrUO6vbUQFdPqtnHIhzB/6oR+6OiiEQiQEt8VkjA8mqz8p3vJAGaGORkXDaIbBhKGWCYAMjMBgRjNAAnACEKJPc5JHUuUt7+1RKZnr6HodQGhsahC6JzoBBWornJIX/XpfO4pS8Zm2AQSAiiJzHeUbX3atrXL7/JM/+ZPH3JyN1G3xyIO02zh/9+/+3ccx4DxUtIhnGkf/5Xx5dsYIfAEIQCnwLCIhakUn4NO+ZwgZSCFPYEztDA+Lc6GN+tQc9OwOaipVUngZiDtHbx4HQFjZbXwtxSzFsPrwTDN8J+oJEG19kHuiETmtzT5/3/d931EAmM4CCBq7WgXA4kF45ib3GHv9rl/VunTWgvlkTCxHtvnd6nK6OFrY2Km2AFYedr91f2NLBwII9NyTBBA4EUVjrWIQ2RYZBo7or2gVLehovN34+idLXUd/9310SRZFkrvOtgGc8V7VUHGkRbS6nq6sPbturpPEvpBb4HWd2yNt8fM///NXhzXpuAdvaJFwHDf94i5jNQYBExAhXgMWXgcA5HvVIGwYDuOYDOCC0WDkMKuwTK8YF6Lvc9tivu51r7uaJOtwIfqbCM5Nr11PAaiqcDPF3UE7IXPMoOjSBFIyvLHaMnYMInTMAAodn72bljm2uQd0+KQBhMZViqFVDCtAPJKNQplbhpCHYv8M4BDte9WOfQ5c0yuwiJ+kGITdbjrnt3k9xR09Apcvf/nLDyNrjJQTD888k1EACm1UQC+gZoxs3gLcUmbrAS8QRX+yjua8KZ4LT4wH89a3vvU4Zr2+rIf4KL3EjQoYL6AarZPX6nhaxbAKvzHa+wAttEUmnTvDeOJlsogu0anzSFp+jcfRFFjT9qV1l7nlhOCbdFIrrNr6vWJqDk78RdfSz/Xfex6vCAKw3TgAUIYf78V3pRiqE/v2b//2qw34ouvy8c7PbcrauW2y16sUQ/TY1DfArPaAcfdKlzPAbBxDzWlecLHg2/PY4e5XzChKJ+oq+k6PKQWIXzn/5rHnaZNTtan7p/23//bfjuOeN9TYzRBKD93cRQ9QqekhGuxam3oI/fJy6wRBQUyeRK86CXViJgKhva4TdqOQ3E859vm7v/u7j/BlTKjKVD/PTHdpZqMAENy4o3EhxI/+6I++Cr/J34rOpCwhQeMC3Ch7ioVQom3XyVX17NouPOi4Z+N8HF4ZYd8IDoBX7rElVNCsfF7j6js0AjIb53rNfc/oUEgLJmuP8QNou+4cWivF8Fmf9VlPbATB/LfFbSBBNKVxADxoQVHxUiiCdQLIfdfwZIHtnqUmRtsLxDeCQF+sp6NPy4+AHWVXBKHTAKUuOAKPGiCcjS6+bAxF/Np+uwOyfvzHf/zOf/7P//mo8E7P9do1IjWNTyQwAxtA6DVn4Jf+0l96rADoPbrXRnzZWQ8BBJvM9Z3jxhesrGP2sDqLjmpuF7jRVXn8X/VVX3WkQekxNUBdw2gCGNFh0w/JnJQXJ5BR9NkqifoixRBAoN+ehAjC6szGWIph90Gor+aRTDROm7stIKCbgIK1h+tQc1jMDZvHqZbiE2lfkM8mi1zUJ4BV+stcmUeBAHRfOX3a//gf/+MXeKWU5oa2oBGd4RXELJY5IqJwIk+jV0zQNUJnlIaORkR5TwPiHVFKvBqD6XfFQBvKSiDbLbGtQN/xjndcbfcMkd+mcdy2GTa1EIGUL/zCLzyOcW6iUjSURQwAFKAvpeWV0oQqGc8FadAhzzoDUg1CTC3CcFYID6tobnI/L5bxIDBWMfA+6isQ0LjlOTeSAiwwKpQY/kCvBa/4bz0+udHuCyD8zt/5O5+4swHONG6jmle84hUHXYT912MDFCkUskMhoW1jF3nAf+R0jRjDJy9pfugLhgFglUboOf3WfQyGMHN9b+lxAMFSuccd3cJf9BjPrGWx/VG0ABX9ha/IGNnklUdnKdO88QoeP+mTPunOB3/wBx+6Ki+9NAtjol3OFs95DflN5O66a88AAfjo2uaj/SlaTmvpXPofKMAz7ET93Rw6gwmU483uF0nwHPalCIIUAz3GqVi9+ijB45nujbNorH0QGh97tWOUuuS44Sv6Dl9slHQjMBtdoBM5SWx1fZOiEXFefgTqyXPPRE+Ouf5sVMKcAu1HkWITcg5xMFpnZSCCYM3rggAeTg9WkIcYOqowsPaXqaD29b43ZNJzgIVV6sI88l61G/LtgBXEXaRm0hHrYQVt719Ghqzra+DgUz7lU47d7/JEVoFgMOmVaNdYCm323rVA17n/y2wMQ/d4vxEEjPeohQyNzgDBvDisqev0nQe8fJHiks/D3Ftw2Lgw+3ohtUuICBhlSylH8y1SxMuX5I+HbYsMtFFSoXmemLEybLz/BfzGT1FIMfAWRFz6Xehc1O4MfBesbhRwebNn0x1AnOgRmhflYxxXTzwsne73foBkPTA03L6LoHJsFqg2zvUI6RV6aflsnZ3u60j3dGB1ByI76xgA82u8LwUSFiDU5wXa7SbaKpnznIhGrc6qj42B4af3gCU6R+Gb71eX156tlttJES/iu8cJEMwn2dsUg7FIq6+9QtONzAEMIgBnXU7HSwXgy42aiy50rxQDPgYyoq0akn6jU6U76MC+j7Zklc5TL3L0713vetdRg0AICLHOYhydoIQJBYVzDg8uA1LyZ0UBQQEnvGFMxvNZw2JAPR8ha1f4q8M+Cln3m4lbg3gez/0qk6e6bhVN7RPy7jEpLbXsFL7+0JYnbWLQ3rMwCEYiKKvU0RDjUCAiDVVgSzEQ1mXMS4z/ftu4LoLQmKtB+M2/+Tdf7QyGfsayinJpaxwbZdm8NyFdnsFry7eASopaiuFSivh+aXOv6/BY173whS88ivuAbfJF0M8yin6MWb9bxYCXFsT1u+/PxmkBW+0BCGsI9UObq+jNVfQPxFeYp1+Pmuar0xY8n1NadM0Czfq/kYaV2XWUGLu+49UBZ+gk6uUa/bptetBDosPpkMLn1QJ86Id+6NWKInpUfxbocdbUrYlOrS5vzqWr6GJjZKyKILR7pBqE1QFPAkDQbykGPEuHkwNGd20eGWIb6B46WhsAmOvY2OUDumoBAluLhxfcAnDALaAD/NeOsYjKrvweOyl2sV3T+rEwfRMeIzexQm011m/l3uqE6ujdBaoBNNDW9/d9f11bGz/1Uz915PR4xauwGLgGEDLq+rxF++KLSKTYSm1EDBX/9b17OoDpZS972dW6zzNhV2HdSyHf5PczQDBm4yxy0P759dduVkJr0iNqLmqriEPphw3rrYGA7GtPhT+wxFOMaaJZ0RTLHDHqbSuep6Id0LOvRRA+/uM//modcb8VQUlp1OfGGC/alYxnjB9VwVPYFDFF3Su+1Z7oDN5sripSDCCcDcdNeOE2r9WvQr9FEKLRAtLmG82SEUtmAQlyJUqgvqixA67xT+cAdH/yHS9GT5EayoyiEdYEvCkiqbU+Wypp18vuqb1v+qZvOnLv9Ycs3yb9nqptSlXklOHqdUPGIltdT2c1nuaGp0bO0KjPzUF0wMOKDxnbjbh4fwbDl6QNoBwPNCZFvB3jbLMwUd50efLXX+PsnvjMrrh0vpC7tB5g1T1rD0S+0m/aiM+qz9p9EJZ+dNY6e5ekx93aWnDSvJRiCERxTkRT2MPsVXQAvqJTxekKcYFARl0UQiq++2ojWRF1iVdKc0UvQKTnSzFo0+6JPSt6OhjRKoZ0oFQWPtYP46ytntV1B9j5X//rfx01CBQARVHHe0jKuT/M3/dyYzFADULA/bZRgt5DSV23RYLalLvZMAfBwCD6F6GuAxW1nVIrnF6ISptnT/S2GMoErZK0DCjDV0TDMs1z9GAniNe2yHKNOW8EXXY8SzMotvbaBS6AsIK1YOO2aPJUAgcF80yKIHSKIvpRQgoR0ZdxQjNAjIIGOggdhaYvS8sVUEZWigE/rxewyupR02z7Xz86kroIQkIOFDE0+1r/GzNAuQaHt4JGxtrnjURoQ4ETxbhRifWIVGuT021PX7XRWQPJhggP/tYnz7gJvc3r8gKgSAmay/Xu8ZDIQM80dtdFg6c//elHwWFKNAVse2UpwhR9ijvdmSMVT1VvlKGgA4wfbeqfCC7jeTdwsIp827kXjfY+PIK+xhkwCCD0+xaokj/pO14pvto5PtP9PJdrD9iU7ole8ULbb5tDHrSxrbG+13gv+ftGPSxzXEC3tpFTKLJCzvAXWuLBtZn0Mj219kBE5gxcgRHtA+jkvr6r79O+qDO9h4/0zfMPHvy5n/u5X0B4CtrnZSpgoIFBzhvWXiFHvDPC7po1kDwJ4GGFg5FQ4KRNHrLQPeQfsmu9suuAkdtE4Wcm5DnwDkKOecfPfe5zryqFGZ9VUoqcKNX6bKI9Y78jOMZKmaHvApVSDIXFKMmd40sK0f22tYbZHKUYKtoyjsZH6awyQju8QWEtTbW5PI0uXUdhMWrLywHfF73oRYc3u4ALMHmcwEp/og2AkHHq+x1zfccfjZvhoYh8Z9OyjeTgEYpCKHy9TbRgHJY2Z2Cr7WSVI8HY1q9Oc6wYDt8vMDFXDwIS8BFdswoerVau0Mb1bVDE8CfDgdfOCvmQD/mQw7MDBhrDWXeufutZlPAP//AP3/nO7/zOY7v3H/uxH7s6o2Cdi4yyfV/q3wKmNY74cMf1VPK3enzBTl5iY8+zfP/3f/8jxP+rftWvuoqgmYOlz8oaQ4I/REVFI7rP0vJ0O8B/bgNAKLXRWQxk9EkACGSCvvgbf+NvXB33vHqXs7NOBRlZe7q6WUi/Z5Bb9rV7FlygRfdbNeSZ+tHryuUCODqwZy3IAA5XTyxoObZa7iaFCRqqo6tEtnDJchzVphQ14929u8zKCoJFMhQGb5+ibpCbR3YdRCu0x0vs94SvMH4hYgblLFz3a8Ae5LpFfgx74y9c3VkL9d2hJedc3E6GkFICpP6CsPAyIEMTe1YSZ1BXVOW8k+LjQuKQ6kYQUrYBBBGEcySkeVwP2GcRGvygbXwErGkPMEHHrpeWAW77rXMO+p4QLVA5I+wH4ZUHvWfntT0j2qI4Y8WQ4IvdIVG4fCugybecMbqsZ0dxLc3kLClA/QEQgIFdbQS8k2dKyLMCCPEnr+sM5h+E3tqmiM3jRgh6f46gkLNSe8961rOOpcgf93Efd+wgSCHzvNEcfc4ghmySbXPD2HTewvd+7/feaSfJf/kv/+WxQZe5sjpr5V/fFtT0zH3uvWSag1EfpJSWL4pIOcm059Bj9Giv55VmnMauZwPO+hkYWG/4bDfqe8DovFHS6kbyDZQ8qBzd9L417o1FBGHnlAyYu2htwzCF+OucMOT0IKMNXC6IWL4gJ8ACOSV7O2/ktGvPe8AsL+BVvERv6tOxDwIvZJG+ye8Gk74diwAEWmM8gV32Y0LXY15l3nuMitEitDZ2Qin3+uGEuEJ3nZv+tre97Wo//vq13jgjelPmuJ/rgQPKgxf0MR/zMceJbPLEq1B3EoRdIVTt+EzAKKWlOQWFnvrrWdGpqIpljhTNbdLjXjTT5x13KYaP/diPvQrpnr2ljXroOwV2Bg/oj+9WoZgrNF3PCA2LZCSI8u/Ard/vpYjvNf6H+b1nJ+ztGfHH//gfv/JkyUs02bQMRXTOja98rJGTmjrTv89Cpmu0F6RSblsYzCBSPhQTEN9GZm984xuvHIJL8ufZKO+YjQWtem6eczsGtjlQy9gss6YHKfOzsb6OH87ytQbA/Een+LBowr/9t//2zjd8wzfcectb3nJlmIErhmVBCd24Sv1ufFVfuj49ZPlhbcbfpWUDmZ/8yZ985w/8gT9wbIh03vyJs3IuVNQf9FhgzmCiGXlbmVxj2Fh7bgChKMvqQLL/uADC0rUxWuYIOOnfRsvNP/2yOooOYg9XH6KTNpdGbORG7KQK6Lyu3421+r62AFwysW00PjaF062N4/md5kiRMFxrzPy2nomwP+TCK9mQhklGuAUhy1QEwXMahDAgAYBOtSE60UD/yl/5K3f+0l/6S4fH3X9hM8WTD6OM7/deChMgiTYVsQjXKdwhUJhmJ5ViRk9eEK9HX9B3PRM0oowJEuEMIFjF0HeQ5aNG4gte9I3SSTHYKAk9CVCf5d8IV/yGNjyT8zycFcp13h7DiR/rV3sM/MiP/MhVRG3BK8HXj/vlkUtct4ol8Fn1f+FvBoSnbK0++XPfznfjsCyYJ7qh97PXc1aSazS1y+h6Ncc9i/wCBkLzFSh+/dd//budw7CRvwehG77pXjJZH0RIFUPW70Lr0fD3/b7fd+fTPu3TDv1BWa6DRGb8tgCAHF8HblbRn8eCboBL7RQJDSx3kmN6ZJX9OUqxjhfZvw74o79ts3m2dMgznvGMY2fXilL727RdzwSW66ffuu4MGBgr90gTogGHZ3W5MfRbNQilGDqLAS2fhBTDGtDe52xFM+OlixoDR5ojK1K14Pqs31aWzB/7uw7Nrjrwuz6cI1uegV8XyF/Hp2y0562NOAACA9+ACNWiXoKNCPJK59wiAwe19GDva29RZu/7V72/ggbh9Dx5UO8NIsK2E9tXfuVXXlVcCsfsRhsMxYMom/u9R3+BnHa5a7/8/hJIxmmjGto+gyyCyCjuhGJAhWA8MrQFIBadttVyTI2p9rf7Hd8lrlsDvQCh/thqmbJkJFYJAgQUDf7cDbPUpfQsaHg9sLPiIQg7B53dUR50ve6zUD0ugKCfbbQTQPhlv+yXXVXPN2Yh/PorwoJHGEyAXNhx70H3TTGgn98o+HUiNtRMya3SAXg9CwDpkK6/83f+zhV7UWg35bfzfIh4OAeAF70HfaXkixiUrqnokOwuGOBxXTf/99IrT8UjCw48g/MTbVqq3UmvbSTVfAEKC/A9nzFY5X4GsmRv+9T79Eiphepu1vjXNj0BeJJNcnWOFJnT7ou3nDfB+SGnjCeQoZ6juSoSXARhIyMLyhbk3pRHHuZ6vF4bIghotACCs8Ke1l/7QzDSdB+bKpW0wFRK7jp7yonvN2c2bP/MvWgEuTWPzQdedw27hAcAjqNP//W//tfjsKatPt4TxHZgFC/vAyGErhbJqNj10IhlVUTXCbEBCLvDFm+G99ZnQhqyFi5rP/p3vvOddyoqgoAfNRPxTqoxiNDt2f6a17zm8Hobrw2logOhNEm8N14fQbZREsCDKTCjZX8mve+7VijJ517bR74IgqVu6zU/jNA86L2YvtfGGX1SDBWB9acuYI09Y7dGB1+eV99QojyYnpGnWHuW+ODvBSCWDL361a++87f/9t++Gt5ZAT9q/lo6U/CFwzOubbRjrhsfr3CVBHrgrejSdZY8qomJd+MfikcBpPHb7XBBVb9139YdMMJ7XPCCtAWzFSi27t2feT4bsus8Y/pgFTUgQrdY6gkUNf8tM67Isx0cN2Kwkcyerw93e/aD8r/7zAtl3Wc7UIp2tAy0ImM1X11bn7vOWJsvXixDsQBhja35ilean1ILpUGTK0vHzRV7QGdZQXYGmFa32MSsZ1viCgT0nUOdak8xerLe+/66p1qkf/yP//GVM7Nz/DhA+c4VmpYS+4AP+ICrlXJdwx5K8eHJ+twYbYnOBtBNwBJdtrRl+ziFXtnc2sjuZQt7r7D6fAwBue8ZeKf+SUsCgtroOT0bLx47KfZjNzdJMUgM2iujLWzUa9faLlUEwXVqA7qO4t4IAs8EKu43z1qmwjie1fW7zKPn/eW//JePUwr76zoFlTzNRU63JeQYWPSjSuCYvCKn+mx/CICIcGwfz7SNiaITuiyaXKPY9yIwfY9J0QM6LIJQ5a18KwX/qA3dKi99oIzaq+E3/sbfeBgna4DRBSg9G350wcyuI4Q8k56Bz1KKAB3+ZhRFqt7whjfcaVMrgAt4e9T0us4AUSgV0hUWfr/3e7+rolwgEm9R8HhkFVm0VeQJiEVPJ+vJQ/OIeI3mYD9rv/sZk/pgXfd6vQAM4Fv0781vfvO77eaGx89e8Jkea8B3bnpP3pIha+17DbwX3fuET/iEdzv8bL0y4ED79MjDAoLr+q/f1xl2iv3f/Jt/c+i6ihrTJ/g6OgnBA3Er2/p//s18BS4Dw/FQ12y7DMjK0kYQoskWrTf3DGH3AtvLZ1YxNK6tARFhrZYMQOBArSf+uAECWlfwbatl0UzRFPJCBwN9oinpkrUBjVM6fPdBUF8nlU7uN5oXbdKV3S8y13VSSGu7RfylmZoXc1BfN4LQb6I9hw3pLAaGHhKFXjCX7yGj3eSjaxgn1xuQYhoCQCAopQUjQlRdeyY4T7vv+//+7//+I7VQkY1J8oz6uO8vLdh3U1SNrbMW2stfVARAgLIbhzTAhs68J+DCUL0K0a3CXE8R4+49G5YMIASkCPgK3W3TZtu/bk7MdZXs7Rex0QXIdudzlZ62N2rFmFNgoWvRp03LeO9enmv8+M3f/M1HysPOnOh/VuaPknbkjjDHT4U6A6Q7BvRbhcLT5M011uhOwfMkNholgre0pQMAfoY/+tAf28/a2ALPfluwkHIrTdKyv533mwAxMkFxSnUYsznMeWh76t//+3//EXUBCM46Yz1W83tp5+Juhq4+AyN7Te/zFItqVWsF8DY36/UJWZ9Bg7aiRZG0Iq5FoP7wH/7Dx4odxpjOOvP56hXzhC/oEoCPZ7yh6o04iV6iO8PUM9OV1W2VYth5WFo8Sr2+8k1n910RhOgn4kYme129vE6QOQHe1wbsaj/eO+dn2zMv2gUQAvUrp55lDnb+rJKrr2oaakdkVtvs86F7f+ZnfuaoQRACMnCGv0aFTrqOt957Z1QTyDpq1zQgA7KMuWKClLbwMjTbs3hsS8SesYU6Pbs2vuiLvuio/PUHiSEs9E1h3UTpPIjir/3OWCh/Hb2iS2gN4j+PY/vHAFLgZyVBQBYg+A5wAjAwK6XfHOR9tCFNf/WtOQqhAlYPMt4HuQfzGa95jU6dOV/1uAjVdfNoLhkZfYgW2o63LCdtDiDl3kcToVonreFNfBu9Ap/1ZxXlztfjUlIMiLn+2q/92uOkvfq59Op91wg1SrF0P6UR7QAEYGkVHC+eQukZwBbDz1BpE6CT5orW3RO9SrXVFh3Td20gFMhvmd8++355a+cEL68+kd7rmdUafMEXfMFVXQZDxhBdGgTc7xj2uuVjc42m9S8D30qtCvnakRbw1fetCdh2FyDGC6USPvADP/DYEKlVC7z95ovBx+MLCEQs7Ki4NOMYLj0XGACXZ91mDoGb0qEVKfY9r1sk1LWPeq4WYKVHvuIrvuLYMh+4oZf00/WclaXJWZfTZclGqS+2lg20kqoxi9qRt9oSNafv+27Tfd3D1qKpKIZoh7kBrutv7aUfDueoFEOK0SSdPQRGaPMni3DqFKRe4zwuCKXfISaDExKJEAoKGfm+a+CQ0aLRkHSVzx2PCj0jHoXe691Q+oMI7v3cUx8arx0mKVGImVHUt2i6oAXTR/u9llBQaGcmJLQbefDsGCGGNleY7lGBpjPdzAlEC4gyHsLCeIXSWUNN2AAhaJkiZSiENqv27zTL2rBVd89FF30hRABoOerl2ycBINRHSL/Xljm+4AUvOJSp+oD1JIQQ15OX4hNh6frr9ivBt8LC0UKKb9vr++hJefWZ3NcndQx4geGpjeb98z7v846Dijxv5fZeoB5/mBvztdHNdjrMmWg+lzeWN+9mcM58dz964EGvuW6sxic6Qq9WmF2E6+1vf/sVMI6PhZbPkQi6xjPICl1i/s/GmwEESPVnDdQZGGjbs6L5Xr/AY50a70U5+my8D0rTS92nzwzpGmDjpYfo7l6v0+V4tLY2Mtn3Fcu2mguQr81kKUPd9SunGwXsml3VR05F9vSFDuQkuYfN3qzBRluf9vM///PHRkkYq0k9K5z1VBkangLPf8OHDShBld9FDEZgw5q17XudBFYoHEooT7iwJAJ3nQm8FEPctJ362IS1nWoh34226DfFdy+ld3723ZSXMS8oYhz6zgQzCP1GcTIyN+3LTely3VgAJILUOIArPHc3T+hugANoMB7eb+0+73nPOzbiid/ylPDj1i+cgW+0Kt2xhmeVxBqxh6XJTe43v8BgxrV8ur6pxeiVMmMU6/OGJkVMKKFowNNcY70gaXmNt0Hmye2GMwE9hkZ6sHuT29b/v+QlL3m37YxvwpPGXX+LVBSti+9XkVcs3KFDACBH6FEa/5vM8VNdaw57jZdf+tKX3mnDpeV7srS6mBMRINtceFtFK0TDJwsu7rff1+mo1clnmb+bHMcX9a8USK8LOpf37qYT77e/N72Oral/6Y/4zPvVPcb5VDr7urGL0lSDVS2W+1cOyauo4Nb+rU7jNPfKDi0dV/dLe5MXTrv0Qu0e+vmnf/qnf8FDoJctUuyGbg7JNJg66QAXiqLfVOtjTmFcBrSHKcQAIBgKgMDAeJU632v1Bn/0j/7RO9/3fd935NIUWT0JAKFJiE71mwfVd+vZN1Yo/X6Z9DqFyahiTm1tSG8jF5Q8JL+g5X77cYnr1rACdrWrmv4cDXmQZxIwv9LuAAAgAElEQVQuNCpt0QEwPdvKj8ZP0NBM9Kd+ZWQyXHloFOaTABDWECSvbejUKgAh38aiStl4VTYDDWSGPMejFAM+iQZWJammby7Wq1iAsCB+AYWlbj3DypTuS0Yy6G9961uPsP+mOG6i/PHThsHrZ8az3Q/LsXdCKH4HVHYuH4THHsc9Cw7o0x/6oR86cvbtxlikJLqmF+np+rnROlFIfCQEvnO5nvD9jPNugG713P2APvYAyJXOMsfkGWi/n75d6ho8vRGBjapc5whdBwTu1h8RnnaSbT7NW98n52ztRvCiU38KEUWZ6IB0vQge3um7+CP56I+dIj/6URvpSgcFHlst96WQJELwOvueh98ELVgQCTCBwqBrHDesKW+2ORPRCUqkzjNmgEOfW9bVSV+KGc/K+1IMcdN2GjuPVOjHhDU5CH/Tdp/q+us8oDV2qmAJnFDYzsv9CO4l+0wx4y/g8KyUzP1Nnq1tKB7diyAUthNKF/1a75P3y5DUn7Yx/q7v+q53O0SIstrQ6E36eIlrV0l1LkArGYyJAdA/4V1KY3OPjPZGG9aAbjSx+/qzKgkg6DvPXt0hcsA4UVB95pX0vkPVAjgLHG9CI8ai160vyTOuhqSiRDxGvwEgD/rMm/TvktcuX9cuPdvGSp3q+Y53vONqFcLZkzV2q3Sas/TVLmOtzUvqg23rXqAP4MFzffb+nB65JE3vty39Sy/1Lz15N2BwEzou4GmjuFZxiODj601FmPcFCOwzOd1UEV45p50WSGiTjei57MShSwIIBDfGAQIYOUIG2QhdSA3wOCxX0Yb85YY510sR3hJyBCRWEUM5nRtfzrW+8ZLWk77fyb6N6yi+Jght5KmWdozWvQRm+3gds10nfBtFgQjR50kwbPcCO4yacWyE4X7n7Ayaaus5z3nOnVZx9AcsdZ3qemDEvAELpSVaGrpgWfuPy7hQJsKLvbZOPoNI5gi2tF99FU0C8tEWIK/dTQH2+Qw6Foxb4UCRi/xs//qOPK8hbx4Yqtb3/82/+TffrcDyJsqV8us12bOlecV3nYGyXifwh5ce1xzeLy/f6zpR2vj2X/2rf3Xs6dB5DhuxXKet79Fg9YJ24g0prIfVTws2tHWvNvHp9vkmIONe9HrY34Fd9DXG1buecbex3o238WLRrpyZdbI3Xc0WbpogWcrOkvv6wOFSF1h70rdsMoBAb+jDyvBVEWzHPfcDw8KoURyYR2NdJzzFcyCsPP5ziGnDF5R17cl7apOCpqQCHf/u3/27O3/sj/2xYxtSXhEv5boJelhmuOn9+oB5hGzPSO5BlNJ1zPZUSnSNpPfXhfsepC83pcv9Xn+ewweZ07OnoY2P+IiPODaKYujPIEIhz0Y14sHXv/71x5IycykMu4rhfsd3qesATHNXnzKyz372s98tqoYP0URkYI1B9KFcyD3wzjEAJPoeCOg37xtXn7Xv826wA8wAgJRWn9tptC2tV+/chFZ0RPeoh/qcz/mcY6mxqCT5WRl4TwMJd5NVPBvQe9Ob3nQUbzMG+BWwY+AWKDE0jMKD8vZNddR5jt2/xnff73zdhD8uee3KFMC9474fYHsdndYxkmJYvmb4ySYgRa52v6At6qT/2HV1XfrJqe2eBXRottGEp/3ET/zEsYohBF6+IybqfTdbAhPDOYa0ZTKtJug6u2/ZyVCOsYGV77C7oPqEPtd2f3V6Q39bdWkJVuGccpUt7fnxH//xq22bgRWEeNwGjwBSpmcAgznuh5EelLGXKa5Lv+ykY8wHfdaD3LdzdBYu3gugWf/v5XWc+3BdBCGA8Of+3J878rItI6rAKD4rZxvI7XM8HN/Gmxma+LOIVTvMbWSh9m9z/u5FU4qcEehzHkc7UDLSyUsy3PwWWagOoLEni/Xd9soLECgk9N76BMtGay861dYCAp6p9Ea0Vd+h3kjIVIoCrT/lUz7lapMYY3vQOU9/VXfw1V/91XfaRAogEO1Yg3OWxZs+817zdFu/n/mbse/7xtlqnd0xdUP2q/jJFhoBGgDlbfX/bu2e9YIldq5/EuYHiD07fQ9LqzXgnRxavRT5jg7xdXopGqWzkt+NDgIIdHt8kJym27qve3pGOiG5O9tkUQLgXoFiurKNqw7Q4SyGzVn2wA1JigxsOkCYYsOREA7vg/JBWCFdz+reCOG+Xcoh7dFOYl/2ZV92HOXcMxdNPewEve/+9z4K8LQbWSkGEQRC1O/4TD0LwASwtgd+PEc48X/8/CARjktSmVwmzJ/xGZ9xhJfPRs8YG18yZylx/TAGKTF02d94HNFJoWNt7NpuRp0M0wNknYGqnxRRvxUJbK27+olzhMtYdkwbDQPUdi5SfIGDD/uwD/t/gOWTYGAuOf/rUUcLm9TlpH3pl37pcT4NGm3aYOf5NvrzvjYfnALNTSunAgicZ7aWl8+mbipeFJCMrSyeI30AIP210Qk6k8xuFPwKIOzwFk1CeLzkHqDT6guEq7YYggK5LmxR+93T9XbwEkHg6VjqAiAUQVjl8ODT8b4735spgF/jsSIIGY4FlbzJs1e5Idcf/dEfPQxvS/GA2g0HPo5IAm8jg+Cck1/za37NUWOh/qd51bdzeJKXQNEwLBu9YUx5mQuG/GbPffRSSa1Ql34QVeg149UqpE5urPiz5Xk9N8WWF0SP6Ms5zVHf/baedNcFDl7xilfc+dzP/dyrXCsHB59fF7J+T5eB1cved1z0l3/5lx/0XiCxIOlxA9z3dLpfsv+rq1rmWCF+8wO8cwZ65kbF1FDZSoBBrz1pf5G+c4QGkD8DBJ97Tu0l38e9bZRUB4QXNuxv//5u0umus+uW3J/ObIpBnmQNv5DfGSBATaIJq7zaaS2mb5+BBnHpMM8lJ/x9bT1ZFFiAwIMCSqXQFLcxIvFYIbkq4f/9v//3V/tHbGTicQAE0bOUg1Uq7Qmf19FphJYmA+aKmpI5IByAF8bsmndTBk972jGBruu+ZL3xlr7ImK+yilY2NePN1l7fOwMhuS0iE5BpU6TaBAzs7KdCnNdDWTWWrgVqeob+GleeV/oBSALkaoMx3Ll7sjj04XrDYZJuaC5KNXQSpHna6NiTEAF7uBG/d929UbJSDAEE0XS2biP0jX7t6RYpJg8LEDhFAIf26BHFjD5vhKHfeu7hKHQWA8TdxYS0jogayKkTNB2DThj+jRqcN0Pq2o1C9HCDlYo4FzXVr6p0K1JsA42NbLx3scr7RnMpCqyH9NznPvfYKIliPIfBgQJ59/V6SzF0kJAK4PXILtXXh2knWcjYtnGYOgT528ZBFo0RKO+1/4x98qYweL3sjQRueF90gLJZR+F8T9d+93d/950Ot+mgIbnujeash6/P1RI885nPPLYu7zjrIgTVNYiapDPqewDk6U9/+nEA0y/5Jb/k1k9ffJi5uvS95+iBFFg0/I//8T8e4LaIK0VPf98tqnDp/r2vvZtTYFMM51A/B77vpUXjgd1fRBqP4Rf5pAeA7V3uDBycATS+OcDlu971rmMnRSef9T7F09+eGU9R9puih62WjQkVJHUvgFBHnVglHAkQ7FIoIUsoCWgpxdC69GoQgAoexc2n4X13vDdSACg4560DCHlUvMmNEpw9XkjbrouBg4DpOXf3uOhHyTPwFVj23Rd/8RffedGLXnR4+AxFYznLH7lCC5shiTSIHK4HsyFOSqN2hPtFZXiyPVcRYsCg1SDJfLpDQbOC5z3Ftb3t27egMGuHKQER+iYFYX4pvZ5PR7nmbkBuw+yPaw4v/dzmjJNlw7Ho+9f+2l87VrjYwE6F++OIfF16zO9N7S343p0UkxeyJNRvo6StKeo65+ucAcI649J453NXyO06B6J02doDIHRYU0RP2HhYOiMXmfDVsa6RYujVfYqaCK5Qx9Yq9LDacx9jz3PYaMKmGEQQWufbH7TzPmZ/bxKVy41lIwjtpPhn/syfORoHSnuVpoKyGVb5t/i5nPmLX/ziw+CtAXxcfEeIja8+5lk3xvbmN0ZyypOQ/uP9AxgMipylyGHjI88LBDZ6yLhvikEaMiBfAWKFiP3VLqdCoWNtFSUIwD3/+c8/ogCiEp4jminCIYxuHLwq3rRnmdvLcdST2RI+RJf1BjvMqf0gOtBuPUg88rh4+Mmk5OPr1abAiiAkxwD6GSBsbUH2uT+HNQHy3SM9t0Zf9G43KAT4yc86WVvvc9QgCMFq6DrlYmmh/CEvpY4y6PJdUMjmRRbtSjdQSrybBQtymdUgdIJWITPeD6Dw+Kb2fU9+EimwxiVe+aiP+qgjgoD5t/iu/m8ES5GdZXqFsCt+q+p+hWcByOOgAU+YQUjo89bf7/3e7zDETurkfZOVVSLJlm2XXbehf0CeMWZQgCy1RyIDPbM2A/OldIr6KaACZCi0ThDsHIEU4q/4Fb/iymGgg9aIGePWE6ziQ//3xujA/fAWfX0dzTqHomWPIiwAl2vvp/33XXO7FFi9AiCwhSLoagFsvicyIHoWWN/IoUgj3YZHet2dj7ew0T3btqjT1SqG66of94bdu9v+79D9ev+EWnubOlC7QGkBEgsQvJey+Nf/+l8fKYa2E+UlvI/Jb5dx31Nbx6+AagAhg4WXVMczRlu0Fy8yjAlXvPq6173uOP9d1IG3Bmg8SjrxBNcY9L6xdXDTy172suO92gI1B4r5AKKuSTYVIAMOK4vrlWoHkKDU1DH0OSUVOGjr5B/4gR84IhsUnFUPtdlucZ//+Z9/7FkAfNTuelLmBihZcHKdY7DA4lHOx5PwrDNA8Lk5zbEqitCx2hyvM+88CWP4/70PnJo2Sqrg+BzpE3kX1d/UQcB8UwwiCLUpnc9mXhfV58BLz5F72YSDX9pqeRveEP6GYHf3RAeC7EoFBV46tB6MPC6FzBNpsBQEkLGKrPt+8Ad/8FiT/r4ixf/fRene4z8DhMLvAQRh9Y0gEESh7fi79woWu/Ztb3vbsbYc4FiP9VGHaXn4PMGV2Yr5Xvva1x6bQW2x4BavkavG1/e2PN5wIk9CWqJ7gCpyTZnoTx5qhXFtLFWUz/OFLntWqyza4TCAUK2Ev01rbKpAROCcPjiDh/9fIwcrCWcaAQHNb/UpHeYE/G4I+t7S9L4rHgUF2NsKjS1zZHfJZjJlLxMRtOYygCCCsOl8aUKrAvsMIKTn8IGFCI1Tam4jF4feK8VQB+yaVkOKFHczFSkG4UkpBp1REW3HxT1yOI+iZ+z2rpY2yadsfYIcaJ3NIymCcEbCj1pBPwpmed8zHo4ChIfhKcddDQJe2bX68a8wHC+569qBsF3E+i1efuUrX3lErwgy4/mo+U8EQT/WM0gmX/WqV915wQtecPS58TeOiomTMykBAKp7z/u477gY+dpVq9Dz+1wtUPKcvohunSpYBCNFVd1Gz7XjYs+pvuDVr3718T0vSESGcVsjdzZ+6/XeCxDcrZ2H46r3rLujAUBbHciXfMmXHLyLB7a6/VHz8HsWJW+/tyJnPalljp3myHlWD8WIAwhbi5N8n4uTgXwRhNpxyrDdTHve1iqsTvEb+3wsc+T9b4iqm3j1/5e9O326bb3K+v+cv8ASLMFYCkpQiQg2UfIGRFoJGg2JNNEgAWliIaBEsQELUbHKhiobkApGxEq0MCIKKio2SIgRBAUiKQRiQVRKMJAEFERe5FffaT7P7zrTtffZZ7cn++xdtWutZ80572bcY1zjGuNuJgAFEvZDX8ogLFsByBTWpwUS0p/SKFJhu0iqKYZe8yyDoI1PBBb3fngf1fBUk8AShHS2KYac065tEYXKIIio6WqGGEHgbHpJ2L/8l//yyHStQ3sQfT87wP5mS0XnX/RFX3Q0SxRguo9DRogQBGcMBDpIVdc4EWU7nGl3NVVWpL2FVa973esO2ZjX9Nzznve8I3PQ+ojapD2b0dndB48c/K1r1SVZIXZwNhLYi6siuJv5ufVaHt15ryWApLWLwVHLsIgTb1x3ioH97BTDjTII/CWSaDeishFKxIIdX2PH//k//+fY5kiputFKaMxCJygl4mAhQ4DgGaxIOlfqAgDtyWtnAoKoIAj9jSCUvgQyj8jBvVbbd87y6euuQYggWIPA8dFjxNenxXARYDr2yle+8urLv/zLrxfImi5LQsiwKPd+S4091K/OBGj3QNMN/e39JzIPm5rcDMLON/qu3EvnKsggRi46g6FXsGfT/iFgH/dxH3cs8vTuFQ5q5feg5Ha/x+l+1bcZAQFeaeveLZIzkUXYyPV+te1RPZclALNagxDZPk8Lwhm2wmf23PkchLXl9eNsbgOoJQR+F1zYdHDU+WM/9mNvL2oCCl3scJIa0l7rDLzURMd3dp+0Y0rm3dhOTROV9awUZ5U7yc19VeyMdxGcVGgd3/ngXYMgEgR6j5TukQRWAmeC0BoE5yCk33tISPdi5vS2sqwWLi3XATwd9vOyl73ssId0GclQ7/2Kem9Uj/nEIoPmMW2ViiBkb/2eLXbfHvoEBHL0IhbRQ3bf8+f1Ccmra8mlVzX3IiyEHynr74//+I8/ZFZ5FjIn/7VbBOwR2b97NoywCsr6u1eCR+Q4ibP+3r3aH5X0ZCXA5/ZcttvL1/rHliwmzu7ytY2dg5K6xwvROHi7ivo9O8x3w7nKCAd6v0z/dueCBIFdDp1Z0n1HO3rdM2CQEVigZdgWK4kqMmw7FbAcKUbP9PsynipEGOqorALw2hc3VVb/W4PQgTUd2Urxn+xAPLr/6SGBs95GEMogbIpdem6j/80gMJycqzeXfsInfMIx9w5kRWr307k9UZ0i9KbjWouQ7fQMQJGC1P89Rt0Ug77rl/MLpCMrM+DpHRUt3vQCtY162q7VtTIZIpraYTHoRrmPMgh31y7JdheKvv71rz92MzT+MmOPMgh3V+63WxrCnJ0g9/22a/BMESzBkwnaN6bK4q2PZHfK22xEtmwawX2y/oKR4zOCYKHgThlUqJSDdAUiIcIHSrv4UDSyqUgNwVxEc/0OOJSRgOyh7poMQlMM2NUjYLldlXy4nztnEHoXQ7sYLKDlCBnRnoNAMulfc+10tUi6rY69S6ByIqpF0Fj+gwDbjb6R7MCi773AqbRyWwnf+ta3Xi8atH4IQWDDohggUb93t4dFUQKEnitz0IuXko13NfTce7/3e1999Vd/9fVaDfhBtvcr2/Jwa/nNeycaFKS96U1vOl481gvIjCvdfTrL6anQd0FKfs42R8EKO23M2KYMpvVQ63cRifXJNhsgCLKFSwiQhiUW6++v38WgYRvVS0dx6H3KIEgfctoaBkg2hSGCk9YUiSxB2AVUuwZBBqFFisp8KgzuozY89SRwKYPgoCRKX6u97tlRpTvFUCovp2f6ofsD1/bvp4ORAwTifmYQLtW1wMHGIgrPf/7zjxQ/kh5Q7BRDsmCLa/dOOd2TTMOA+qvf3/md33msjM92NwtRtqWdFAHdef0REEIQ7qfcnnpaeu9atFkmDqOpsghCL8xCZunNOZtz71r2qOQbSYBNbAZhs/XZWPecX4zYb2unjbedSAJy/lJGaRcm7vQhIo848s9HIP6Wt7zl2MVgzrKb+m6+o4ICDikM72yo0tYqdH/zkgFE9zZ3obwF2oDItgyAjIzUkI3mliB4myOC8EjVHkngZsYmIu7TUcui53Q6vbXOIP20Xc92PkQifU+n+73fWmHcbob0u7J3kc9hSO94E+L9Hh1ZvT5N59WWz/iMz7hqoWC/WUQMCGr/noOQHa79yS6YYkhG2W73fPqnf/px7oEIVRDR65bbsdDvdjEIGu63TJ6u9XE2HIKx6W2XLVQ0bWvL+tNVTk/Ffu8aBATb21RrL8zabY6bdTedmO/Onq33yx7DrJ7Pd2fHbDT9uEQqs/dw75hR6GVN5goDFvMi54yA6GwXGmEkopfu0QGAQ1lFZAtYCILnRDCmKWpX+6ybVzXf+VQc3EdterASOEemlD6C0Etr0s909dL2odXh7qOnbXVsUU/Ost8iB61n6Jz7sgxOE127eFARGXJioW/tzZZaC/DhH/7hh2Ng4312zcuaZBAQjUZyM4dLqr7xG7/xWPDmHtmYgKdFi2UZlihZPPVgtePpU/slgtDYdxZIx3HT783Enm1HFIlok95mHx4kIX6YRpPsk3XbHPegpOS9J54i/6bfd5EibFv/bcqAvxaUWzdojdJm+8JHOwll94+TFDEUpyypaM8j8J0zN0ci+q9g72mw2FBk4qCknYPEXpCC3cXQd+V3rnsEoXfJe/5BAfHDpJwPU19Wr9YgLFLcqJYjpJsxa4tnEQlp9TII/YssRAh6je4P/dAPXRMNUfT9kOXNMhT1yeLfIoQigOy1rY8vfvGLr377b//t11G9bEq2jiyIKM9OQRqSrUYOvumbvun6SGdvaW0ap4Ne4MY6lfshm0d1/F8JXMLHfuudDJFb48vZr0PxfbF1ycMjzL37WrbyLYNQlhL5bjzyo7J5iBuC0LNh0vldDIiBQD0bbtpx1xlWlnUMO/1wXhx5kIef+ImfOHYxNF0QuOzDpSly7iKOSIDX4fZwQNSnrED3BaYOYDEH2n3dY84Sk5XuTSjmg5dw1FmLFDuUBYDX3kcKe/cV9mEqMd3poKSiJ8ZlEW5G1femxsoSIAj1v2sZYdfLFJSe6zN9+7Iv+7JjER4w5TgZ4/2S35ks+DsgcCJqhxNli7WtlyN90id90uEgsufus7uBHfW3sxMAhdNQu6dtzk0jlMkLAwDRr/k1v+ba+VijlBweZQ/ulzb8//Wc08UIQdMLrQ/ZyH/Hh/5v1EmnrGV4lDW4++OJqFVyBNsWZXhlal+Gvs+N8jn+nfb3sjmZ0MowxSDTsEGSbCGfLDDv+YMgtIuhHzc9Jc3A0HdagdPfMwkQhJ1OAC6ikHMDRHC7tXGPXTbPG0F4lEG4+8r5sJeYvuW8WnG/Sm9KgL6b5tptgMkGU+9ZL0Bqq2NbHiMW3jVivv1mEf7dkPWC/43K276tA8gGf8Nv+A1Xv/N3/s7jNctNBcggIDsbSZANQl997eR4+ctffr012UuYWgD3whe+8LpJQI+zuRt9f1TGrUlggyYp4j6bHut9NvRjo9QlBZtBEoStftDxe63rt9bbh+eu5Nn2YC9rYovnQJrT5nvh0mKQKdOzT/a3cfUMgrBTDfsepeNdDClGLMQZ6hYpSmHsHEdOfBd0bcRfhxyAVCRj65UOyUj0jKkKacrdxUBA1iA0l9oiRZ3YlPLDoyaPenKnEtiUXWXtGgSOC3u+ZsjvWJ+Q3pqr71663/2bestJ9pbHMm5F6BYA3usdNjfSeaAvYhBVIAB7SFkvcwqIOsjoF//iX3zYvIOMdvHTOTBIHi14bDfHHtTSS5h6rXCvbRZhLjF4ZKd3qtG39zy5Iwy9dKz3ZcDhSkUGrHiXRRCknQnCo4zt7Y3FzZ5a0t8ahD/35/7cMS6m2Nmh7J71QHAKgefQK09AvtMPlg6YssierUXI7pEFtisJcOgRgqBgaf8aI53RNaew2eZYBUAXO1nHH4BGJLDNyujvQGk7TiE35bmLpMog9LKmUptSLeq5mfA3ffNkh3aB7akIcrfTpjuRx5OV35O9fyPfJ/vs3r9ykUHoHARRUCBosQ9AzBjoZrooW2YVsEhceq9zEHqBU+RgTzKTFryT9nOytwrGbIuR6xvyk63Vzt2p0TP93rTJh33Yh1190Ad90JFR+Dk/5+cc0y3WVQCq7Py7v/u7j22eyWkPSutApt7/UL1WWcs+Pooy71QTnvzz9Gan1Bqzpmdf9KIXHanmdAOub0bgnCk4EwiL2tSxJMS9u8bhybR+7XYzX7eDc0+m3id7793CKfWSf322zbFrS9YFKE4t3msyCEsQEP4zzlmjhCwsQeD7+6xNCMKhE21zNMXA8Z63J61zAZR7rrdGG1wKaP5qF07s9MUe07qLFD0vg9AUgzUI1kjIJgD0nSbZ9Noqgd8XgD1/CdAoxIL/jcjDjQxmmbh7LrXjrKzLLpcQGYsdsxspuhRV15cl3qoDerIGdCv3r7wXlHY3AQKpr0/kbM5AQr4dlNTirL2+uupoUe3Y8cHA6TRdiOQWNbdq3/2M7YnaeSvyOU8N1F71rB3SSaSZPSAZW5d2Vc557rn7IggdrIQkdH/22L3J6A1veMPVD/7gD15vdeYI/vJf/svH3OmWeTdkcCtyenTPjSWwTpz+tLj0q77qq67e+MY3HljQmEfqwuCwVZYsp8NRiEhh2OLg2WbWsblvcXjJiPJ2SoPemvLrnrXVB6lXa3ec6drkk23nOZDpeWsQYDafudupN7vQfV73zD8sttKBfWZ3JsI+YyTI4LOv/dbP/MzPPG4NAmPfzx08CxZrzKXDG7CZPTuBMlEclYs8NrLrmoxEnSuD0LvmO95VOVZdX2J0ZyFVhimLdeI3U7gzCTiD7plgnKNYzu7suLpvWfbZUa8iXjL/c3nnvynXprsRg1UYSnA/QVZba5vFgsZqx8X3TVWf5XIjORlTBtsahBYWArrAsO8cOh1foPK9e01/yWildzH5QLYdDW151N7qvFv/GjNvTJXhkMHT9343jksS2BYw6DnTD6YbTBHWPzLwStjzdKK+lxHsNNNsvrrf9V3f9Tjnf9d3sM8HCeZ3awzeWctZcrD4IjOESC6+N56N7b/+1//66rWvfe1VUxLd31obrxnu/nQ/p7Qn8olYOfadjoPPSxiWrHJs7LP79pnzFuQzXt6vMdp2WZsEy/tkIzci5TfCcn6lfjbF0LsY7DqAUfBydx0gcDLypjkrbwmFQItP3lkCv9EDfqJnGvPw55iS6nXPKQNGsYNlXUA3Sk107/moZYCMrVRGlQROohCOf1lM1xwHuSkR88Hd2zkIndxmigHY9ew5GlqgJHxOiMMBoPv3Epjt/xKDdbCbvVj21j0MZRVnHeFG/oyFASEzy845oBux2M2cLItfx/M7ln0AACAASURBVLUyP6cK75eRkUF9pezGb/Vnz8BYORu3M9kkF8DS3wx2tzmubJGAJaJ7RoI0LAdKN1eH/8bf+BtXX/mVX3k9J88m7lSe+rF6uJHY6uGuQD6TndXz1ae1s830sR3lA6HuMSdq7jPw+IiP+Ijj/fUcxOrpI4Jwp1pwZ8+vI109MEZKX9vh8NLjptE686LTF//dv/t3B6alB237jSAsyd81OPSEvnJQHNc6WlgFhwU3rX9z9siWDWfvTDK3//T6ETiPwPATcOWJfMhiuXKdg0BmlWEXVb/1XYCDlHv9ejboxEWEju+ujdYj5ePddw6S4I6x6vmjX61B6IvT0jj0Gh6DrGG2SjRgDWDRRiBq+yJWZX6yDvSct0oBWq+n1OjKsJZhFz/tgrHmUL/2a7/2ACkAbRHlAiSAx4QoKYdRmyh2/b10H9Ih9ea+JSNLkCiEupYgdM0cUd9rX9c5aM+4Vjsxc8aqvI2m+23nnFw7kxa/f9u3fdvVD/zAD1ynjPX7foM4B92YnSPz5t/e8z3f88gQcdoi2QWXdYLnPbvADyD2/Lu/+7tfffRHf/T19liZC7LJwNKl6t3yum8zCAhcsqNnGdrnfM7nHOn3Jde3D0H/98mNsIy/9TxksTpd2zbFST9akNiagtrZOxnqqwzIzkOfsyeybfW/+21ltpVKX//AH/gDx7z2rh3S9u3D/dazO5X/w/z82gg7O48P+wn7062yCU3TFaA5ua8xd4hYZOJDPuRDji3F7BPxTJbsRUZZAFU9bKz78illL9opFAmB12xvner9HCNkiwP9Lb/lt1y9y7u8y9FXEbn2nP1LMoblCJAAqd/tBEpGz3jGM65e8IIXXJ9ZkAz27YvnoKrnZRBuRBBkDPkGmYGz/4Mr/Ckff8i+bY7SEgZBOmodlEp2AYP1BBuVANuABNjs/KjGYUPVzRnUUUolWgHc/U6pLCbbxTa7onNBU3nVsakYTtbcy3kAKTbQXselLgrB8atXP8wRycDoe/djeLIuXWNEtcWYbDsoIgKDqfZJ1sozNr1kqC1qIkJjer+BGzidsyS1o0i0xXI7VrviFlNfUuWo4JVfz0v17/OrS8iBdmDjZ4LAeDcjIULiOP/JP/knV3/qT/2p62PJl8jdLoht9EUn6b4xE9G1i6BU/3u913tdve/7vu/Vr/gVv+Lqmc985rGWYP/Rjx/+4R8+pux6w18HkDVtFzB7lXv9qmzHtVbG2vYuRmzF9W/8jb/xqGajj/utV7cr56fTc5tROI8X3YAPHLL7ut7ixk75+xf/4l9cvyEU9pRViET2xt1nP/vZh1gFgnxFdmFKbB0kB1dZPZMttSVzne9OMzyIMZNZ48PKHGZjnKqsCGxHCs5pf7YkAw6H+UkZSGQf+dB/n2tr/MuSL+WtrcJI2Rn+ReB71o+dknjsp3/6p4+DkkSvGiZa6m9R8zEn8Y6tjCJhKe51kgZSxYgHsN3pB3OsHDAWSgEdabup8coBnsjMZhCW2BiYZaSUtMGQxXBfz0rFcDL6jf3u/nB95NA56tpnW+cqy8qrOg0eR8XBmRYw9+xeRKL7ON2NgKsrY+OsvvzLv/zqb/7Nv/m4ucS74chu11g3M0Dn2v+LIGQo/S7LxECND+KzhGjHW5Zgydg6rZUZh78RubES3XRN5NQnQls5jW/zhi0A6x+dZEOr9wxb/avnZ2dufNS90UO/PetZz7p67nOfeyws7A2KkYRLtna2w+4hq/revHPvVfjmb/7mow8BdnVLXbqXbiO6RTadL1HdZQqB2oLXuU8ri9vVnfNzZ2AzBpfuuxv1G7v9vFSn63ern/einJXdJVK3OJSuRhIixK3pKSPFdh0sli6kE0XXG0zKnO6hW0t04Xc611qzb//2b78+BnzXKpHzpTG/F/JR5mY86ldvMY2YL77oL5noU8/CbX7Tc/2t7M3aifIra9d6bKaYL9zXPSerbeuWDZfyZzLxyuBHEBD+qXYeevzmN7/57TVK6rBKA4AKcopc10v1W6DkhUy2XnStlCZACVxbJWtbjYi/aMULnpyXILo7p5aXmMR8+leni3Y6QtZpdxzpdvS6c4899rgz6DljhGgJAieLfHAaznOQjq5s0eY5yu3agqWXU0njcnbkhATtMxgpwoCMcCjVYTAXnJTRc6Lr7uskwU7/Q3IY5/02NAbBeRqD+hVBcFSv/nJGxoPMzHkzys1IVLboxVh4nk4ghJXXONp2a40NgiCD0P1Sb+l74Ng96XffIwmf/MmffKwEN0aiBLrC6Mh+sxdnZyKCW9DJ/qqnyKUX7wTG/dudRAtEbIXD5hxXh+h3/bb4rF0Jf+/v/b0DmNLd/pl63CxjUzeN2fu8z/s87iVP99MxLiFae9+s4iXStGSSEzgTyCU6cGWJ6ZLWe+mcHmTZZLc40femeyMJTTmUPUjeyajP3/bbftvV537u515noQSWgrOe717z5GGqo86zsTIIEQT+BRZeIjD3Szbwo/7Vxle/+tVX7/Ee73H95sS18Q0MzjbYtTCl8mRr+jvb65/TDtOz/Gmy5djDtPAmDJDRS5YIAjwR+MowZseudb831XYdWYAzfuO7rxdg97Img2Yxwzm6WRDmgDh2UUmdPDMoCoGtAG2OFcvZyKvyd3+n1ZQLvgS80w/YprqkqTY65KhrV/ctQeg3LEzKxt7uXYi1mZWNJMiIM+m+QDZys4MEaPVnMwicKOKAdXqGUUjXuY+SIgHaUNmdA5BS7zjdTyA/G7I+cmi1JWfTOgT/OPHGd0nVOvdzBkGfKbznTOVcqpcRL4GjFxmv1yTLaux4I7T9VvRdJiEjR9o2YlX3JYJwTukiE7Vbqj9i8DEf8zHHuQURbBHK9lXZ6jXeS7CUvUSBA7Dup0XBnd3f2pXml02XsYnKqF0tHLa+g0Ndx7qy0qYltHcK8GcdXod2lv0lMqEtZwe4enl2THTs3Lfty/mZB2lrtyvjS+QACUvnSrM3bZkjs3guvYhM5uTf//3f/3ptmTR2RJyDpJOLgWFlz77mNa/5f6amV39ut0938hw/1ecrX/nKY72UdXf8i4B2bXLJqIwoveMTLBbsd4EfDFrcYFvW/NSWxajqRRD4ss1899uuXeNDNsshyNxs/rEGQZq/yvsniuJkAQuA9grcddQWG0rbcqRSIwtY/Sb1RLA71+neiESKU1nrpGUNGGyC3MiT4ycgREJ6u/oNgj4iL4REoQxaZWC7Bo6csMLK6nn1xvhkXaR29EN/e3anRzhFpEDbF5S27SIbyrJssmul/f7O3/k7B/mhnOuU7sRwnsyz2/51FPXzT//pP33MZxv3ZbgrWzJbQsTwRCkyAXRz9XHTcMuyl0QaU8RiHQnSYfqhz/5Vbpmaf/AP/sHx964RQUZX5ku4Gb7r1UHvK+d3/I7fcfW7ftfvOqYRyCIdY6fnMViHdHZ+a4scGRDjGPusX6973esO4vbjP/7j14uDl2CUReiQpJwBwrJlcCjGdO/Zdp0d6q3q1OqT70t82HHlI5PAO8fWS7eaYql/ETtl5OSSdVnKTpvsnRb0w1iujd9Ir/XjTE5utX8P6r4dm20D/ewz/SiL0Bsi6SK86u2hX/iFX3i9yNC03AaFMgh0P/k2JpHsdk/QFbJdXX0QclmCEHluao+jPhOE9aGyT/wVnNefXSewvlYWjJ/sfpi/GQRTnzIXSxC2jJ1KRQj4NQQOaTv7xuNlTRxaA1LE7uU0G8nbO91A5/j656U3UqrABlvhqKu0/xalXCII1WUqwYINjrhOmMPaxX2bTnTELJbEodcWTrZr3Ufgy/DUxfhrY+2wsEMb6rfDRCh95TAQwNTfkZvazel0n0UkySI5IxXV17393j/zzpsl0cZND0kzIwgMWVaoDEJTDMD7QRkbMADWtYdR/Mk/+SevftNv+k3Xi1CTnR0xPWfNCvnVB/Pk3cvxn6cvOAfPIaXpbd/pXPfROeVVZm3oWW3ub69JRoDrQ+X9l//yX45dDTkd0fgSSc6JrjDUJRDGPbAMhF7ykpdc/dbf+luvzxpY57/yu13QXGegj/0G1JNPL/kpm9Cq9vrvX33LNv7qX/2rx1SDKA+JODtwhA1x2HJut/3KokfVKWhwrVRpx7R/7/d+70F6WqTZ1JBj4Mlg211bpWcb20hQU2C/8lf+yoM89F/ktwRnycCZ+NwuEboT2dzOs2cdO5MExLrdBp1w24JXrz9PhulIux7SCVmnja7pP1LQdHbf068IaQshdzprdfRmbbudvt7KM/S6e9OtCELEkTPud44f8e83QQIcgTHID2xA+k1pdj8fIiOPSFSn6L46liBs9js58V1+7ze+rGcRhMU3NtN4mmJ87G1ve9tBEIBwBa7jr6DNKNjupMI+d7vFRvzWGUhTmjNJKJgW8sARdq2Oe42lzADhd9++v8FUB+BeguA+gN29plHWmQCv8wCoqwETNXLotXMjRVMb2FplyiBok8i4T31sULQJ4ei3nQLBQDmFLU9WQ3kIAsUsg5BSyzQ8iOzBOrPN+jCEVkg/5znPedwhIcYqOVsfs1mXXcx4znwxKLIF+O5bkmab440IAjKSLi2RYC/JvbR/df7n//yfjzUCvZrc9BK9XkLAOIHEAktj2xxn7x95v/d7v8eBZffRr43IbwZ0Z1Bdx91zC1TJABFHkIuuixRLrYqI2G+7JVoPkUNoznTrWmd5M1Jwu45TXWyWjVReOPM93/M9x9RP2/TarRE+7DNLzDYK3rZqG5sJOBubyFvnQLRq3zSU5xBhf1fG7fbxVhzY/bhnnbQMZ3r/dV/3dccUZvLh+NOhyH5vJmxMcvzZjuwtuddui7jTte7rmXYxsI8lbb7fj/6e65CZSk9e9apXHeMvkEQcarNsZr8J4mQf2MwShI3s4ffeFxZYpI+QIsOwrd8FNclWhhrh6L4N9GHgEgRlCmL4oePvn/3Znz3WIFBkICjKwv7qTNcCbqudObGNDhZENLxGi5iRhBq6mQcpG+xHVgODI3w7DAC0+wD8OpNdxGXORfs44XVY2JtXZjJ2AAHIz1mKHTTlUfrK4uyQrdqgTAqEkSI6CAmD3PQu5eMwOR/Kx2BNMfztv/23n3JrEABGnxGEdjHQPUoPuJdg9F0GinEiScaHLvsbKJ2nG5aoIlCbQThPm3HQdIxBirgrox0BveGwFHVz+DkVTtiY6zudrJ4W3xZN9b2Fgq0GvxRJ3UtnU/uAYfUsgPWCqr/21/7a47Yal+kIJ0orN01ER0U5O/3VNU6cHJFqgMzWL0WKbEz7PNO97q/e7/qu77r6S3/pLx1kremDpgyywRwQedIhWZPqZTvZG3LddQSyMWZnEaOyEu0m+ezP/uyDKESkWkimjnWa63Du5fjdD+e5BDOset7znndkZAR6Xc/xt+6pN4fCUBldGWCfggRrEP75P//n19monZ+/H327UR36UB/D0l/0i37R9e63rq2drI8QOK/P43cEmoIV8iBfGMafIO8Co8qxGF2mgT/lz9fnIayIAT3lDyUB1occ+OdlTRlCHRLl9qDGSadKh1g4iK0wNIaPSPR8HfeeeWnwGtvv6iJkKcydOtioT+QtNX/OOtTOTb9vml6mYSMw9S4JkprfqAJpqezu3f7Xp2XFSzjsYtgpBgOEga6TSk6AyALJc3ur68xOtx+cEedVBiGlfqpEMtq3BKHI4QM/8AOv53rpWX3vH0LG8aRnjINuMmLGAbD8zfH3N/Lbd6lkdXVfvyOsyIgIwTSFNJzsRM9bhNV7GlrIJY0NeJbkqadP0UOA2nRLi6A2ekLE9elegeUS142e+73/bZf9iq/4ioPwru0l+5xkmZRkWzbBC6B602OHwPQfIaD7os4Fxc1wbYYFEdhI0nM5/zIFyb3T/wJRuNOn79anAPElKPSnzyWmSA3SIIiAJ41F7/zoAJ1IbuRhI+6V461mfe7V+N5JuUsMlNNYlZ3srBVRqv5GnD72Yz/28CmyLN1vLPpuZ5jvrUEog7BBIX1Ymd5JP27nWXX3GZam05sZQHKQ6q7Jwstm9huMoXeCQtf4q814b9DKn7rPFMNOdSNV8EsQRV8RAna0fk4/umasHvtf/+t/HRkE+1kr0I1Yu+hdFGAOHkNxX9cZoU50r5PgRF4cJgEhDLIBCMJGJJVh+4vIeed6z4sUld2gijpqU067ck17bF2Vy7ECy03F6BNCRLgcmsEA5NLMnNOyR6tgMbvKKoKMjSMHnhPhAEkOg5LumDEAzi+CUIq4NvXvQUcwSxA4/ICh1xAzFE6XM0YQRH79LXWJALgm06W/G7Uvs06WQG2j0DNBOBsYwobMiRyLmji8+lgqspfjNM5nANEfjra2Fun++T//549pBZmL+r9O5V45mAV/39mMSLh+J68v+ZIvufrH//gfX0+vJR+Zh0tEJiIVtrzbu73b1Ud91Ecdi1HbR04P1+GzBQDlnjNRWPDrHIfIWI4lDBCErKO/RAREZF0znVkf+311w/g1PpUNA5Emtp/NtlYhx9iuk+0XPWebD9oGb8dJLimAqf2WfMoi5OytCwr3nv/85x87XWCXXQzJMJ1AqJNb/3rWmSLGH/YiDHfS7tt91ljRpwiR15vLnG8QwrFGkr3LApneaF15dJOObBYtnStLx+kLqpYg9J0/5V+UDUe8Z2UD+iXrxkiGbP3V8S4GzhJAB34MgEFYsY0sAHFKUoU60DMbZUgvObq5BlU+R78dAsgbsSnLAkkZCc69Zzai3IHQvjO4biS/Ay2SAFamKYC1PtYHaxC6V8pmQR1DXoe+Eck6gu4BWqZjko9BWwVXXm3tO4KlbPLtWuw+pd7MwoMEqHMGoXFpcVJnkS8QyEbVt80ESacxit0+JdoH2uSwoM6Jn4nFeQ0CJyQq2ExDZWDtHIH2+rvnO1egVCviS6e03YLg/n7Zy1527CNHdOih8Ud4bhfonuxzoqYNFvot3exFVb0CWluXeCEUq5fAKFnmHCIKbduMNET81bUOQbS1urpkL9CrDe0eaTpBVghISuvCsXYjNO3zC3/hL7zqHR2dOtlis85vYTc92/1NTXTqZOSjKYveZNm6kqaM6I9M4cqnMSpz8tKXvvSYh6+vdI8ts/kHaYNPVhfO9xtjOh8RaAEoPE72rSkqG1bQk8zY6WLUrptqPJumat3I4tdTJYMAm8ogtA6F7sMHmEMG8KN+5ejrx0bvPb8ZBFk15cGIPq0nqEyBX88iwxtICtqREphTucqkw/zuktnu2yz8cZLiFkIZemgjH45Pg5GAdU4V3n1bSdcJ1ycgWGZ9FtB2iAMWvclYaN+ZpIhoLjG8c5Zg0ypASX0GY8FKZHWOtESemwaXXnNNxN+nuSRyrr/LVve7MQGk58zNkiqkgYJ86Zd+6RHNYuXaf6cgcbvPnwlCstlzEMgV+FzKBK08NtpcgoAQyvasnM/Ol7HWFkaErNHvXY9ArzhvY8W4keiAsui2xVx2p1QeAghkSk9HEJBsDhcpWNJ6u3J/Ms/RM7igfrbSC3zaytbiP8R4p8Ts/hBxF01lF0t4c8xNK338x3/8sdAxfRWoXCJJCFxt6fvLX/7yq6//+q8/Iiw6hWT3fO1Jfr3RszM2Ooo6YM9h0QU4AqOWRK9eBfJvetObjq2RZSq+5Vu+5QBnUSKsMm6Rnvr2h//wHz4coylJetP995vwPZnxv3Tv6gSnbZxam9Ir0OsXu/kFv+AXHFusyxatLcK5yuOo2ESEIoLgGpw7+4877cvtPE83EATyWFzZSP6M5WfdOvf/jFPr8xZf+JCedyjcBq3s8Zy1rAzB1cqdzrLxPrtPQuDYxVChKXLp0gw1IzJ/2jVgrRKGL0rg7DA/EVZlMcJAo60xMWxMatMqGPkyMpkD9VZWxto8H8ARneyq9spfoycEAlpHjZhsxEpInNPOO1aGaQBv2wIQWGJtqjxnZSMICAfm5jnTIxSh51qkZuX1WaGB1zoOCrERTvdFEFJqclrwvR1DudNnzgShNkYQTDFcMhSAijGTc20JpNPbylmCcMlQzim+dDx233O28WLjgA7opb99T6f751QypKLf6Wbta9GhsiNor3jFKx73voza4kVojdEv/+W//Ch3s2rsCcO/H04FQUMOkHK6iWA7wpvzz7brj0XEbDY59l/qNYfBLpJRaxM+8RM/8erjPu7jHrf/ne3XDuSsDGTf2+HRYlB2xfHS/Z6NdJTp6CVCwBxB6X5ZKeQQsUYIOSd1yFD2d0ShhZARBfoMR3ouPQhP2w7ZuIdXXl5HjzjKO7WnB/E8PIWjHcHcdtj6xDfU3/S6Ff/J3ZsgYV7tbguqo5l7rney9MppAZ6UON2jk/e7z6s/2XKZJ+PHRumpKXZ+Mx1PD+xG2ACNb9xIHobR0XClMtOh8Iqe9Yw1CJtBgBXqcY1twMBz8Mw31Q82fPjQ1iDonIZyJpy2SrAaaxB2Tn5ZcZXZLqWhwFW6tXsoWOX2t3S+yOycElnjVZ6ow3qEjdYJARHZSEjZKxipM8LcbAHWvOmYS+3j4Grf+WUaZKR/nJp5c0x500jKW+DeVfQc4ZItBlb5pbk7KGnLud8GtvWdCULtbxeDKYaNns/ZjiVBjNZ4GzMZLCSNbJdlI1hnEskOqmczCEuAl8gaE3rFYDl645nDyFn1giTGpz29FTEHWRkb0d4PMnArerCRoyg/GfT9G77hG440f/LJITjHIzmUku9siCL81UfnlRhb04/thOjI6laIsyu2xtbbOZCufOu3fuv1ef+mQ7O1IvfOKnjhC194EM4I2hIAeKDfZM4OVx6unXWEs6rP3/md33nYVgskCxqkZo1d9defnGfZC06jMpfk9zvnt87wVsbnft4DH2vvYlhEqZc1WSNGZ1qDE0FAFhE0/oU+dX/j10mKlcVmReeLufezv8Ye9tfOCEJjWZs2CIEdCDQd2MwY5+yaQJovlGnZ/l/yyfzkTjEIXLZNS7D42p3q2kD67COvs+ZNMSwboqjLZJah9H0PG1rj3xSfRY8b0Zq3pWBYOyHoOCcBRGsT0OAcOQYEwVYzv2NawLrfl02ddwLoN9BnwCKJswBXafRRPwBRSl/7+r9Zl57dCNVAaZ/oiYEoj+EtQWA8+sspIXMRhA5KMuDafb8NTX2XCEK7GBCEZb7YuLEHnsZGWcreFB8wNjUmQ0Q+dF59CJRU+WYrzkZeWcZIlglgckicWnaQAykl3yFK1tHkPIqmczBSetV9dmIP2nHQaWBJz9ho1827riwbu3CiV41/x3d8x9U//If/8JjXb2rB4q3KjDzJQuRMvuALvuCYDljHnixzPpGppjcc5FbdEZBIQuTg9/7e33scLGVdQ21orNgLAF4nTB8qC9HznY7sNbpGX2rXv/pX/+qqt1uaI2anCGPrHdLx1lw4RZDeLPHf7w/KPm9WLznsPcm0Mfm8z/u8Y4zgS59tjS2T0z22pQsEEUM2vgRh5f2gAxttkS2PIET64Cv7QILqF79mHYLpsfVryJZtjhtYwurqFBRt1sa2bmSbr+YnK7sy7ApEOM67HbSBDSAXG/g+9pa3vOXIIHBOFVYD6qT0Ikfdg1VSw7YxDEsExPlxfO718idpmU2XyDpUxgpS5yojQTj9jhBkJDYFiJFtBgFxQE6sDMWsRAzLjF1bpgX4lxVrG5khBQhCbURgDAaHte0Cwhal6IffAc9mZwzqeVGKMe2ku5zQkpglEfcbiM4EIdmUWmyeOHkbR+RoSUDXGRTHCfzXgek7vd1MDV0kW5mGJXCbQaj+cwaBowHoq//GaPWoNQiNwy4yqh0t7iralZVYB/GgMwjbt83qkPtGJCJgusSWONj6UoT9j/7RPzr+t+jPvDx7ahyyl9YMRBLa8mnsS0W3wv21r33t9XqmxiuSVV1tC/3UT/3UY95/baXnyXGJIfKxIK+/axtLJDiCPnd6ojLSj6ZYiqLLqIiQBUzhXlsge1thiyX7fUGY89H2leMl0vAgsgyrD4ggmbSQs2mfxphM++w45l/2y37Z49ay0Z90JrlE5vrX98a4DALH+FTJIOh7dtA7KFroSv/pEn+AlPIJ6TRCK4MAsytDQEKmlXPGg3DD2Twcf22yBkGwsvq8xOLs8xAY7WGvbGXLO85BqFFFOua8l9Vs5K0BWN+m9223kF1wrOMyGSdnEQIyUrkYpYxE92hoHeAIqnuPZAb+5zUIQBsA1Q/kpmv2qRqY2rADaODr16bGKmdPSAyoqmNTOxyIRYpn5mZwba/aSKfyqs9WIOREmZRKSkkGQRS34Ne1djGUQVijfhAAA/RuRBA++IM/+Ggjtp3hJGe62e/Jwnw0B0O2DHKnABAE2QTpP/ptpTt95FC6j24iCGc2bvFZ9+Wokj8dXqLY9RxHc6t2vVRWi7iao20O3pgtKXiQY2SsgPk6XQRoCRwdPDs2wIT0d1+OtIi7SKxFjgi+yLPym+ONJLRtMMfRArhOcuSYfTZ+kYLP+qzPOrYWClDowLb7EuG65Hy37+fvixXrMPve/6ZA2gbaQkbkQCY1WaTjkeH+yUxuwLBOguzJe8fiQejJmSBsFrgpn45dLpsju1e/I8URBLosYjV+nGfX9yRF+iR4OuvXzcboXl4Lf9oyLoOgXYIBa9xqgwy1nUowgXPmbxCES/5KYFn5ptI2ELQLBM4tQZC9qI0O3ztjJV/LTsjONOgx5j/zMz9zLFLUYJ3eCLfvnJhGY0wqcb9GSKXpeM9z8uZGNlsh64CVVl7tUq/vwF3GA/jvfQ3kptw5z+qTOVgFl2nYqFI7DDSjxrb0iwErDzjV/gwgOZhiQCIQHvvwgSM5b2ppI1FjpE2UbR3SAktjZIoB0VjAuZfGdKOyLxGEtje1LYyjRjyl3dYogKPMEuASrS6ILxunL8ZtiZSxQ/Sqd5k68kn+SDOZGj+2IYJkwM997nOPRYu1vZR69fQSbeKTJwAAIABJREFUpqKuxnJ16alCDJ5IN9a5yjSu4+I0/SY4MKZtIezch9LT2UELo3MwRZSNd5mE1hv07oTWb3Q92e34lWWwUn6JIRlu1uCs97crZ7aG2MCDdMKUQtNJvbgLFsKy9OQzP/Mzj50bPb/ADRuWZNHp/e08Lrfbjyca3xtdh0euV3+LFOuzQKrfWlTXQtbInuBMYNmzsN/UbfZRBuGf/bN/dr0W7amQQdh+1veysV73vEEhf7gBnXVxovkzQRJQnDPepkU5fnhSHfxa7VJ+chIwupdcBVX+hpvr/86+DEHo81ikCBg1jPHrmIaK6h2IUSMRA2WsQxORa7Rr0mubXcB4gK1oYIVqfkddC0znRYocEcJTn2QDFtyWuVUXEqHebbsoHhAAhyUPSxCcpLgGvkwceErhYqALcOfpjdqF5FxyturiKO1i2D4DztsFiZs5/1shIGSujQhCv5+Ng84xImO/Tnt17hw9qmMzKPRWGcax8RAB0cd1dAuOxqrrooA13u6t/Pbo/+7f/buvQa/MUGD4J/7EnzjmyxHcrWfH6m6P0e2Ud7aXdUrntp7vVR9bXfvoXIGcSC/oEU06xr3nks+//bf/9li7QcbsuZcntfivFeI7VgiIMb4ky9uV75JPRJwt0fvu6RyF3k/RdIp1VRsNt96m/tjF0kr+3o5ZVskbJPUTSVgCdK77Unbkdsb5Zs8sbiHX/Va/WozYOxkEb302lVL2sl1rS6YWb+FeZZRBiBBGEGDuvcgg3A728YO13SLFZHD2MbJGXYPR5MZPkplg47yQUJ+7zlHTAQRBQGsNguAHdvlcP6kMOCODxc8tmRagHr74x3/8x9/uNKsexuYDN0opejdwgFxq1XYxlfdsDBLjpyBAAPupAV3bCK6/SyuKvPfUxgYq55xh9d3isQRi7hpjqu6ikf62bsGA9neLpQIj93MSBrQ2kUXtrk9FMeaR60P9Ny2DTWJqlQMUa0dOoX8tyKpcgFI/a2vKYKCrg2x3TstcZc/23crt7hGtLqD0PYJQWqzvmx3i7ID9JSdwydmvogGqBZYnimgWSPtevwP6D/mQD7k+SbG+laLcUy+TZXIzpoiEI8IBz+oEkkme9swn22Tm3iXADFRGq7830rNWwX21MRBUnv33tq4W4X7N13zN9RoQ+tbW0+bOAc3dBvSnWnkct/GHFf2eM/3ar/3aY3xlxxxl3bibDuy35rkt+kt+S5YXfO+3XOEHoG3dRIsq/+N//I/X5y50TxhitX/2WPvpef1LvyMJv/k3/+Yjq9b9FsyS3QY9+nwj0nO7ZOhG+rP22z3ZQec95Nj1vfF6r/d6ryNDZBrVeHJafWaP4WHfG/t2MbzmNa+5PktHQMc/bJvOhMW1Da5W124FoxbvlMPZIkUdN14GIb10YJ/MSLjS2MowVl7YAbO6D3HlL8ij5+y68Q4HfjcbSX58sulOgarAJBnyL13ru8AqrFufvGvwjBv/k87xV8cUAyDFlDYdobO77kAHpO4Zh9XYPcN5UGDsW4ReeUsQ1ggM1KZwRGzWJfhbOhqIy05ITymjMi+1TxsoAAAni2WP64QAGUVagiAqtAjnHKlu6oji1g6MUd8oCHlySqZqKC/mumyU3NuvHUHY8bhkLGcycCNgWaZ5CUQukQp1L3lYQw4YvO6Z40BEyH/lJJVvsSY5nOUq9QZo6Aria9or2dNPhnPesrhpPs6HLiOC2tq9ObIMvv39rd6XCaqejmrtvQEM/YlI1VPN2d9OezaTQ37kn6MoRd1pfLAk+QdozrhgC52GWMap9QmN75LmcyR9v+V6XihcJqHFk40/jN23fNJPwYEAxr1lFD7yIz/yeBlWa1W8g0Z6no0iX/ejv+t0qy9H8gmf8AnH2pL6LxCp3a1LsGaITzH22gx/yyA0rvs2x8XyS7jyZDBq770RRl3Cxc1k17fWwnibI8xfcgK/FsP1nQ+VqZRBl0lZgrt+cn2f35GPdIdP5OCt8ZBttq5r9YuvkEFYX7I+75hi4NCqHCvsczMIBr/GiOrPUfNONxhcjInhM+olCP1miqBObL3mTDj8FSKC0jM7xdA9osO+Y1jnuRrsSoajugh1pxj6bjCVjTgBfqyecPv7/C4GZVfGplp3Lqnnz30kZwTB35R3ZYbEKKeVxKXFkAjkYpWb0z9HXZstoPhnZ7+O3rVLDkQdR9rqHYs66ViRRmlXbU52+koW5L47bOjtymynGJA+U0NLZI2pMmQk6K20dWXQpSUGnmvsRLhAiCF2rczIzjVWRovV2vbGoW00cTvO953hGbJZe2QHyeHNb37z8R6D7/u+77veJgbIN5prPULrN4Dgju1Zf++3XDg9dtD493bCFiZasLxYArgRCzay0wnJoEVx6cyLXvSi47ho8kC64J/1LGu3d5s0nAlCbx7NscP56mtsPv3TP/1or3VW7BmBqO1nrKycppvI70YZhDPmkNudYhR9WQIBT/usPZ0a2cLLDSCMO4ytrzAAfhkj+spXCjxWFjv+/F9l0h2BjjZw7shWZfVfAHLGttq09eqj/sPAw2bf+ta3vr0fOOCUVgr/TBAwnyrsv/SXdAuHW0N3+8ZG1EVVhKWh/U3I1cGYLO4j1O6zb7r71xlgVhS1yKMUiykBwqpt/VZ6qGcIRxsMVG2Wsqk93Vvb+zRozhdfgWOLlWe3gymG+mFawmB23zmFKJVeWcBjB5FBNFamIpAFCom4eBeDFfTS60sKnghIbwQyZ0NaJn0uc3VpI71+D0A72KbxlgmqvdJ1FnvV38a0T87eS5P0e0mje/qU/qtdlZEe0RWZB+SVfiMj+okc187KK0I0X+cTuFVGByO1Gj892OgqJ9e6hLO8ONEnGo+H4brdTubo09/v+Z7vufqcz/mc63G33Tc9aEqwRYm9e6EpHfoLG87E9X7K6GbjVh+KpNu5YdqJDS7+0V84vHhY/5318Pmf//nHC69kFc8YBgduZot3IpvKR7wjdZ/7uZ976DlCLRvXFFpTJbJr8GcdobR6fbcGoSkGETFHxTnerN2XMOoSPp2d4Y3KXBIiqOm33mba1Nb6AxkAO5su+avKOGcQttxwz7bdS/4A7gl264dpUG01JR62Vfa+U6l+Cg77TqYwUtDGr5fVOwi3kxQbwCrYzt0ogwDENUyE1YC6RtE5wioD3gCZMssgcOKYtSkBrBQpwKA2FaJsQL0pLd85IIRFlmAZ3yo60NEXWQOLNDergZFtZiClt8+X4chWWNVdHYyIYRjAjbDW8TO2S/LTJ+DTGoRW3gKSBRDGbhwZ1NnY9u81uidDMhawKGW/1eei6faJN56Uvnv6jwmf2bPxxsTJbKe9zpmpS+UZD1kc6TxRPzLbfSI2IEOvAroOA3r9619/HMPbCYL/9b/+16PLO71EBq3W/rAP+7BrbFrCdCfg/c70rPGlg8kg/OnY7d4WuZm5rmUvLYQzFXWA17y/5G5Hyk9GljeyidqUjjTd1KmT3//933+AtsAjIA8jSs83DdHpk2xKwJLeiaQFGL2748UvfvFxTPHigigdFpHRk+nLE90LX/rsfI90WVZAJq/jrZvaFOzVnt15hfCzo65nQ72LoWkm2eXtNxlfwqgb4ZP+7/g8Uf8uEU3l17/WE5XFqcxwuGuXsIgfOvs/Ogu3LOyEJY0hIokgVYapT7jebzIIN/IbPVN5AlU61Sc842MQzq7BuYP4/OzP/uzbAbYMwRnUFGyO4zwgBnLnQiyaE9kjERzwObLfNK72rHM4O7atq/Y4NAL58NmA75wMQWBp53rNi64T2JT3AhPFWKXDCjkjA7upUMpBrpQEIZKqMsfOADH3NZzaW3nnOSUkKoLQ4R7kUdnKWcU/p2qNNed1yTD3t3WefjdGC3oLfBatlkEohYrwYdsxcoCEAGDQMitL6Mj1THJrh0WsDAA5ST93TPV3F9RKk/asdSWV17+2ePVCpkC+6/3OcDcVaEFT11r1/T7v8z7XpyY+SOd2K4B5r+4x3iKw6mk6rKyXCLrxLaNZmj05H1uvBsTuhRO8m/0VGFSmjKATM/u76/WxRY0RhFL2nZmRDfV7kVx2wG56tr8dKNVuAXhNjxavK+fJ6pdn2DR5LN7V1l4w9oY3vOFxDqX29SKtFinSf07IFAhsgQ8Ct9YitfNDIKZemO1v+LKBG6LpHo4Y0eRs/b5tcg85wX565rP2N8XQ6ZD9JhiESXxHf8Nyn4I6uHP2D8rjrzag3EB2s+b7tmCkYsnFkuzK3UWNfE6/b1C1fuKQVScpdnPCpqymGCxGNIDdI/Xbd6c7cbZSsBXsgBBp8BqLNBBO9UkxAoTqyiikW2o8B1hnYt12E1BgBEEGAnOtDPXWVg4kIVsVysFwmuesiX7UdqtRAZpooL+7r35xRAm6yKFnrMivvdVbnZTJVEafVuR3n3ltddV2UReDaXxKPVWnuXC7Ioxn0VhpO0ZPnhhusmOwC4z9xlDW+LTBtU0ZIkdYuIhmjZKxmT6qHUVDFp019skISaos0YeUs/GufIZ3bit5abtV1LW3MeHgK4sRM06ZjD2sSvl0q0xBjqzz+GUhTGtpH72g2+TTAsUWKi7wPVkQv5tO7EGVtXpFZu36+Pt//+8fNgIfkl8k1wut6PI6xAfVhyeqtz4Y/+7lPM7PIQTpRAdIRRSy2x/90R+9JhYCBUCfzTRvXyZBFpTt3YlsliCcbTd8rH6HVwk4BIJNFebo4ToiX/vCqPpvetdbTbOp7L6dLNmTfiI69ASe1L7N+vb9ZhgFs0TNSKXoHsbq95lUCcJ6vp0pZRBgefc6tK1+FVj0W9iRnOp/v3e/YESGh/+q/7Cje2RRYZipgz61uT5sFpr+mL6Spdp6118ZH8Q1WSNR24/HfuqnfurYxcBhnKO/Gsnx73xhQuXsgD5QJwApXnO5GI0BlSFYx9oz58g8oWGfew1zq37rFnRSZgAoc4T9vsZDsRnWpefORicdtFEzQ0KWRME5n/rf7yJbRAwJwIQ5u8paB7zRfc9Kgy8b1e7urS4snANHApA0BmXsRM7+3myRvi1JAXzGWnuX5Z/L6BpCJCvDwLwz3XggkQjCjhsdkTVh0OQIAGo3Iuaavpx1EYgYK8Sx+003IHbtCukgnNYgrLOiD3Q02Tgsi1yK+AL/2k7mG/U8kcN52K6bXqtfzWm3PqNDlDiWfi9a7rwE9k6njeVTWSaiPza9U5DbfvfR7fS2KD09K61tSzbiXp+791f9ql91nKnROQr9zUYXQ56MfM7OkT8g+9r/t/7W3zoIgjl1GJsNd2roc57znOv0+y4eb0x7Phtbx7XrE6wp6t7wUT8XrxCHzSAsprtem5fYs0/4AMcRhHMZcB/W9be1dYt3sHfH2H3KELD1HMzc7CfiuPKGb/S9a5cIgmALcTIe/IYxUPYSbwSBXiFn13rbGgRpu40u+25wCC7nEikwt07ZZRq6X8G27C1bIhygy/Eb0I2o3Gtv9A56wk9owCVBmGIw+BS6vzGyM1vqHoPLQRgo/cA6V2E3q1HZ/du0vzLbAtTiKhGE37ufUi758ntt2bmpdXhnRm9sOFDze5Rmpy2615ghc/1m8Ur1UsolHD2jXsq3iizDI+ozrUIRL/WLMveZPpUJoT9LHFfZG2OZGg5ef9fol3z4HZgAKMamz/TMIticlRXjIoj0v33QpRnJVf30fOtDAgBB97RS/3nPe951Nuidwck9GQdzq/cC69WtTk38lE/5lOsFnaLOFsJ1+iAQA5JnZ3ardd/P++DKjcaZHdGbdYQworMUmp9/4xvf+Lg3QrKvtkH2Xg9zzhspn0noue/qXxyBZQK5JdX/9J/+0+NAo2xBipsD/YiP+IirL/qiL7re8cVhslWYvn5CsCMwCdt3jVvPVn5t2QBAG+kCvOazqot/6ZrsI8xPRoJJQTDCQxZwq7oFfq7J2BojY2E6cjHPFLcpJdmPc1Cl7XzZ+jzB5KUpBmO65GF9HrIN87VVRoN86QK5HPa1JynufOxGXFgthqpCbIMDZLAausJj7ECzukSLHNdGo5VlDv6S4+o39Z4JwrIiwlslX6aoDRSMA+lz2R4hIjeb4lqnjZUiJsjXGuJ+Xza8oLlTL0sQliWSt7HCGI0P1srh9knRuwacAe+WTbaM3FhvJH9mrGQtG6UMxlKdHOoadgYR8dz7KgNJ3eyWCKl76YU2GZszQVjw7Z5NSa7OrpFLnVaW6C1iUPRkKoh+mmorgvq1v/bXHq8c7oUu7WNHqEshdsBKkZ6M2o7r/XRaT4W62AD5Ny6tzeho8P3XdGKLWH/9r//113PdbPGp0I+bteHsfOnsOoYlOWsvnoVLncjZduDIQjYMc9L99O6lL33pcR5Bf1vvsrZ7o3aeCYpo1TSG69nAN37jNx6LD73aeh1/Oxa65mRLZGWDTvfT+80SIezsntNGPqxngJGwglNFMPwtgOy5S/4F4RDgIVVnfO3vMMuL9+AP38Bhk5sx1E7BgfZu4HqJ3HDOi1Oe4fN2itmLoG7m87RxbU49yJrpG9hprB77sR/7sbcnRHO0NfrSPDlBNn+bglSgaE5GQQcq3IlhNaB7a1DP9XvX3dvvO4AAud+Ba89nBCltA2V7JQH3PNZlgGtTB610jyOPG+h+r476UVldF/Fqhyg6wZrjd2phzzrpMUO0XW6fqe3VVQq6druvfu+Lfbqne2uTE8dqT8ZY5sF81hIa8qyfjYmtLAy6v5vPywlV9p70WBvLatR3rLiyqztFlkqvbKdPIl/GkDMW6TBIClcfsV3bNfVpX07Vc7u2oPbWvhZr1b76kVxqn/UiycPpYMhN97qvNgIkRgRgk3t9rzzn/e/aGa8gRmDS1cYAmDUt0BYnsnX6ZTrWnHF78z/jMz7jeMZWXuB/JodLcha4N3J5qju/u9E+oJp8+t/rmjtaWVSZTkWyytq0tdF9bPxutOFelrHjvo5tScHNvntGoJVtlElIRrJpnGz20o6CjqAWGDxR9mAJC8LBkS1+hnett3n1q199bbOCxmw6+yxz0HRHdqzc7slmG8fstnI43D5lDusnJ9bY78myXYNFOz25a482gOBYK2+zvjIIsgmmfqurcndnxWa9yUV2Iezoe89l+6ZNui+7Dx8Ewf1WH8OE6qe/ArmN+I0n/5JcBSLVkfzWX1W2NQgIZ1ifb9z2aUPyapwag/6xMbqCTFaWbeAH1jtJ8XFphXcsWDB1wJnLIFgpuYBG0TG5TQcS8qZHlvEse1lQVf4a0TlNj/kBGx1dg9x2braDQ8FOpbMoyAptjW0ZmUjclIB6GYd5tDMQcBLqAFT9vZEE0tKnvp4HdQ1y71827VmGcgYHYKbszaxoq0zFguoyb4pKBzBfZKLfyQtB6B5zZGRBX8iSYfmdLLvuGe1G+JYtG/8tTx92XBjsMvXaFwHI+Wf8yC1CWMT0+3//7z8ORKI357LJY9tPVgjIvXRUD6JsY3Oue+VNB/vMrnv3QlM7/iXrDtAqMqU75+cfRN/uZ50ILn0pk9DR5G2plXVznO/7vu/7HosW00k6dyOSsLawY8VW+oyQ9CrnV7ziFcduBfbPwZnGTP/bepnzZOt9ntcgLVbK0K6ty+ydsfuMh2v/xkLmAU7KUCMs2kWOPgUai5WbUaV3YdRODVzCIrJeYrg+71axfHGQn1zSIqCVrTbW+mA8lbNE3JjArw30PP84vP3pn/7px72syU2YpEhMZaYKNFiFKxwgvalflW5kVwdlITgk4GygLe5b4rCMcSN3iqsMcz87FbHf3SeL0bX+i2yTwZnoYM7IEgOmMOuwNk23g74KjqSQS3VyVH1qL0Xt753j1+dVdG0BwDvvvq/c5uysQWDUlFJ6TrpJvatADBTJW4cn8tF38jyXhz0zoDVE8ugaRVcnPdvpoHTO9IB6V3f6DoAYlvUEm9403VadnQoXMFutbOw7uOfzPu/zrn71r/7V14sVgcM6Pzp0diwLxvfT6dyvupYYLmlackSXfvAHf/A4eY89sYuOKv60T/u0py1BIJ/kh0hHDiIJnZ2wuFkE+8f+2B87jmZmhzciVItBZ50te9ZWy449jhi0k8LOtmzFep3sJf2PHFs7YHqDbbL1XefE7tYuasMGe2sbgkL4sNi7WAcfEBn+pbZI9a9/QViWfApq1sl3n9ODYeDZma7PW1+4/aLbG5DyX7CSf9V/gY81F5XnGVgHG8918Sn6RO4bRBkfsuiZJWqP/c//+T+PcxCcNMcxS3WkGKLhTctUie0qWFJKkgOqAqs4bXPsns1IVGe/2Zq4mQFsjcI0GDIc0uCcm3uwKdHuGg6gqr1O50MyOFyECEEguCUI0uyVsVMCtUkafNPWpbSrk/EY3D6dnEXpq98YVPce38vYKT5lWWVmKMlT2ozTXoXYVBZSQbaISfWUGvPyELJYYgZgVpEpufbZalM9rlHEsyySkzHoU3TSd1Mg+lE76mOfUmWVh6xuBmjnQHdtBsBFgpCM0muNW3WVrmsFeRGsrFnjpt7my5/97Gf/P8d8L4FB4BCGS4BNhvfLcd/Les7OZjNl7BCe1I7k2e85vRYjLsGsrC/5ki85DtFaEH+Y5HWzsVhZIu+cYGthSvs73I7cWgPTaZP07OzwlKk8DjN76pjrDirquOPO9bBzbDOH2Um4kK116uWHfuiHHn/3Zs7W12QnXttt7n63n4ft5ylsJGixW9DWWNuJhNzX9rIVXgYoEOSH4MAGRisHEXa4Epb3vGdgIP9Sm7p2ftcP/9I1BxEtLieTxsZixspd8gv3Lzl7Y5kMer7nBK1LAvjMHR9tML79vVPY9QuOntt0Dp4P/xBB6MZzBL+ZA6DOGVsIA/QNMGe7mQPAiJUsM1wHdVZcZa9QRe+7gA9b25S4SLXfXBeNU1ZRDKeBXS3b6jcOBpO7UQTPQSM93Uc51ikYFFHrmQGbqlhgpawMgUwpxkbK+nuWAaNYNk7my5bVZacIZV2AUn+fm20538PoluD4jaL3iVRtv4z7sny6swZzdkBLhoAv/TTGC8qAiM6SvzUZ7eluzndTltX5mZ/5mceiMPVvxLblrzNbwH8YnRwc2QiPQ0PgWpeTE2rHQlmDXuVcJCw6Zn8yOC1cfNaznvW0JAjpEafnfBW41VRMb1GMWCHWyGiHcMGrDbKWfCFryT2HXtZg99nDS3viOZ7K7W2aL3nJS44FudlLNq19aw8wGcaqE9kz1trPJs5Yvpm99TWXsJxDr2xYzO7Z342wnKx8wrMzSTEGZCRIWSxHNPpcjKLXi+WLm9tWmVSYVp848WQGy/kX/nEzB13jL7V7bRLpYrNnn3ecg1Ble4OB2ija9o3us89eZwz4KofodRuTMkqv1LBlfNqwvxvIrhG0TIGOnZVKG9y/Du7sIPobEUFgNhW19RoESmDwyIiz3jn+GK5Mwy6eO5d1LkMfOUyGpU4Gs2xS37DOnqW45Gjw+32VdkmctqwzIwcgsQ5w04RIiOuMtb9tFTxnNarPgSkbSegPvTyPN6K1OgdoOH3pOmkzhHGBaslb3+lo+t5xyR2MkhOz86BnOwymVxQDKM/cyOmfZUk+DxtJqJ8bhfiezBrjzufvf/LqmsjmvHaDfHru67/+6686OwLG7HitHj6s3+EYHBUBptOd4tmUAhyT2fK3aZqVmQCCjTQuME+g4RNZDtO81+YFL3jB1Sd90icdpKDFd9mJ+kwXi/iNmT6cbXa3La9NIggbEMBddcG0dfpS7rBYBgF+bcCgPPiCjHHGnD9nu9scN3jhX5Snj3DujOXrb3pm/aSpUX3asd/s7fq8fue7NkhR7tnnwfrFTbrl+SUhB0HQOdHjVoj5Y4FAt2d0aEFBqnbnyTcFtCndnluQdYAGZZH6ruErSIq7SoPBnoFiScCSB6kdg8AorHzVDwqyhEPmQzSsHcnKFEi/lXrKaDaS5lCXfClPNF5d+sipUYrq2PmoVUwkiwKvQxddaBPFoaSY7RI1BGRZr0h7WTQigASR5Ro9JVzQoj8RKe+s4Gyx4Y16RBwAoHrOUwyb8dmxX0OhB9sm86prJL2Jr0NoPIuJN//73Oc+9/oQlktEkiE+bCTgZo6YTi+wpTvNZ5cSb4uek0m7F+naqJB+2EL62te+9vrQnTOpfVhJwaV+LflKp9jkJ37iJx4vS1obRAjY6GIHvfSZDfbfWi+OV/Yze4oIdIplry5vu6lAxXom04F8wq6u127YBhvYN5tidwJQ2LCy6BqsXCxHMAWc+rCZ7vSNH+Kv4AMfJwiRQYAP/W3n2hlvEIs+F2/5Pz5O4Nt92qtN/C5CBfP1t2fZw/q8xayV0yWft1gO8+EzQnYOlg89etvb3vb2GmIAu3nfdKjiJQHWCGBfsguceAWbN152QnGQjK5hnfbCY8h1wtaTSxGwznAStqkZXApe+3cawd/neW3lAS7bOg00VmzQKgfYUXoKRi7mrbG/TTsx3k2fnbMQ3b/z5hy/IzMNNCNUD/lSWIrX76USiwYYaNfqR/JHDrY/MhLdb1qEcSoDi12ZLZN2H3LEIagPuUOk+vRMn8ZUylDZxioZIZFLUBdsgJixQTaMEaO0faoyezlQR1UzpNrdPGtzv+37Jtenk6M695Uzkj0ChLIEnbjXEbrJGTg2vufDYNgD++/vXqtbxmGxh24+XYjXZp/OAJ48k20HF50DDgEBctvfSAEcYY+CNud9OOq86705sgOQIgh2ZHlOHdkKbOs300XIXm1wQuIS9c0GIwi7hgpJsNh7iYw2wPn6z6bJrPL3yHoEAd4IQPkrWxnhE6K7OKLeXTNH93chpiDbFs36fcbH2mftGpLCv/AFsHwJFjK4x9Ibg/W7skT8klNil8wYj/VDcP7oVwcl1QgL6frR/HOC3AiYM7awSATAeVZJ1+oApyMaXudJcbq2e+YtVBNFKk/7UoCdnwIqXS8KrWMG0H2I5FthAAAgAElEQVQJY8urT5VTXecBwwb3gKZNs9XWZGCh2i4+7BpwMzDa1H0cMNnuYkHsvTIquz5w9jsN0/dkhiBglv1mASjF7Bq2u47f4kNRyBKxjeo4zsqwgpcBLOhI6yESSw7pT/UjkZVhikofvRipZzmO7uv7licVmn4hm0CD8zEGohwsW3n0Gwhw8ks404vKb2tj8+QYeWU0H96xv0jM08VRPREJQqJa4NmZBel+ryZuJbztbwAYoeuZ5Jg+b1DS9V/yS37Jsc7jAz7gA66r7l6O5Ina87BcR8DoK3Iu8GotQmdwtLbD9K2+r26KPLu2jm8zlN3z83/+z796xjOecRCDFiA2dhwLjFvsgDEIQuVz6I3XGSt7VqZ4nSynvj6EDW9WUXDKiV3KEiBCmw3eSH53YdQ+QRLfIGgl49oRHiR7vgH5qK7KCBtg5QaPcAlx5kN7Xtv7LvjhX5QHz87Z4Nqyi+VlIRCJzWTXrw0EYT5SKZNhGlhgfujeT/7kT769QcFYOAlRGpa4DBXAM1igTvn6PLOpKqMQ5wxCde2CPk4HkaAolbHzW5R7CcI5tUNhOe3+lrmorOr2DJaHtGBa3b/tI4t1mAxwDW4VEcNDOIAjWXA4mHD36e9eq02UVNvJdhftXCJSPZtS2ZkiXSdqxsAZmHFE+jajw6EChiUIS7BE7IgO8Frg2/k9UwQYbXI9ZxDOxnYpg2C8ZWAAijEVRSGZZ91s7D7mYz7m+tQ40U6g2V5z460fD4tDejL92OjWGPbbj/zIjxwH+vz7f//vrxd30k160yEznXHQVtGyMf0ty1NZ/dYhSevYRMFPpo0Py71kLYMiao3wt07mP/yH/3CQLbbb2xQ/6qM+6vq9M0gBslt5xiS5Rww6P6Hjxdu9YxW++jayFXkL/rKddXAIgmwCx8oBKZPjr92wCKkQJK3fqF7BCvLD8QseZR3gvoPkFisXbzhgu+4QUCQIfp2z5Bzw+kkYI+iAUzI0AtKdShYwwuuePROnxXJ+o/sQhM2E6Mcl8iWgXZKin4K1+gvnDx1761vfeqxByGlIMXFO0iMGRro3NtUz3hylA91nmyOna+qgARe9Stn03C7+woA5iZ6RmnScrSmQGu++BnUjVMpSPwgca2qQlLFKxeC6vkqFBGCMlWNbC6fYs978Z2C6TwooOTntj/N0uAlyJEtSPbXBmygp1ab1OUypVyw2YoOBJ0tZHE6wzyK7+of5Y/TkvKSvvjNejhU5JC+pse6zYMmbzLq3CESfapssCV2qD8kpB1EZ5vpsQar8ykheycIbNREO5AYAIgvATzvrJ50RrdbeyuvaOcNT2z/yIz/yAFykL5m1c6HIlpy2/IfFGd1KP0S0SxKSfbJs+2cvtOoaotc4s5Heq/B7fs/vOWTYb8BemWTLgbh+K+16WO85E1FyT+YR1q/7uq+7zvz226/7db/uOJp58VVqmlPkHNJvL0tzGp+gIHkiZt69IJNnfLMVDhMpsLZAO2UOBWf9LsMoMONYs8X0xpTAZqgFdTLAleG4YcEAHegaHEVgql/7K19mYHFeJlsWVbTePbu9kp+UveVr6psshBN49bfP6pVxq5+IxJKRfpd5rlxBKyyqj9aTbTCOIPANfOhmP5Al/nMJCD9Znw7S1hSDgcCG/L2sVdTMKS5TWzbFyHV8o1FCkS5BEPpdI6WP66isxgKIKNdgiBQ3Ja48mQfRHzC/lEHQNgrXMxgyIiHFtrJQpn6KkAxMg4d9JxsD6LmuYYWckahpWSzmv46V3DeDUFnagBVu+ZvV2H5sFG7cRRk9U71LKigg4NoIfTMcMlAcODmt3Bgs4ggcjEGy7P41LoayOiLj5L6VJ53Tp+pcXSKznqE/HQCDALneq6k7EpjenYH7YXVQ536x87Xvvn/rt37rcXhOUw3W6DhevFdcv+xlLzsWuiGtxnajLhGmsjdz8HSS9/b1EkFgpxGyV77ylYfe9j/dbIqm9R9lA7pP9C7a5PjpumAqPWc/1hIYK1G+TE9lwLPu7Tuy3ff+cUKbVYTnMsV8CgeprfwQxy9YWZ3ZDMI5AyoAqN0IAqw0zQFX+Cty7nOxfKc5ZHlF/7BMuwRzyq6/2k62tad/6jXlDLP4V+OxRMI1aykE48YeARRICo52rRk85Edlto2p6cDjqGXGTzicJUNdkF8S0XMbxa5B9/umvDi9ft95K+nzTYkYGI4NGAERDoUCU8QEImLheLdeAtNOgtsphoQuW6EM/Scnzm6dJEfSvSIpSsnp9Mk49G0d51l+DCcZreJijNse9/hNO5AECia9tlMb+oHIrAECocrdKRVjZDyN9wKZvq28KseYm0/caaOed7/xYXArP6Cl7YwDuCCHDHuNdZ3dEq/ukZFoDJ///Ocfx80Cqoy4rEIvDzKOnt8xejqQhLVJ9pesOnWydRuBUbqWg2p+/AM/8AOv/tAf+kPHS6zY8Vn3jfOjjMETaxCM7s6//tf/+tXLX/7ya4zoWusIvvIrv/KQP6eTXBF5zjiMgl1nQmaMl6CdsU95nDOSjyBo582wnM3BWdnBbGp9wSUsh08ChcXy7FWWe+119esSliNP8JD8Nit5Iyzi84wgfOCXNvhDbpAFfgKWwNLFcsFu98K2Sz7vibB8CYIyyX3H6rE3v/nNb7dXvwsJ1QtxSjM0eBVW6reGdM3LmgBn11JE5KGKzi+XMMXQ7xgtIeuM6LjypMEtcqGkXtaUcBEELEinpbtTjura44X10UKq/jYnZCAoQnWX+u755NL3+ibyPp8+WTu8gKQ2JKfuqbzK6LnkZJGnSFlanWMOWJNT/aMES0YosHRg95BL/cEgK8O00RIE6SrKuy/nsN/ZWNb+piW6l5w47iWWXqyVvNsW5ZSz6k2u1j4wghywF2HRn8olCy8W6VkAor8YfGXVvn2JCYKwmQVyL6qtfTcag3SOnGp/c7ttzTMG1ffMZz7zAN50bcFgidHTwcGJmvQ7GXfiZI6q8XdSaDLv7ZZf/MVffKw3AEaAHVngnBZYn9hNPj3v2GCh76961auuvuzLvuzamYYf7baJOGQfGxhtcIbENZZ971MmsVS6U2fhqikBwUU25juC3m9sMLywUNuLhxoxmGBqUb1LWpCD7rWIud/6Xnv0qfLDcpiKIGiHrEZ9Cb/PWFnd/JW0OtsOy8OhZBP57RMhQn5NeaTH55N66ytcNs3Kjy0+1a/axzfqL5uoDli5BEGgLJva341bbVusJN/ssj71b4nUBvmVlZycJvtY72IwuMvWloGIpDmmneflLF3TARHldojT2UUaG+ntvNWy1o1SCQ1rkurdNJQIHjMWPUqvLYBXtlRRv0uVSae5d5mqbMfKa41wHXhln9mjiEt6jnyX1WFxWN1GzJT0ErgaN5kDZZ8Jgr6K2sj7HPWLIvqUJlx9eBzbfOyx69QxomKskUHTABtxZxB7rLN+Sa/JXGhj101JGSfAIyuhPnpxdtr1xxSXMvqN3Cqntzc2l24MakeA0fbH3lxHxzd7spHFw+y+2JQ+dphU0wc/8AM/cOiAbExj1lx4uxFWN1c2xoY9ibIeZvndSd9gkag9wtrOGnqcnCMITTF4IylSkWx9Z4srb7rMgcGdJXDK6NoSDliMUF/KQGizawI0UxHatGRBfQKotdMllDK2MMwaOhH6JSzfqFngs9MNsNwat51mVZ56OWr+dLMnZ9/DFmC+eshZH7dM0xQ907/dLdL3xXLy3SzMls33wFL3bdBzBAGtQdjFfFghY13F4gwQBAphF8OyR/NU5ksIy8CnRBx/v+lsnfB7jTdnriMcQe3aRSmyCeuoK7fnzNVI2febAVulUjcF2YE23y9bUdn6iOSIqij0zlshBbITS2jOfdS+ysPGe34VZMlWsjgvlNG+6lknbqyUJd2PZVozYU2HCKH6U6pVxHWGAIXB62+/J099JGN6hllb1EOJjR0DWR0xBrUN+VrdbFyMBbCgFwjguX2IBfkU3fzQD/3Q1e/7fb/v+lXYlRuR+eRP/uSrF77whdeL7s4k6+mQQQBAAPo1r3nNcarfZso6z/+zP/uzrz7lUz7lsEOk8EYkarMKd+JAnw7PImHJNSLbf4FRNvwe7/EeV3/xL/7Fq3d7t3e7JmxsyrPGMLw9L8yDD3AHWYffAkPBiqDpbKfs0u+cG4IJOxEEgUu/c1ZsuL/hEiznD2qPoAGGwHbBAF+06yXUu2l6z7Pjc5v4FNkJ2AHn6iN/Re8rs/sQgeRBZsaDbGDQliFw2QzcEgT+mo2ZSj77ZBkPwR5SJPhaYnL4/rY5LilY57wL/yxUkzaqIRY2GIg6j8XqEAW55KixSU6IYDl0TqdnRa2UgJMw6LsNBfgTuBQKJSCEPimLQaKMyt8DlSxsMRicDtZNkfq9/zmZDM8KXlE4Zdb2M2s3BvpBUTfthiDJuuwzxgDjdq2+IRIrW0ZefZzreU3IJYJAVrWldjjDgfKpt+v6uCwWYJX2KjUGROhWYyNKqU+yPbITjA/YMChTX+rSLwZKb7ePCKzV0elTabbm1BvH2mGnQ2fRF7GZjqFnCyhPFyeln1/6pV96TL1slNbWuU6ibEU9feMQng7yuVd9XFtKN9PFv/t3/+71erCu94bRdjeULt4ocR2NVfLp/nnvfzqdPbMdeAOjOdZsyVRo3zlxaXq7ntRbOZyYAAr+043dPbDEAmmBo7Vh/QGHWX+TweKq6ZF+q79sVnYBZlg4qd7a3bUwqv7trinYKwtx9lcrM45a/2VKlrRUHj8kcNtgfMuDR7WHX4CV+i6AF4xuEAejFyORhd1pdmxzrAIv5SD8hLgL2vpeAT3cvE/XbY3ZIze9ZW+Vj2M1gNiTgeKMz6kTjKz7zZc1GDtfts90/ypf9/WPU+zePfAiBZUZ6D5ROdbcNQsW7W6orZVRnzjF7kckEI7ajCBs2yuveswzdZ95te7ruzGoryJozpBBIBkWA+ljMtgxwBg5/iUIjMNq8/pry5A+9lyOsTbtaWj1mQECGIBylln3Kq/2mttkbP1dKrQ6gANSVdn7pszKTmb10foYjhuAyABR+DOg2MZqaqP7HHZCv0W5pcfbQrZAmUw/9mM/9uoP/sE/eL1mwf37ea8cxIMs94gqHnvs/2lC2xa/+7u/+3Fv3msaprcxWp+EUItWFpxWbo8yCU88woKUbCc9/I7v+I7rhxqfDjoqo5M+IwhL8mFcGJDdW6/FmSz2mq82583ZVa6U+/kaIiGzu/ZsDRSnDf8RBFlTf4uoa1N2WtmV1+/hgynijZo5SRmPyoS9Z39QPbCIf4FF1YUgVP8lf+CdO9q3/iq58FfwlvPfbMD6DVhUm6z/MiUA/xGE5CAbvrKwQJO/qg98crIxBmwNcZFN6vlDx9rFsOncTcmKRDda795+59xVgMVI7VJAikxJe37TwlhTAsJiKRXQ6Nnqwa76W4ppGZjIvToprOf0UapM+2Q4EARZDVEp5tt1jodc+q1ygWbPGHQkSHaGnAwm59rvC5gbDWOZMijaeFaWTS8hOWSGNTJy22mULfqXntysiKyN9mn7AvumEJGZ6hLx0wuG2rNd029gg8Gr07qDylevcd/oQDn0dvVNWd1D5/rt3L7NhIgcKqc2fPu3f/vxWtvVwfS0iOKP//E/fvW85z3v+po2Y+43cnR+f2I38NS7g7zpfHJKZu3uaCEXO09Gva+iNw7u2D/1evTO1aLVqWSfzDtXop0iMob1qBcqfdqnfdq1bjYuiJ1s2UaUAgg4CYeMM/uBRWvrInnTp3aCiXiVCStJfMvYtUOyEzCra8pen7CZRDhN1wRQsoX8lb4LJPmDzUZqn2wCrFwf4Pvi3NqGMtjHpTJkRPkrY0DGfNf6WFlPAXz9Q9JgVp/8W8/CRCTApzGGf3w3vD1wrDUIGnRJeAS+aZQaybGsU7yRM16lWzJCQD2380VSTxwi5UYQlLEpYs9sCo3TMUiroKJLjlpd9UfqiGM599EzItYlCggGR9M963Q31YbcIBwc2irIXuOYa5/sAqU6E52V2SrOrkTecUT6GI6+UzAGIeXFUCkb4ng2HIZNf2rXKnD37/oT44BYKO/SGHDESBHAo7P+1hfEBPCQGb0FEjtPV4TWPvPeKmicI1nN7fb8S1/60sMR2glE14zVkr93Lld0ubVLpvSx8StiNQ7SzH/kj/yR42ApTuZh6P9ToQ8bhPUirLaPkrGsZ2dRdFKl7A18hHswJn3dYG/tlGOCS3CPXW1WczOxviMIIuYNfuAAW+WMBRD9DjfP053qXf8Ap5Yg8C/0ElaesahnNsBdH1UbBDEyJmcsgiOLbXwN0iDI7m9+ia85B7RnnwR3+hT49izitBkE2MYPLQ4h7/AQOVriIAjjD441CEB409HdiNURUA2Rcu6Znf92Tfp4nd/O7/SdM+G4KIUB3MV9FLg0c8Bcw6XVzwSBM8Ye1ct4lsUB7vPg9qx2GEwKJoOwC/gWFPuuTd1begjD45ykw5KTKRrOdjMr2o4g1HaDTSE23eR7z9mSuo5Qn2QQ6j9nL6JeZ6wfnKdrlEpbKBeyxIh6frM4K+fGF0D1XHJqfPuH7Zpu6TljT3m7T5Zp59/OBEF5axCVJ71mikEf6Y+1D7JbLbbrcKRW6EtvNn3khMfeqNd7G+zEWB2VUbrkWADwU8Hp3GobRKHAuc9k8cEf/MHXW8C8K6S3XsqwPGxE6Vblda/uQ9Q+9VM/9Thmub9hbmtj/uyf/bPHYUlS0F6tvY4ZHnJUa3+27AkE+QNTB6Yi2D2d3/vYaffIbpjG7P4zFplSkEHwDGxbzBE1n/GbsxdA7bw+/CY7QRwyIlCFtfxQdTkhWEZifZcjj9nG4g1/wsedCcKlLInMijGAqedA2sJvY4DoCcA2kF7/UVsEgkva+ElB7IHFZRAICPhvGhyDqiAFc5AEsowMuz0PIIaHTUrNUDiCxDrVe46ul+2sE9sMAvZzjtA3Vb1pZvfV9m3HZhDUxcA4K85kyzAYBhADP0eslJmj3ozEZh3IWVbgUtvPY0ARK5vi9Om41Ooy17cMVNux2K5Z3LdEgjJhyOuoGfay5yWba6B931PEROAb6ej3RueMSNvV5ffVMxEH/d4sCZ3eKRbkxpRX+t57Bb7gC77gev2I8UHkOvu+nQ3Nu3cYkPUvxp6jWBBZZ3uvHMm9KHfHvvIjeE6dFME1pi1Q/OiP/uhHUwx3OAhL0jeY+q7v+q6DmNJduvye7/mex3kUVtk3JrCIDbMXjr5nBQ0cNQK7WVnXNiu7ETB8lN3j7AU/65xgjOgahi75h8lbHuzlCNehsXtBYjLge87lCyhqU3KB5dt/gYxF8DIDS/zPPo+PEtyuH+JTkB0EYUkQDIMdSzhk2uHmbqMXxMlwLAYKfmSN4Vdlr1/aDMJh5z/1Uz91ZBB2pT3WZTcBptnDXbOoTlRAWDINlWfRB6bF8fc8JfLcKhUD0DnOyUI6bJcQZDEQBI5qGTVFWiUQyS8DPZepDMyNklqZiwRxxp7vvtrhoI2Vn4FZIxBRkxnWzjjOzmWdImfH0GuTrYg7j4/5nln7ptfO5Es/kLQlWBv9MqI1WAz+HHEgHJx25eRgvBNhx5Eybx8RR/IzBkgEIoLoIE6yVvqYTJE+ZImB0dUlCPXt277t2451B/q5q61FGZGDXjTUNjMvITrL6jyed+g/7uvj+uIT6YoM7JimZ60/eNGLXvS4Fy7d18Y+JJUBcd3p7+TbIsRv/uZvvl6jw/k3Fh/+4R9+vT6KA5M926BGkIDYcU5wpGeseZIR5NBlg9OB8wL0c4DH7mv7rqHaKcjuYXuyDpz7On4+oPZU9+4u8xzSgiCsQ4cJ3Wvx/U7bahNMrV0WRW8gtIQj+Z39iyBY++D5RvMbCCoP4eu52sc/K4/PI/MlX1seooOkLTlcgoAsIi0I16E3b3nLWw6CwElzTtgPxif1WyVWWZ5ZKBDGyOqQ56tsnXbfzTtV980YFODerAOnvQtjOLSNFJW9BnAWuIHRRlHhMitRb89yEBww+S0ba3C8GIngyct9AHWjXnLfxTXdf7C5d6weN7ja5Pqye4a98+kyCObLN01IZhiy8a4dCAyCoL/r6DazshmTHbud1qEXfe4ZDhtVkLN+9zeSdqMxAHiMcLMVm7o0Bth59y1B2j3Gsi6B8mtf+9rj4B8k2XNda0tZz/kN6PT33fq3ekCvks/59712qW73X3puHdGlLMfqIcC3VdVLfhqHphe+8Au/8FEG4Q4Hn30b02TbtEJktcWJ2XOntjYVF0HtgCTTaAIhzqvfd9ePeWxYxznJZq4/WPtYu1qCcCYPfMA6JE4W5sNotr3ZRna6Uwewo+e3fbAD/oi2u38JAmyDWfyBgOScsaxdXoxkKNW1/kCwskFXcjK9iyBI/W8AuuWRrTFAgpYgwE3bHHfc+DH1nLHyjHmVBffX3x/Y0BQDwAdkOrQR/rKQFCwhdl//OHpgo+MEzuGeB8l9Z4JwTksZMIOxAjcYew7CpdSOtHdlYKBLJHwXDWPd6+w4OAbLAazhkEX32tqHkbmvugyItB4Gakpg57rUSzkxQUbNAETaFN9eVwrRfbZXMmTyo7zaCoxW6buGcZMnA9CGVf5LZSzwcOK7FoBs3Ldjv7KV1dgsDiaNeJ3JIUMxplKMiM8atpXYlbGyqa1tKWvP//d93/ddb0OVJRI5qWsdMPu65HRvxYdUln/6sAYNeHcM6Jl+nJ3/rRCEJba+K087Fmzp57Oe9ayrv/AX/sLxKmHPsSsy2D7drlxuRXZP9XvIYWVgbBbPcp6t+egY8De84Q0HjqyD/azP+qzjNeXGQ0S9WU82TO/hIUxYHIEx2rBYLiDpnnX2Ox27fsNUqj5uUEgvalNYzo6SwTp+QQ1bWge8urxBk+9wFMbAJySj9qzT3gyCI//5HsHKYrlMJN/Ytf7vM/wLP7S+VpZEwLhk5Oxr+BfB3pmIke3iELuEj8ZjA7dtw8EL/vf//t/HLgYP6xDmtqyugjiJHqYsgBuou1ZZlKXf7Gfdgdk0zXnFu/LWoVfezivJDFwiCBR4o8FN+1B6ILqkAMt0baPXjfg3/d7zlwjCpX4or/INLpaPMZ6JzirVXmuszm1apUdMEARnCTBeIN/f0uo36qMpHyCyJJLMlsBIG7qPE8OS0z2kZftBFl3flBdSIcrY+9YAgNBGOpj1uTxgeiYIe3gM3WBALUzq9LpXv/rVjzsEiH4GKHShyE7dHOvZMd+Kc9SX/UQQ/AYQtk/rfJY8dM/NCII+L0EAWnQd2PR7/SySdSpf8osgdFASHQTsZ9J7s3Y81Z373W4fh4YcGz/vM3nJS15ynPJZ9uBd3/VdD5k3RdeixKYX+oRzdPqcVoflAhLBHrtfGxas7OLxnV7jxHumNu/aK+Uh7+nnTmFbcL721fOIjbL1Q71smL2tfa2NCWSW2K4s1rEKEtcn9Xx/IwjqlZ3Y9i3hIr9tHx1f7Dwv9Ef2+NBL/goGelfS+l1l7xkT619830BtiRN8u8YRJymuMgIOoF4BUrd1fDMIBCSFxNmI7DZSICADeI4+b0Q4lEF4lJlDqlMO0FgHhCAgKcvIz+lyhKhPTg34rhKQ08Gu3rFlzzNLEKrbvNXWRWH3E1NFnLB2Sm8AjQslXTJnrBgCBaYQiI5DrfpbWupSecZIZMxAEYQd1037rx6tE2CUCNGZtDioZTMIy843IgKY2P45LYo0Jk86cmkMZBAYi+d6hoEhZa6ZsgmQk2VZhG/4hm+4ev3rX3/1xje+8Xq71JI8IGn8bsehkBs7W/kr7xLRWce7JHdle6P2eJZO0cv6g4CSIccf4DmkpZMoP/RDP/RYUb/kTR+UfyYLtyOfd8Zn6PGO32Z4yJT807cWH371V3/1495yCJ8///M//5jWobMI/zrPtfsNXBZTF8thDIexwd2SU3iTDiISfT9nEM5YDjv0tTadMwjrh87ZatfOBEEApV9ngoAos8nV4yUIfe9/su+z8jY4YxNsa6N/PmUDUDIzRmQt4ufjOHp2f86ad59pjw0yPZecEDG4wCdrQ3VuUExG60OPKYY6F/vPofVPwRsNLwjvIrgK5YAxrRq0C1ucJLULWWocparOZWQc5irwnqYnIgNyCQibOg90bcE6a1NC7Z+TD1dxKo9BGMBloBs99rxrHFWfHOEO4LJxc4O119Y+RlTk5S2Iyyy3jYAZ80dmjEF1mQc2xbBps8rPGa/xLhsXNVs/IWO0EQeQQJIYG+Ow4DW550g3U3NW5tq2L2uisHuqpG2OnG5l7KKhTV0uEQGGyI3x3ZPcRLtLNisjkNuDuxpr2YrGwKlsMlc/+qM/evW93/u9V29605uuWl3ey4uK+N785jcfGYbNpCR7oLEOYeV6dnjVX5vMKXedY01mdKR+iHoAgIiDjvQcmzjXCcD9vkTR2Cw5ZrvsHSBrU7rQWREvfvGLjy7VTv/JQR1b935/Z3T+N2vzEgPfjSWnIiOUHNjzX/krf+Xqa77ma67tiZ1VV2dxdPZB8mezZ0LIMYiUN4rc7G1tSfe9IdEiuz2pkBNXBnuhD7IJsA1B7+/wpzbsWwthxwZ7bIROs4Hq8HbIrjkZdbMQZ/+iDLieXOtzNlpbOX4y6z5+iH9xH5yX/bAmTzAFH5xGuLKFxdohO4PoLC7rY880HvBL4Auj1VuZcGbHynopix6rAwlYEsPmjOmBib3N0eCJ/tyI1SzrlEHYxhDq+VOnATijMRibfjkLqEZuZAeU1hmvQlzKIGCniM6yzXNEacAQFYx0gV279WOFzKFvPxqYfq8MMuCMPauP7kE6gOeCP2BVxjp+sl9HYRHlRuuU6uw8K2vHTzvqs/nLldnZWSBmQEi7/c3YznKvbecpBgYgwgSWy9LJDWOmsxw9XUYiyZtjJRM6vqu5q88ahO63SHGjl/qBHAC3BXUR0Tx0wQQAABm7SURBVC7w5ATWGdBrOuW5s4NBdCNLskL6ro8ihQWAJbyrm9LAZ+d8JgicOn0gg+6jS3SkTEpnHyDPAol3eZd3ObaIftAHfdD1NOPa7iVi9HQiCIKsdGp1v98bs87h6MVLHYqULnbOAZspS9MUzp/5M3/mmG7oOgfMFkSpMHv1p/HsPk6MI/UpQvbZ/TCmT5iIvG7AKLPR52aQFsuR122rdP6NCAIMof8bxPUMLOJfyHH9wSUsh/lI7gaq3jMDeyvzjOXbLsQIhsEf9njJv2gfe4ZVnpG5E5DJIFwiCIKBHUcBTrZFJ2rfkqft11FP2xw5Iw3DaoHosn4sjuM02O410MvUDPSmOjC8ZZoyF549C2idjkiUQe2hEbXBv+3LGorrhEOpDIaBXQFzOoD2XPbW271Sbe47gy+5kK8U0Jk8LHFLBpSbDJZMLMEAvJ7pk7NDEBjZgnTlLQhov3ZxKsae7NZZUzypsTOpUgemvqlAcjIGSz4oMEe1OqtPjfMZhDb1t7pBXhwWo985vI0kbK9cEr3y910mo/LTTVkMEcKmdLun60vSltkbm81qLCGko5cIArvcyKT6znOqxrv7lkiQizF3H90DRN0XYWgO/Fu+5VuOd2s0N87xtDe/w6Y6cXGJH51ZW6DvZ5L0sPxtbPVzcWQdcnrzb/7Nv7n6qq/6qqvv//7vvx4XGJvsW2/wR//oH7169rOfff0OFjjCxtaBLkFfDDUmsPeMlasHbAuxqB1S2rJT1oldwnL2CS+X7MPN7lmdYAP0cB3c4nLP6GN6LPvhOXbmGbZzI5/HB7H7xXK2sMESgg9HYJc2rT0KRmFYfy+WbB/JXEDT33Z/IQjktVh+7i/dY3fnvxfLDz37H//jf7zdSsg6l1J2PGcXLX4pamlBTCmPGh1zqSMx1RQjYIjVcgoJs6ihrU+V49CY/t6jPwlrnVrld1919bvoVYTeCt6Ycr8Dp8qxXYeDr4y2nSXQ+mRhXtf7u/Z56dSyzq5XnhRbZTQQ3ftzf+7PPeqk2PW5FFW/dX9tT05ePFRbk1HyS2a1uWuVR9Gc658iM+zdMmcxXoOObXOSlVkbKrcyk60B77faW7uXtSIIDKPyu6+x7rfzVr3ab1pmo3COXbq+qYSimeqvvOTf98Yt+TpVkhLXvtpbX5NT49G12te/rvV7dTIufUxPZWRqn1QoQwEuMizVVb86t75/xpQheYkJZp3OyCDQh9pmO1n11N7GHgAlx+7dl101nggsQ61Ou1v6zfgCyeo2JbfTJbtdNbm6T+ZjARDh1B91ACBZwOrcPenkJjJZ0gQgG6/GWmake5Nnv/fbj/zIjxwvD8qh/byf9/OOvnrBTbJpqqGTJ9mYMVjg46zYSHJ6WP4ZU847GSN+iFmfTVl98Rd/8dU3fdM3HTbefY2VM0O63uFc7Wb4gA/4gOO6551kyUE2ztlSesVOV9e7z1TgrlFKn7Ot7LnxZRONhwWTHLrxgxEctRMItal28gfZY1jes0j4BgwISNiUjvXP1JggKXlki7VPELAEofaRW2VUD98giu+58Ka+ysyEW2Vu+l1/+83pqd0XlrPLymqcYJapg9rXfdXLZvgbes7nVTYfvFPY1VUfLXzmC+uzqYfK6Hp1VSd8TYZ0o2twGUFAaLrPOTzrD45dDICU8npomTzHY95LROReUeo6NM9stoHSSlVJq1ifcI4Igd2yYqxuCcLuVOA8tv03ah9ni+lu+5bZAjJRKgUAXEtyyHPnpoAz1ikC9vwOkHqTDcNZllzd5CziWOYPzLX5nEHYFPBGcDcqg6OQJjyz+WXJQL17liHrJ+PlMPtE4DxzZsKb5Vinb+uPaH7LxrjJz3P6WJkyPP1G75QhZVrZ6ZZMiHHWZ6lE+gB4bSXL6ALT5CL1a/3JZhcaE6QXyTjPMSIgwBCRQAARDm0AgIjlAqgpOTqG5IpMdn/12vpGcPULWVgC1KuHewWxdUHm0IH1+7//+x+nTr73e7/31bu/+7tf74ZaezWmDwsx2H7AxSU+kesf/uEfvvpP/+k/Xb3mNa+5et3rXnd94Fn3m8Yh/2c+85lXbWl8znOec/1CpnWy9LNPZER0ivTCGcEH24UXdHtxBOFdkipokg2Wzd3Imk0rW5AFf7ft8AvZ4Ej1Q+CBHLsOC9c2BTD9xr/pzwYU/BhZaDvc2F1yi+VwRFYElpjeJeP1X8ZE1mUxiq2uv6In9R8Rq892BVa36Tz+Bc6ZVthyuwbPqkegLmjkmw65tkjRwFb5CmgF7lqNMTAcvwINAoBaBdNgYFMZGsbpSrtiwpWz6d1VbEzTwKxSUd6dSxIdaZMUUH00AD0HbJfc9Btnp16RLVZoAKT/OD5rEPq9/9p7jg7PY7D9Wie+BkZ5ayuyRIk2Qtj7KBUjqj9SWRvFkTuH6b5+P4M34Ol5YIa1kjvmv1kI5SxBYKgLKAxK2l9/K1t5dHWJV+UbD/0gPzrS8+dIvmdkpMgTkQUcHCuy2n2yM743pkuoAdyO/YLomVSRASADbHSXXiyAAi9EBmCwsX7vP/LKZo3bynZ1xFjt7g7RSf3sOQtgIw6ttH/Vq171uAOlyKz7Kzty8IxnPOOq6Yc+RVBnUvAwkQV6mryS03/7b//t6r//9/9+kIMiVhlJu0GMX8953fr7vd/7HVmaX/pLf+m1/nNUyYozgs9L2ukOLFpc71k4uljOxpZowE3+QHlsqfaznX67VN4l3dQGdskHrG9wbdsOu2ER/Nkt8eyFY96AZO35jOWIfPdwrPD2XMYGZ+t89QsJXuLQfet3YBi77xn2vARhF/0LBtjijdq3Pn5J2gZli6mPve1tbzsWKQJTEXR/Y01VaptHAy+lu6nQPU6yxoqoACBQ2qkDjosSAHzv116AMmjSKuuoCZ+TBdB2OyAcSEr1Wg1O0VOwJQXK3xX0VssC4V0EyKGbF6rt+7ImGZMtbwmMgVVvddWeZcmiNA69a0Wl0ts7Bli2ehmH1a3rrKTpe8bOBwZPkREOhKi/jW3frQju/kt9FJFj2HSkT45lnbYdHcru+foiYlX36tklNo9w1KbAt/IALbKwukTnlizREXagj8oDuqKh6sDoV350TtmV533vjYFdRNKGdIne1v/6sQSm8q1S5lT6zbSJKYElqJ7pHnav7cCKnNg6mdEr2YhzepwDrE2RhFe84hXXDktGpGe9iKa0LJvud+OFJKxzexiyCfTrrHvpUOOBuG10SD7p1Ate8ILj+OoIVfrArjiTxTYOpLIrg15UxxKJzR5tcFZZXbNaX9ay8mSHZDbo9GJx963fML4c/G7TE3iw4T45xvPCaiQAmeWHFo/W6fJl2U718HFIRfeyOY61cTIVyE77zZRc9mTqTPaRrW/En9yrFyYgCAjT+g0v7zuPgfaeg0zji0A3Pnb7yUh7pntgu6Dm/+vuTm6mSIMgDIMRWMGNOxbhFB5wxw4MwAbEicuMosWDXqW6h/v8Euqt6ltyiYjMqm4U3M6H6bByxz3+N0cbFzgIqORuMEHMqBukwdzvi7ZL0MBhSGCyzxil1bCqZ48qMUBGuQmkKl9EQ3CoXjeGa2KtjFutSlz7pRglAHDdWFV4HQOZukZNSHDa1tev+LS6bhVewlQlIlbXvogMxL99LaH2vj3u3GcCgYJUoVPWW3+TssCw54/A+f2zz+wC+NpBkByAhhBVQRMpvYelnQudm/u1xI2nwq8PVDPE5NbkHpZWTqqK+qDxY1621XqrD1wSaGepXYfabGvYH3Cp4GBPl0uA9eYEVkBTa1DSuwHQXNqJO854Wx8AtUfADfiBqZuEkX9zrsCoMt15jS1VENGwtvnuvP/8+fOjUtZNsi9VjzgQo/83UVBhI4bssUIb2bbTAmfXNZgweP/+/cPmA3FFl/t82homesU64SUP4NzOEXO6njpfy4+9hw+Mv9fyascuXkpqjlP4bZ2t0HeOHBMT7XyJZ5gKL+T3M76C17Bs+7vEejvKLXzLB0hc95FA2D5gEeG0YwmJfd7CAH4XR4xNmNd+zedXPoBFBIdunFwivnrJvd+mU+CVGwgGeW9Nj/3/+vXrnw2qW2Dhe8+GtYJsTpBreSJpBt37wFL1s88YVwuMQKDkVNFIp60g7UyB5judFNizdgvSMq4ugcDdehrMFK6bNeyXUBKgwHdrkpyqOPslgtoZoHyNRwzYA/s5l7AAoOzOfsTSrXaBj8Tni43v+neT1/EAmgDY+SoSvhKIVDKw3xj2hagQDMG0cVXFbO1+inu3MRLaOe4BIEoQLIICOMQC0iIwJY3zCthb//7MJ3G00iWi6r9qm52ApTwgeDe/HCpp8yOwNodYAiy6AK3aVQGNbTGnmuQHPqtYkcu+WQH8kbtzm/N7Xnzge0KlMQ6UFQdb227c3df0vnz58rgpjc0rSBAGQgJaiI1P6zv5orOGUKydv1V47UrML8aWX3zLntYgtu0b7jnPuD0fjlpT5yAKSpp7r3j77t27xw2fu9fg06dPbz5+/PjAmtlu8bbOC+xia2TL33BE/CNycVmxIp4q4uHVxkNyO6ciFplYi8Jt78sDuFlBKk4UNook3OH8veY/MQrH57+OrbiAAzhHF7X+IXJmUwJ57xFdigwxgJj5fvZiM4/WZ83NW5gNM+wBdjm3WF7RQ5Dgua0ZRsE5+8ML5TtFWm9qhDNij/3E/8MH6yDsjSlSd5Azzr0JAgBKcKCpMnG3qEBACP2xHImiehUIDTCEhgBmtCWEDgeV6GaYCpI6CwBpX/kxKHM+U7EzGhCWIJJCS1Z7DQhsHASHMO197yMCTt6+Jih8W4T4mZ1WTbMzp0p8wYnECBRqmbL2I0KAiNDacf1GR4HEHtnG3dLe3+M+uwKhFbREc8li8+45YNq+VElAaufMnn5J0fg6VdtzL6MQru62BkjAAsEROwUNdgIKm9d1b7HGV6rgjd/LWuZbou39+cAeN9cFjlb/5kVMG2Ndph2jhc+nSNmlpr3WQhTPiHC+WmwjHMC043aOmyPnB2Ko1eCeA+yKVz5YHGmnIhUgYr1ycMdtLDkiZjfu/svsr1+/vvn27dvjB6S299mkQolYBW722HlL9C1aeozYL2iWIKyrgN1jK0T63HzsdMfpsa/WXJKBMWJi9pso2P9fsf+R8cOHD3/Eq/iZv4cd+5MHSHG212YmEHXSZmeis2Lq4tfW5JIX8bfj3ZSKANkOfrnvAB8QPHBjx1fcsE/Xt7nFZouQisnta3zwDCs3F2HUopTALM7t2MUpfIW3vaRCGBEwCB1HbY2wEnZt/cMVnUOcp0JvQdjuDA4hDPiAaGM/xykI+F5uw4qdp/vhB+EUZs+K0todN/4RCH61qeqDuuNoAD9gRKRIwWczlg0BRz/uAqwpy52rrdJLDG1XCcb+qlSVsrlUmZQa41X9D5B9RRMozRCMpc1FFW9u1QmC3Gt3gHPM9kEsEQj77F5iANybU2IXaHwdkg9K/AU3CXCVourLZRQkaY9Ix1cy58f96ZhY3+ZyfbBgUJsRkZQ1sbRHAkulIfG2vnYVCL2KEe3EHdd7XbTGAICODfUMANqF2dorEIhS9y3wATLa8dvXjiOq+Js4JALYrCBk7TtHLLVKbLW+eeyRsNseW4UQJkgT2QMelaEWonzbeLp1hE4rdIA8W1ZsIoP5i6+2hr3eeC6HiCuAWIJvjPCVr/7u+K19X9HbTXkTDPup6u/fv//5xckKAvv+G3EjGsfLW6+bw8ayx1dCAPn1uCsKutYrDMSS2GoHASYt3/f1tX0ddN/o2H8Pvm947Ot4vvYLR2bL7WOPLo2xp8qXP4aV8xUc3XnzI4GwvCK0d8ximhCVP4o9gnfn9mbie48NgSnn2okwxmywdRGbSLZxu2N7KWzrUagSVrOfr18XA8sburNynVhi+3IZ3GQLuY5Tthe81vHsUUHWmOl9WDtu81ag71hFzfbY7ohY4oPZDUfhl42nm7A1ydNexiQQipXtWpe74XcLnEe875cUVd0SCfh73eAnFiwYGCItAIFkvd8EoV6B8MZXiTKktgenUzclJO/t2LZ5JS6HIQljeUR+HKgzAkT2SP1KHGNbBzBCDgWldjha0SCzu57ukXouwLAh25YUBZsxG3yeEwhtZbdL0j3yGzKgTrdGe2/AI5rus0EHMGsndr6XEABBwRxxezSfWFLZUenERwUDkeGcjum8CgTVgziSJ/zQCqq5Q7Sw2eJg51QMNz8AO593XUhpvtte7Ku+d3zzlO3kp7UTFWKz5Cnv+eOSnrEqJAAvwJMvbUubW66URArCSEw+irMKOPPYh+oVWOuuVCTc9i6iUvGyK1vUzreqYn/gyhY9p0JUjogZRIAIS3CzheqfDTbP5lDwbDxEjewQnI6gWOYbubHX/sQPMr44hoist1glP8X3xrU+WC53VMN8QDDPf8SXQgs5baw9hz3N1+6xWKDo3Ht7vvUbv7gp9i6elPP4sljenCiuFXdf7RHGynNz7TXBYc5yEpu3wCt3WdPFQD64WMmeYq5Fg9ggnAiJtz9//nz8kqJr+jtQNdwbHSSeqoei7WI4ZgtYoO98gbjP2hbePFvEKhOioEkh+Bos25Akcj713JtmKDLjASuBuM/tUQLaR8XBNeTOp6SrxndcHb3P5jRVODIznoTa+/t3rxnOLm3pSl7kewXCxiO26gNVX33Ap12Tql7A7niVsoTefszbpBD8hCMAlYjada5hbzzVx55vrF72aMUvye89HxWRbZmyjzV4fYkaiQHBHa+FKNlafUmerVf11TXZx85RNcuXvW61tbWoiAD83tORUIltTh08xCxuiQXk1G4FkuUrwntzVIip3mojvuxNV9uH+CYOtXsLKoDNmjaXGEZK9mE8ceuyRDuWwOvVj0ZVIOzYuyZ78Zl9AGcCaa8JRznRfLsYiMSsb34TjxsLxvCpeSsqjaEgcW8B7Nk6dB8J9dmqXSHz8h8cMe/8rnuk2lRR1qfFVyTb9W0cP4hHsG1N7aLufd1CeV+BYO3tfO04fNB57YOghuUEgzxll83LFogUgW/fjYMWgojQmnrT8fWprs38RNgQTmJ468OhmxMZwzbioBjbMV6J0tkfH+zRHotZ4qd8RbDhg9nbcXsOAytCFCgwa8e9/fHjx6ODQG0AoZ1Y9SyJZkhfxaGwTOL1xvCLU1T5nNOA2DFXdeo+GGfA4VsRe29jzeC9ptqKaM8vmTgHgc9gRIZEaRXQhEOs1BQ7qQqQ0yV+rVvXYQHjDC7AqFvtoZ0jSGYXl2V2nEAHMpLjEr9rUxLkWRsOMJbstSSB6R7NK1iAy/auMml8sLMkFE/AhkBQObHFHsWBz/jUGoyJgL2//UtsVRKBIdj5anbWIkfoYoroA/AAjwhWEc6+2vkbn53EOLBCElvTxnCd0z7cqCkGxA8wcK0ZOc1G9myNRC+S3hj1FfvzFaDYMcT69mMfcg74azmbW17ZI8BjQ+eLUbHEvxXUfG9NBLXfkahtxabLLdYnF4klrVXrsG94JtfFBZE2e7TDUxLb+vgKce0RRpSc2i7fGDuG6HsA7e+vBds74V1MQLKEQyvN4rJ7Tqxd4ULUE7n1VQW/9ckJ+IeokRuy92utxcYKrK2t9+nABQJ4vug9A3Cr3yKyvhYaxfKtUS7BSv7xdXaFSwWCvCBuxG05rwIGAYtbnILz2EB8bfzylVw3n/urdnwLV3l18xQWwQA54j4sXLv3e9lIMeUmRPEIN4iMnbO9VyDgE7FtDQ9M3U2KlKvNAjIbl7CUdYlB5Y0IJGyJcOM5DkAVhBlBVW8+gW7ejqFikXyqcCIDaBtjhrLPPZcUqhtrkBwCwesGRCtKNgOMtVlBTUVpDZvXscYACIhQwnbMzQ142NhY22vXwY8IroC3Y/mxthG4FSNs5NH6tDKRBIFT0tk4fIDEd1zty05UsWqQMCpBAvie73Pnq17sUTKUBD0XP2zofaJlr1XhtSPfdD31rRghAPn2WR5Yg/2yF5Bh1xISMiFeGztsXgHSfW58XQJ5opqRv/JZbIiH5pAcLF7IF/a7Atd4YpUo2Ps6HI3rVmxsXRC33l4brk8QBNK1D7YRR9bjffbSBUQ6Jc8WRvCBTepvsSDGCGCE4Z6dii1kJya2fh2Z2UnnVS61OuweK2jgaONYjIkZ3ai/2d3eERzBJQdV4c3NVzhXLN/59xJD8Y3oeIXlbGgf/Fh/yydr22Nj+MZ4ccl+zQMTxfXfsNw6NqZuoaKGL419/Xg5r5fnjFEsL8btuT0Wz3dei1Nzi9nHPQiAm7pCnn8OivrlQKq/AXCBTfISCIKRcSyuQVXyAF6bQ2IWHAQ61alyFwAFtyap5HO+IJrDJLa9VOhULAiqm/ycQuH5WWMO/C+BUEKvqCqwCCpJZI9NgAo9AM3xFS32aw/27Hx2L6DwqQ6EdfJpiaVkUOBtItROjQN7vsl6Cb0+aWxen3ZP9ilR7r6N4xo1gSA/NieBcNfT9W5OXSbCeMeLe6RzBQJgaNXjPJdstI+tqbEjn5GLNVWAuLFqe908csJ4/FgwbWzzrXwsMO75M4FgrhK4eNx4s8tsfjs8FS3whg/2mfN0t+wf+V/yvCReQBabfNIfPuM3+VIsugLBHsWxx81FIOycjaFS9tnF4b0v7/dYQW29s1lJEZHKz+Z4ce8KBH6tQHiFvRU6FQi9hFZ/wSLjKTRKfPusxZ6YLZaLye7R2PzGLosBpA7b7dn5FQgl2Nqs4rVjN9/xVcn48pW171iCX/cERvaY4q242HorWoYtFQg+l5PyVoxUILQryy897l/mafsgR7mSVwAAAABJRU5ErkJggg==;" vertex="1" parent="1">
          <mxGeometry x="351.36" y="250" width="418.64" height="190" as="geometry" />
        </mxCell>
        <mxCell id="inAHwRH8JmEoSRbN4Fz0-25" value="LOGO" style="whiteSpace=wrap;html=1;rounded=0;shadow=0;labelBackgroundColor=none;strokeWidth=1;fontFamily=Verdana;fontSize=28;align=center;comic=1;" vertex="1" parent="1">
          <mxGeometry x="60" y="670" width="200" height="70" as="geometry" />
        </mxCell>
        <mxCell id="inAHwRH8JmEoSRbN4Fz0-26" value="About Us" style="text;html=1;points=[];align=left;verticalAlign=top;spacingTop=-4;fontSize=14;fontFamily=Verdana;fontStyle=1" vertex="1" parent="1">
          <mxGeometry x="100" y="760" width="100" height="20" as="geometry" />
        </mxCell>
        <mxCell id="inAHwRH8JmEoSRbN4Fz0-27" value="Company Infomation" style="text;html=1;points=[];align=left;verticalAlign=top;spacingTop=-4;fontSize=14;fontFamily=Verdana;fontStyle=0" vertex="1" parent="1">
          <mxGeometry x="100" y="790" width="150" height="20" as="geometry" />
        </mxCell>
        <mxCell id="inAHwRH8JmEoSRbN4Fz0-28" value="Famous brand" style="text;html=1;points=[];align=left;verticalAlign=top;spacingTop=-4;fontSize=14;fontFamily=Verdana;fontStyle=1" vertex="1" parent="1">
          <mxGeometry x="100" y="830" width="100" height="20" as="geometry" />
        </mxCell>
        <mxCell id="inAHwRH8JmEoSRbN4Fz0-30" style="edgeStyle=orthogonalEdgeStyle;rounded=0;orthogonalLoop=1;jettySize=auto;html=1;fontSize=21;" edge="1" parent="1" source="inAHwRH8JmEoSRbN4Fz0-29" target="inAHwRH8JmEoSRbN4Fz0-28">
          <mxGeometry relative="1" as="geometry" />
        </mxCell>
        <mxCell id="inAHwRH8JmEoSRbN4Fz0-29" value="Louis Vuitton ,&lt;span style=&quot;background-color: rgb(255, 255, 255); color: rgb(32, 33, 36); font-family: arial, sans-serif; font-size: 16px;&quot;&gt;HermÃ¨s,&lt;br&gt;Prada,Chanel, Gucci,&lt;br&gt;&amp;nbsp;Versace,Christian Dior,&lt;br&gt;&amp;nbsp;Burberry........&lt;/span&gt;" style="text;html=1;points=[];align=left;verticalAlign=top;spacingTop=-4;fontSize=14;fontFamily=Verdana;fontStyle=0" vertex="1" parent="1">
          <mxGeometry x="100" y="870" width="180" height="90" as="geometry" />
        </mxCell>
        <mxCell id="inAHwRH8JmEoSRbN4Fz0-32" value="women&#39;s fashion and accessories" style="text;html=1;points=[];align=left;verticalAlign=top;spacingTop=-4;fontSize=14;fontFamily=Verdana;fontStyle=1" vertex="1" parent="1">
          <mxGeometry x="320" y="670" width="240" height="20" as="geometry" />
        </mxCell>
        <mxCell id="inAHwRH8JmEoSRbN4Fz0-33" value="Clothing" style="text;html=1;points=[];align=left;verticalAlign=top;spacingTop=-4;fontSize=14;fontFamily=Verdana;fontStyle=0" vertex="1" parent="1">
          <mxGeometry x="320" y="720" width="150" height="20" as="geometry" />
        </mxCell>
        <mxCell id="inAHwRH8JmEoSRbN4Fz0-34" value="Pajamas &amp;amp; Underwear" style="text;html=1;points=[];align=left;verticalAlign=top;spacingTop=-4;fontSize=14;fontFamily=Verdana;fontStyle=0" vertex="1" parent="1">
          <mxGeometry x="320" y="750" width="150" height="20" as="geometry" />
        </mxCell>
        <mxCell id="inAHwRH8JmEoSRbN4Fz0-36" value="" style="edgeStyle=orthogonalEdgeStyle;rounded=0;orthogonalLoop=1;jettySize=auto;html=1;fontSize=21;" edge="1" parent="1" source="inAHwRH8JmEoSRbN4Fz0-35" target="inAHwRH8JmEoSRbN4Fz0-34">
          <mxGeometry relative="1" as="geometry" />
        </mxCell>
        <mxCell id="inAHwRH8JmEoSRbN4Fz0-40" value="" style="edgeStyle=orthogonalEdgeStyle;rounded=0;orthogonalLoop=1;jettySize=auto;html=1;fontSize=21;" edge="1" parent="1" source="inAHwRH8JmEoSRbN4Fz0-35" target="inAHwRH8JmEoSRbN4Fz0-39">
          <mxGeometry relative="1" as="geometry" />
        </mxCell>
        <mxCell id="inAHwRH8JmEoSRbN4Fz0-35" value="Shoes" style="text;html=1;points=[];align=left;verticalAlign=top;spacingTop=-4;fontSize=14;fontFamily=Verdana;fontStyle=0" vertex="1" parent="1">
          <mxGeometry x="320" y="780" width="150" height="20" as="geometry" />
        </mxCell>
        <mxCell id="inAHwRH8JmEoSRbN4Fz0-38" value="Accessories" style="text;html=1;points=[];align=left;verticalAlign=top;spacingTop=-4;fontSize=14;fontFamily=Verdana;fontStyle=0" vertex="1" parent="1">
          <mxGeometry x="320" y="810" width="150" height="20" as="geometry" />
        </mxCell>
        <mxCell id="inAHwRH8JmEoSRbN4Fz0-39" value="handBags" style="text;html=1;points=[];align=left;verticalAlign=top;spacingTop=-4;fontSize=14;fontFamily=Verdana;fontStyle=0" vertex="1" parent="1">
          <mxGeometry x="320" y="840" width="150" height="20" as="geometry" />
        </mxCell>
        <mxCell id="inAHwRH8JmEoSRbN4Fz0-43" value="" style="edgeStyle=orthogonalEdgeStyle;rounded=0;orthogonalLoop=1;jettySize=auto;html=1;fontSize=21;" edge="1" parent="1" source="inAHwRH8JmEoSRbN4Fz0-41" target="inAHwRH8JmEoSRbN4Fz0-42">
          <mxGeometry relative="1" as="geometry" />
        </mxCell>
        <mxCell id="inAHwRH8JmEoSRbN4Fz0-41" value="Watches" style="text;html=1;points=[];align=left;verticalAlign=top;spacingTop=-4;fontSize=14;fontFamily=Verdana;fontStyle=0" vertex="1" parent="1">
          <mxGeometry x="320" y="870" width="150" height="20" as="geometry" />
        </mxCell>
        <mxCell id="inAHwRH8JmEoSRbN4Fz0-42" value="Jewelry" style="text;html=1;points=[];align=left;verticalAlign=top;spacingTop=-4;fontSize=14;fontFamily=Verdana;fontStyle=0" vertex="1" parent="1">
          <mxGeometry x="320" y="905" width="150" height="20" as="geometry" />
        </mxCell>
        <mxCell id="inAHwRH8JmEoSRbN4Fz0-44" value="Glass" style="text;html=1;points=[];align=left;verticalAlign=top;spacingTop=-4;fontSize=14;fontFamily=Verdana;fontStyle=0" vertex="1" parent="1">
          <mxGeometry x="320" y="940" width="150" height="20" as="geometry" />
        </mxCell>
        <mxCell id="inAHwRH8JmEoSRbN4Fz0-45" value="Account" style="text;html=1;points=[];align=left;verticalAlign=top;spacingTop=-4;fontSize=14;fontFamily=Verdana;fontStyle=1" vertex="1" parent="1">
          <mxGeometry x="600" y="670" width="240" height="20" as="geometry" />
        </mxCell>
        <mxCell id="inAHwRH8JmEoSRbN4Fz0-46" value="Login" style="text;html=1;points=[];align=left;verticalAlign=top;spacingTop=-4;fontSize=14;fontFamily=Verdana;fontStyle=0" vertex="1" parent="1">
          <mxGeometry x="600" y="730" width="150" height="20" as="geometry" />
        </mxCell>
        <mxCell id="inAHwRH8JmEoSRbN4Fz0-47" value="Register" style="text;html=1;points=[];align=left;verticalAlign=top;spacingTop=-4;fontSize=14;fontFamily=Verdana;fontStyle=0" vertex="1" parent="1">
          <mxGeometry x="600" y="760" width="150" height="20" as="geometry" />
        </mxCell>
        <mxCell id="inAHwRH8JmEoSRbN4Fz0-48" value="Forgot Password" style="text;html=1;points=[];align=left;verticalAlign=top;spacingTop=-4;fontSize=14;fontFamily=Verdana;fontStyle=0" vertex="1" parent="1">
          <mxGeometry x="600" y="790" width="150" height="20" as="geometry" />
        </mxCell>
        <mxCell id="inAHwRH8JmEoSRbN4Fz0-49" value="WishList" style="text;html=1;points=[];align=left;verticalAlign=top;spacingTop=-4;fontSize=14;fontFamily=Verdana;fontStyle=0" vertex="1" parent="1">
          <mxGeometry x="600" y="830" width="150" height="20" as="geometry" />
        </mxCell>
        <mxCell id="inAHwRH8JmEoSRbN4Fz0-50" value="Tracking order" style="text;html=1;points=[];align=left;verticalAlign=top;spacingTop=-4;fontSize=14;fontFamily=Verdana;fontStyle=0" vertex="1" parent="1">
          <mxGeometry x="600" y="870" width="150" height="20" as="geometry" />
        </mxCell>
        <mxCell id="inAHwRH8JmEoSRbN4Fz0-51" value="Profile Update" style="text;html=1;points=[];align=left;verticalAlign=top;spacingTop=-4;fontSize=14;fontFamily=Verdana;fontStyle=0" vertex="1" parent="1">
          <mxGeometry x="600" y="905" width="150" height="20" as="geometry" />
        </mxCell>
        <mxCell id="inAHwRH8JmEoSRbN4Fz0-52" value="Support" style="text;html=1;points=[];align=left;verticalAlign=top;spacingTop=-4;fontSize=14;fontFamily=Verdana;fontStyle=1" vertex="1" parent="1">
          <mxGeometry x="760" y="670" width="240" height="20" as="geometry" />
        </mxCell>
        <mxCell id="inAHwRH8JmEoSRbN4Fz0-53" value="FAQ&#39;s" style="text;html=1;points=[];align=left;verticalAlign=top;spacingTop=-4;fontSize=14;fontFamily=Verdana;fontStyle=0" vertex="1" parent="1">
          <mxGeometry x="760" y="730" width="150" height="20" as="geometry" />
        </mxCell>
        <mxCell id="inAHwRH8JmEoSRbN4Fz0-54" value="Return Policy" style="text;html=1;points=[];align=left;verticalAlign=top;spacingTop=-4;fontSize=14;fontFamily=Verdana;fontStyle=0" vertex="1" parent="1">
          <mxGeometry x="760" y="760" width="150" height="20" as="geometry" />
        </mxCell>
        <mxCell id="inAHwRH8JmEoSRbN4Fz0-55" value="Shipping Policy" style="text;html=1;points=[];align=left;verticalAlign=top;spacingTop=-4;fontSize=14;fontFamily=Verdana;fontStyle=0" vertex="1" parent="1">
          <mxGeometry x="760" y="790" width="150" height="20" as="geometry" />
        </mxCell>
        <mxCell id="inAHwRH8JmEoSRbN4Fz0-56" value="Payment Method" style="text;html=1;points=[];align=left;verticalAlign=top;spacingTop=-4;fontSize=14;fontFamily=Verdana;fontStyle=1" vertex="1" parent="1">
          <mxGeometry x="770" y="830" width="240" height="20" as="geometry" />
        </mxCell>
        <mxCell id="inAHwRH8JmEoSRbN4Fz0-57" value="" style="shape=image;verticalLabelPosition=bottom;labelBackgroundColor=default;verticalAlign=top;aspect=fixed;imageAspect=0;image=data:image/png,iVBORw0KGgoAAAANSUhEUgAAADYAAAAlCAYAAAAJBxroAAAKlElEQVRogd2Z+29cVxHHP+dx7+56vX4mtvNOk/SZ1KVFBZGQCNTyA6iiQkW0/MBPRUJCFQipICEhgRASP1RI8BdQIfGQAAHlIQQoaoGqhdKmbfpKSFSnTVM78WPttXf3Ps45/HDuvbtre1O3PMXIsr1n556Z78ycmTlzhXPO8X9I8r+twL+L9GaL9fryf1qPfwkNDlbR2kMSm4Viu9UiihOCQGONRQgBgHMOqSRpaggDTZwkBFqTGoOUEpzDOZBSYoxBB5o4TggDTZoalJLYTJwUAmMtWimSJCUMA+IkRSuFtZlMAdY6tJIkG2RapBTgMr2kZHFllZ2T25BSbu6xXDDOoVQnWh0CIQRaKQC0UgghUEohADIDAMVaoLt4BKj1PEKg9fr9OjKFymXKDTxeZv6rsy/0CUUAKb1FBd5yUgicA4vNvKIw1lI4XEistZnCEusszgiss4j8O0GP93EglMRYh3N+L6UkxtgemWkhE4y1WOcyPF4Ojh5jXBUYQKA1zrnC1QDGWLSWxffG2K5NZaG8VorUGIIs5vMwVPk+1oeSEIJAe97cc0rJrcu0ArJ9ehzTD5TKwi1/oNsbOSXZuSk2kwJnXeHFPGSd80ByUABKyh6Pd3gd1nZA5TLT1PR87tZJrgMFb+GxnNZbo1u59STlxngXgh5FO7xy495CsAnrps/30wv+SWAexBZ5N1nfbG19EnonsuCfKNDtKKZULr/Tx0nSFB0EPco550iNJQiCHt44SQhLpbe1/5Y8thlVyiWidvudPu5rUZL0rPmkI0jWrYdBQBxFV99QbDHdCyFw1mCTJsg2ODCmc4CrpVFiEXo+52gby0LbEFkvoKotNeGYTXxSCIVjogSVzMv1dsRS5Gg0EqxxCCEYHA4YDWGkFAI+gdWjmIWWwTi/70hgGSuHRQ1M07QwlOgK177AtNYkrZh0eYa1xrMk0RVUchll25mih1C3fQ4hJWmS8NzcEt/52xUuNrzinzqiuaa9wNfPDQNwTdXytdvL7J2a4vzCCo+cWeTkJTh9apG4bZBK8O73buMzRyQfmz4EQhBFET985hI/PR/TNP7U3H1zyIO37OoBJaUkTVOc7TRRfYFZa0EHlCZupjy4m/bqWTj9K8rpU8gwAv6GaH+aJChhrOXs6w3+/MQcUatMqdLmXUcPc/rsAmee8oYIdoSUjg3x8uUlvvm7Mzz2oiGJw44845g5NQvbSribDyKAi3NL/PJPlzn1WkJlsElrdYCTYpIHb8EXaem7jzxqehyzqbeCwNexvK0amWRwZJLnX6vw/FOKjx74I4NhTPLmWcS+aVZW27z89yWilvfWrdeX2T05xC9qO4AVAEqlkFq1yo8fn+GxlzyogcE17rp2hMHQNwKr9QbX7J5AZKn9Dy8uc+5yBEiE8IpfeHmRZrSLkaFaAcZmNbI7EW0OLOsWtNYYY7JWR1E+eIDv//5OzvxV8tVjv4d4Ga01M8trPPb6PDAEwD2H97FjqMpj57NuIVTsv3GcZivhzPklksh76uj2lAc/vJ/x2gDOOVZWI3ZNjaO15tziCo++EbHQznrEwCeU2FqemV/hjuEhhBCYrAH3xbrjtb7p3jlHmqYopYrieHD7CKYyysNXjvOlkx9myZ0limMuXIl5dWEAgGNTEUd3VVhtrDJ/aRWAikh5XzhPuRQwVO2UiNOzg3z7FUMzsWwfH+Pgvh2Us8Txl5k5Tr0+D8Bd+5qMDbUAMEnK7LmL/v/M6EII3yx0eawvMCFEcSitMZis77vv2hayVOIHK8eRJ1vUl9d48unzmNR7+cT0LvZPDTM7fwWTtzzOUUtbjI3UuPGGGgO1NQDmWoqf/OYCH/rWK3zvJycL2Qv1Os++sMT8oq9nU4en+PjEIAJoG8tvZ/19USkFzmGt9cnDbcFjOTicQ2ld9I61m3YjwoBIBDxwbpjTl9Z4+EVfPAeHGxw4WGawWuHZFy6SJL48lEqaI9fvIAgC7rv1IPcfH6JcbTI2OY81EbPLCV88KXj4x38gjiLmrqxw/sIiLisdn5w+xGTFezI1itff2IY1hiRJinwQhGFPJ7OlzsOkaVHDPjgxTDVrQv/sDvHIoy8UkX30ul1M75kAIJKd46uVYmLbNgCGa1W+cfdxfvT52zg0vA+JZPuuOdpG8J1nB3hzoc7jFy0nL5UQwvHR/U0C02bfgZ1FC9poNnlp5jWCICDNdEviuLjEbhmY0ro4oNtGh9lV8/ehpoEfzXhvVQPHB/aMcMO4TyB/0nuJhfdyqWIZG66xtNZkJfJJ4IP7pvj1A9PcerjB/CVvDGMNL755md+cn6VcaVGqtHlkZoATD73EJ767gA5jD8xKno87RVxKucFjm2ZFY0zRjDrn/CG1tjis994KT78BCEel2qQRD3PbDsmJfX4kYK3j76cukyYWIWB65xILi3V+8fR5rsgxbj8wQaUasDjXYLGe9YXCURlIWG46nnxlgSQusX5oUR1apX5ljJXI8txsi3uvM1hjshuB7OHfFFgSxz55KOWBpanPONmZu+a6PQgxg3OCNA4oDWhuOjLJ3p3jJHHMQn256PcE8P7BEvUEfn024dGX3mB0comh8TJzFxq013w2DTXcNa049+oSzUaVsBzxnv1VbpwYQyuFUoqnX4h4AohbMbMzl0mP7vEOcI40M/pVga2nPAylEFghePfEiM+s2T7bRzTvurZKpVwC5zi70qSZWnJkYmq8Z7+luSZLc83i8527W7x3ej/HD5T5wvfPAd6LH5ke5f5jBxBAWCrx89olnviZxRjF0oKmvtJgdKi2qc79e8UgwGQptLv5BaiUQh66ZycL9TowyMToACemqrgsvW+vDvDZY1XW2ilSwImbDzARaL58x17uPtzmTL1BCUdNOPZMTnBkm2P3jjHqaxH33D4CwGB1iBPXjmVzD0eSJLzvthv4ytoFAPaMVQi1Ltqp9S1V3/GbkLJQdDMSSnfCbd30Kc2GMXka01IgpEQpRRwnrCYpzqQEwNBQrbi+OMBkjaxzDiXEhgtmmn2fy+weDs3XG289fguyO1D39SAIgiw5WLAGLQVJtu6cQ2fDHy+49wLprMU4hxQwFGryYDFZh56bIchKSb5PEIaYNC3mG16mIQg6gyYdBD6JdFFfYPnFrjsMuy+AheAuMGmXkpu9ErjaWqlcJmq3N/AkcbzhmUArhJRoKUmSZMOFFf6HZvcrK423xZ93Hv3obQHr92Jmqy9snOvPWwqDTdfXk7Vbk/W2gNnuyW9Gzrmi2X0rcrgtK9aPtiqrLzBjbDa8tFjr/BRXKaz1xTAna/10Nz/c1tqiWHbzGeProJCiAGcyXiB7hmKI6uV2DJmf9XxqbAp5rsu4W+kVRe//1viZuR/l+2zYyyeKvyJ7SdCdeBwOY2x3Fci4RPFU9lPsYzKD5p9zmQLRAdO1Vzf1BVZ4IC9+omN16/xVPEnS4nUQuMzaFiFFNovXxEnaVUB9KDrbiQQpBUmSZmNs37oZa3E4hOh4pJCZpn6Unp3X3Lu+FXqLJvjMqxcYGxn1VR1XsLsua+UVfz1Pbr8NPNnfTrjkz119v63IzHnmlxaZmhhH9gPWbLdpX57r58z/Wdo7NVW8T/gHq/3BaW69hdUAAAAASUVORK5CYII=;" vertex="1" parent="1">
          <mxGeometry x="766.6800000000001" y="870" width="54" height="37" as="geometry" />
        </mxCell>
        <mxCell id="inAHwRH8JmEoSRbN4Fz0-58" value="" style="shape=image;verticalLabelPosition=bottom;labelBackgroundColor=default;verticalAlign=top;aspect=fixed;imageAspect=0;image=data:image/png,iVBORw0KGgoAAAANSUhEUgAAADMAAAAiCAYAAADyK+EUAAAKq0lEQVRYhc2ZaYhk13XHf3d7tVf3VPf0Mj2LJI/GI80iyQo4EBscjROU2BYWxgsYow82CUkMMbYhhsSfEiKCSYgJIcsX60NCQpYPNoSgxSEkmihKS7GQhWbk0ag1mp7u6WWma696790lH6q6u6qrehYLgg8UXXXfefee/zn3rC1CCAHAOcfq+iaVcgnvPUIIAEIIKCVJrSMymiRNMVpjnUNKCaHHI6XEOYc2miRJiYzGWodSEt87AikEznu0UqSpJYoMSWrRSu2eKcD7gB57pkdKMXRmrdWmmMtSKhUR22BqtTrdJGWimKe/tAPoZ52qjRZzM9PInYVmm4liHoAQ2NHmzzo575ksFQB2wQySlAIlxz66I7LO/VTveR/uXokD7PpWfK5/j2X/uqXWYvTAK+0qfmWF9OoNfKsJQPahI4hDD+4KGELP78YpZ/XC0E+hclCehWwOAGsdWquezCHgvUep3m/X9x+ldve9JRi5x2eUlOA9/r0luj/4V+TifxFabXyzS0hTAOLpIpSm6B4/Q+HLn0TMHB/2vfVLVLuvU9k6j2jd2HOghiiPn/g44cgvIXVuF6gQvYCzzSoFMCzfTgC4cu06s5WJW2EDoPndP0d+/59JGi1sN0EGjyBgpSZjY9omTylp0ihNUzpYRv7yE+S+/AWIq8jlZxDN13G+jXbNW2ixRIjKuOmvwPGP31YmgGwud+dgxMYKW7/+e5if/A/OQ8dkKCZtANomh3EW41OqmTKTcR0nZA+Y66A/dpLsk0WUWgL8HQnXO1SzPPsJ5k5+EwDvPc4HTP/q7QVzR14eWm2qX/t99MWXqes8KjhySuMqCwQEubSD9pYgFZNxnVp2Aj9/glLSxOVKdN5VxItrBOuHHDbcLk4Ey+Hr32fzrT8Bb5FSjgWyTSNg9uYWX63R/Ma3Ea+/RMPkKQWLE5KuTRFbqyTKkEZ5OlGeZPoYSEUxbmJWLpJmI9w9UDh1BbG1Rfyax3d297bX9sGQMmTAubXnEJefRboE3Q9A43LgEBghBGqAWQhB/I//hPjReWIhybkYV55BBU+GQJItob1FZIsYKYnWl0gRdHUGLxXp3DT5UyV8rozPlXHNAr4mdwQ1R8eD8XUIdnChhVj/HvHqq1jbeyCVGgoIsCeahRCw/agkhMBeXYYX/4O01SbnLB2TRW2tooTAK4NShkRFmOYNnFAEIbBSo71FRpL8vQXs+h7tlVLUlEdE44EAqKnRteDr2PYrmOQRiLI4a0d4hsAIIZBK7TCm5xex77y38zxTPICtb/aufdpFxm1Qpvfu9h4EghD4g1Pkz27tL/FdknIditULuMYGTB1B9eu5MJBkRywDoLTGO4dYfhdRvYkqTeNMBtmuoSqH8IBK2oTGTQQBGQLQC9EqeMTUAvpYTLg2qj0Am1U0zjzMhLof4erIxnO3BOKloZG/j4nOFXTrJcLMPYQQ0Fpjrd2RewiMiSKctZgowtauw8YS4fRpir/5VfTcHI0nP8XE3/0t7sZNat/7G8KlpZ5FatcRmSL+zAOId5YpfP1zqCOzJOe/Q+P+02Q2VsnXU9REm9rkPIXSo5TPPoGRk4S4TuftA8TUKHU3kO1XqRU/SBxVmK6+yubEo0xFj5A5cpraxe9ywK4ijCFNU4SUmCgiieNRMKrvVEIIhEvAJoTyJOaBE5gjh3FPfpbo7IO4m1WKX/w8uYdP9zR99Q3kxCwudfi1t5CPniPKF5EfOEsuV8Dd3ECsL2HmFpiuLCBFluTyIn7tt0HPEN3zLXIzc4Q0xt1YplyuIPJlXLvG5OYmzB0n71eJ2ktQOYMQAmPMTkTb/nvb0Jz/8H2oSq8qnfnO08TdLiHu0jr/Io3nn4NIIGemUbPTtP79JWpP/wPZYpn4hT/GZIrYV15CbFj00Q+R3twi+eFfQdLmevwidFYJnRX8xk9Ily9BNIGcP4Vvg33rVYKaIHr7NwhLi6TdDtIn+8o5YpkkjjFRhPd+NwSWDhFfWCR75iOgIsKF/0Se+iiFz3+G1l88g5Y5/NZNnPNMPvUF7C+e7G0mDSDw7RatF/+FwrnHkGqF9sU65sOBuegXCNlF/MLvEOZmabzzPOUlh5k/ge+uQmYCcWMDZBGEhM01gjlA6gXKWrTWpEmC0nonDw+B0Vpj0xRtDCZXJMmWQOdo//BNZO4IdnWZdPUGvvE8Ss8R/dyHEIfnMSemULU13MYqNqkgl1fwmXuJb15FnzpD4fhh1MEFmpdeI3P4v7Hri0RHf55k7i9J6WCalnLhIZg6SgiWZvy/ZBsx6p5PYw9+gzB7HLv+Bv7k0/iwRbGfQowxxEnSa8DYU2jOTU32nD9NUVrTfObv6f7bC3B1FbFwkPjdNTL3L0A3IWxsIY7Mjpg6XHoPcf8xKGcpHHsbce9jxFQBMD9+k1C7gj6hkQ99hiAljbBMWQxnT9k6j0iv4cufIsgcAUszrFJSDyLmP4KY+2C/nVc70Wyk0JybmuyFZe/xzpG+tkj6B39IfPEyxlm6OoMMnsinWKmR3hMEBAQqeKxUGGeJdUQ0M0X+XAdZ2uOTByRqXiD2L7H2pVB6BHfi28iJ2Z18uB2WRwrNEMJQZs0+cBJ5/AGCHk7XQUW4Yi9Nh1yZkOkFCFeeBSkRQFK9ibuS9ArLwc9PS2oCP/lRKB3snTUAZJvG1ma+3/b63ATR5z5Ldm66V8oER+RSulKT6TbwQuCdxaQdEmUw3QYieKxQqK7Fvt7FXnY7HwBZFNztnMRLw2b5NE2ZhXZzKPNrY8aD2WuZ4D3Ro49gfu23yOSzRC5FEDAuoescOji8TbE+YFxK16YEIONiYh1hW9Bcl+izhszHDPqkQk7uPRVCB9zmKIh0ua9kmScz+TiJ6kImi9IaudM+7/YRI23ztmMJIbDW4hCYTz6Olxr7u9+kbvKU4yYyl8OXpshurdAxWWTlKPmtFUQIhIWTFK69iQgB+UaduGvIPlFAHxhvEpEFlRld1/N9y9z3R+RmT5DBgdIjCt8XzDZa6xyCXlVAZMh8+lcgylD61teoZ0vk4japTZE6QnlHZu0y9ahISQham1cpI2hmSxQPzcBXv07jjCCz9NfkO9cY6TZH23lAcn3uHDOVpwjzx/orZi/T8DZ3OwMInQ6tP/0z5AvPEtodQjemg8Z4i/Y9k4tchJidhS89ReHxxwjlSu/l9UtUGy8zufksKqnhiBF4pE9xMoNEIdCgI3zli4QPfAL0LXqFAbrlDMB5j9YaQa/3HiQfAlTrJC+/QvrGBVgfLvXlwyco/uo5wuT0eA1WNwn1q9wIF9CuTbH9LtXSg+SYIi8OwvR9kJ8cVWQACEOljA8BKcR4MCEEQtge5Yyn7XmW9x7fn4ndzSjXe7/TJQ5+349nUPDgw9CsbFuWbC433mcCgTGXGOj50/ZgTvbnaPtz7wMmBCS7k89xU5Vxg00pBKg9s7IBJY6fzgxs5Jzfk5yGN5NSjgwLdwUKODdmtBS2dxLofoj1Pgxd59BX6W1JQKPVm5LsgAkhUG+1e0cMXDEhBYNZbtDEtz9oeK9t2r7Cg8ILsUfLQt6RtZWUdOJea7BzzSrlIpevXuNgpXLnwr5PCiG873+bVOtVCvkiMACmWCxQLOS5tnb9/Un4/0zee44d6mXX/wP9uy59jUcFoQAAAABJRU5ErkJggg==;" vertex="1" parent="1">
          <mxGeometry x="839" y="873" width="51" height="34" as="geometry" />
        </mxCell>
        <mxCell id="inAHwRH8JmEoSRbN4Fz0-59" value="" style="shape=image;verticalLabelPosition=bottom;labelBackgroundColor=default;verticalAlign=top;aspect=fixed;imageAspect=0;image=data:image/png,iVBORw0KGgoAAAANSUhEUgAAADEAAAAhCAYAAABwSkOHAAAME0lEQVRYhY2YeWzcx3XHPzO/Y28uuRRvkTRNXbSsW7LsWJYjpc6h2g6ay0WhIkkNty4Kuy0QIEaAokCA1kaKok3RpHAT27FhI0gdK4DiKG1iWZGFyFZ0urqswyIp3svVkkvuktzfNf3jt/vj7pJS+gCCO795M2/eMd/35onRiUmVjEVwPQ8pJAqFUgpN03AcF0PXsB0HQ9dxXBcpBCBQSiGEwPU8DEPHsmwMXcP1PDQp8TwFgJQi+OY4LqZpYNkOmiZRnr9HWaauadiBTP+/47oIIRBlmVLguh5SCuLxuC+jIRHzmYRA0yQCgSY1pBCYho7tuJiGUZrXANA0ia5rKKUwdA0BhEzDV0jXkVIipUBIgZQSQ9dxPQ/TNAAwdA3lKXRdq5IpqmTqvkzp7x/I9HyZ2VyeMulAidm3nqZJKsk09OC3FAJKigDoulbFa+gVvFLedk4IUbX2jjKlAG4vE6B6NSr45bpexQhc1w1+e56HpxZnnYo5pRSu5y2u8zzUbXg9pfAqed3F37XjWpmVFKhcDqnFMYgKxuq5ypllxhUrBbfnFYCqkVnNWz2omV6qRC3VhkPluPbQWs1c5bQfDnfg/X/KlLUaVtCySgyPT/DCb68wMLPAE6kIf/r5hwAYmcjy0tEPmfcUTz5wD6u6W7Fsh4PvnOJH4zOkwjrf3r2ORDTGGycuUZ9q4InNvRw7eZmXP57g5T/ZS7gU056nuD44xqsnPuLDeYdndq7hU2s7+d8LV/n7M0N8vT3JZ3Zt5K0T58nIEE/fv45oOLSsErL2w8jEJH/7yjnevTzJ0HSebxwY5bUDRwEYnyzwy18P8cNDaT7oLwDw9Z8e45k3B/m05jHx3iBPfv8s5z66wakzk1y+OMncwjw/Gcvx7rEsnrsY0yeHJ3nq9WPM3bhF99AUL37/CFf601z4OM37R7K8/ZsbzC3YnP4wzflzk8zm87VHrVaiMjyu3swwmsnzL5/bzgd/+YfURw3eminieR4jBZfJuiiNHQY3hseYns0zcbFIarXOU1/Zyz9/ax8r+0wWCgsoz7+YC0Ubz3ah4s46rsvwUA4jb/DH+zbzN/sfYKFhBcfOXmOhaIEHv5sJMZaZQilQHix/pUtK+HC3GFUnCzaDlktDXYxIOMTPv7mNV7+0i7mFIjeGRtnd2ciX1jRz5WaGydw8ezoE1tUiz79yGMOGf338E6xd3QPApf4s33vzBNmTI0i7GrGmcrlgHImG0E2dm+lZnBIi7UjM8T/vXag6rF7KQbWkK6VwS1lxCTwAhhZBArMFi4uXx2hqbaG7KcSh6wuMzrt87QtbiIQv8ZvheU795zvsWtfOQ+tbARibE8QLEa5pFhYLi0K12+JJQLt3dPDf7w9BU5KInyPxauC6TFIIgZByCcSW8fvbr5/gxSOnSU/Pc26gwLXBSQ5dvcVYRpCZmOVMZo49D/Tw709tZcP9q3n1ZIZfnO8H4JENKf7jz7ex874Umrm4t+s6hEPLX9Iyrbm7iVA8zPtjxeBbuWqoRcclvrm3Pkx7xOD8lZscP3OFQ5fnGLmV5/pwmlk9wopUhDZN0qxrXLo+xGsHT/LSmx+gCcF9iZAfw7/HyuFwmM5UHebCPP3DWd4bSDOSL9Lb3YpRQq9IyGDPjl4Kmcpk6C7rCV0phapw0yfXdvPVnVkOfDDEG7Yi2a3xZ/f3cej9q/S0JvjGFzYSi4T4ux9f4NSFUb7y8CoOHr7Esy+dZWZmjv3bG3l4fQs/HP34jorcc1cjf7C5nZ8cG8QyJQ91RNm7rYf3js8Cfn21dU0HHealqnW1XgAQruuqWqapXIGBzDyWozDjgnub6xkYmWTB0+nrSqFpkv6JPPnZOXrak4ymZ5i2BJpQtCcE8ViE8ekipqnTsSLGwFSB7LTF9rsbg+SnlGIqN8dQpoAAWpImK1IJbk3nGbhlc29nHCk1rg1NEY6a3NUUxygVhUophscn6Wpv8c/seZ5ybBup+VUpSvlVaKnQKy4sEAqHA0+VL5eu69iWha7riArEKPMJIXAcp6r6Le9lFYvohoHnuuiGEay1LAvDMLCKRcxQCNu20XUdz3X9skOIYM3QWDpQQgohMEyzfAJ0w0BqGlaxiFIqUMC2LJTn+RdeKVzHwTBNhJQUFxaCQyqlcGwbx3F8pV0Xz/MCBQAM08SxbYSUOLaNbdu4rotpmgghCIXDfllumkgpfUVLxjFKPJWkl63ruS5SStySUN0wsC3Lt0jpPxB4yLFtPM/DcRzMkhHMUAjHtheNUkGhcDhQpHK/cmlv27bvPdvGDIUCb5TPVvaYbVlV3gPQy+HhuB7j2TkmchYAMenR1hgmZRikpwoMVySn5joT2/XIuy7rWpMoyyIUDjM1U2AwM08qLJgquDQ1xmlriPDxrRmy0xbrWmOcHUwH+8RNQSqqMTXvMVv0USghPdqbouQXbG7NzbKqOQJCMjSaIx4xaG2ILUEo3SoWEVIyWyjw3bdO8fapCXqao2jTWTb2tfDcVx/mlbeO8t1jOVY1+hZ4dEcbF0fnOZ7LcvCvHmFtUxLHcTh65hLfeuMKX74nxDsf5Xl070b++rE+XjjwW44cG+PlZ7by6D99SF1Ko8vQWNsW5oG7IvzX6WnGZl26mqKQTrPv/g4iyQTf+dUI/7B/Le2RGP/4xkk++2AvX/vcRkKmGYRXEE4oFWi3pSPEs4+v5sz5EZ4/nOaLu0cAaEoYfPOxbpKJOC0rkvT/sh8WnYOqeNw0pyKs7tTITk2Tm8ljj9k81K6jCdA0wWNb63hiw13EoyGyuVk4Pc1jm1Ps/9RqnvvxCX5wZIyfPb+D10+M8dNzaXY3J4jpsHNVE9FIxL/oFVSR7BY1SyWT7NreRSSkc+HKzeC756ngrzajVQ6TiSjtLQ2Mpae5MTTGQEGxsj0RwKurynt5gUFVyZBCwVRzhOb6GJ/f0sTl87c4frafLfd0sKprBa7j+GhXcbd9TwiBEDVvYtNvDmRn/bSfnrF5/u1BAB7f0U5hfr7aGhUwG49FWK3pHL8+xOFLw8zk59m0fq3f+XAVvzid49z5i6xrDfNgTwSAg+emODN8Hj2T59lP92AYOjv7uvnRoRuk50JsW9VILBYpGbP6GauDHwpujYtqqSlp8tyX+1jZ0kxj3OA7By5CLhvMuyVILSskUmGKjs3hG1liLLDx7jZysxkMKXh6exOf2b2JqCEYHx2HMzn2bWth3/YeXnztKBdPjCAfF6xsSrCpt455PUJvVyqAVh/mKwxYFqob1ZXlR9cnKFoO2zasBCBkSPo64mzuSdHZlFja6aiB1bVxkzoZJT8wTyFlIkqlqBTQlTLZ3JNizcoGYlEfajsaTLauaiTT28DBmyIwRjSsY+gahrG0y1HlCc/zsC0fp4/ni3zv16fIXp1ic8hm05pejp8dYjxT4Ol/e5d0e5zPticZHS/SPFpg/0u/wgppPN0cp6e3LWgwdLbU0dlWz/GBIk/WJ6jXJTnA8RSvHb7GC9cnWBPW2ZsIISSlRoAAXeCULC4oNSxqmha3UUJhGiZ965voY56rwCP3dfJHn1hPLBpma18rG0oY0EqCeDzJmntvUWjXSZY2SiaidHe1svPBDD3t9aSSSbZsa2MwYvPorj7i0TBtzS3s2JMCoBNoDWl0tya4ry7Gqt5mDMPgL7oaMfZoWLZNNGywbVMzk9IMun3LkZifm7tt5WzbDobx+x8wZfI8taS7AeA4Lpomg87eclTmWa5KLaNYZZMtnc3R1eE/vpa+9SoWlhVwa9CgavOacdV8CTZ1XQvapLejMk8t+fnrzmtvO1P5uFGeWtKdK/NUZc5SfzZQuqY8KCfU5faqJacKLe/8zNLLQssdcfAtqmsaruP6B8O/XEr5ic43mChtLnDKfIqgY132ih9i/ne91GGXQpTe9cvIdD0Uyj9PIE8EIeUpn6+SpOO4SCERwu+yyVJz2XFdhCxDncDz/NDwlBd0+cpvc9fzreYjicArtf2FEKU7IoJkqEnpv5Olf0jlqUBmmd/nKd8PP7OX55S3zPO0f2SUVH3DkolIyKBoOaUDQcQ0yRUtFGpJfzUWNslMz1Y4fynPcmToEiEklu3cgUuV/L34IpyeyRGPLaLV/wHnRqEbFnuPLQAAAABJRU5ErkJggg==;" vertex="1" parent="1">
          <mxGeometry x="910" y="874" width="49" height="33" as="geometry" />
        </mxCell>
        <mxCell id="inAHwRH8JmEoSRbN4Fz0-60" value="" style="shape=image;verticalLabelPosition=bottom;labelBackgroundColor=default;verticalAlign=top;aspect=fixed;imageAspect=0;image=data:image/png,iVBORw0KGgoAAAANSUhEUgAAADEAAAAgCAYAAAC7FpAiAAAIhElEQVRYhdWYa3CcVRnHf+e8l93sLUmbS5OWNmmbpvSi7ZRCC4KdKloUkILIKF4+ADPwoc4o1Q/o6BcEpzg6DgLjBwVKEaQzytCBCpYO1g5QS8OlaXovaZpecm2y2c3uvpdz/LC57Ca7m6Q64/h8eud9n/c553/O8zzn/z+ivfOirp1VDoBSCqU1pmHw/2Bd/YMsmDsHM/ellBL5v5rRf2AznrMQAimn95uQEjFNXyklQoiZTif770yctdb4SoEQY6lXylcphQB8pdAlfFXOd99XJf1EAbAz3AkBWqN8H4RgqnUbB1LaU4wsitaakpshsuNPNHPiC19lV8IokAZCgBDZ97LIaFprPF9hmcbY1KUs7KtGQOY2klKpKoUouKOT/pBSFgTguG7R4LkmhMA0plkHQhQca6Y2KUKx3bQta+zZ9xWe7xcNOpMCLeWbcaa3cNNehtxdNAxZ9CzRWuO43rRiKqXwvOKLEbCtot9yrSAIz/dRI7UxmoOuNz4xX6miXUQIgWXmA/Q8v2Ank1Ji5KSe5/klu1gxm1TYkF/Unu9jmSa2ZRb8PtG01vi+wswBYpoGSulJuaq0RiuFMbKrWT+FEIKevsscbE8CUBMLsmphZdHdLwhCaT3WfSyzoEtRE0LkARgHp9DayGuhUgiYMDGlNRL45MgJ7tt2CDcSY1NzjKd/fDOxcNn0QCSGh2nv7GHfiThdQ9l8/XJzGetXL6G9b5CdLR0k+xTBmOS6BWHWLZpLIpVi57ELdJ91kaZgYWOQW5vqCIdC7Pv0Egfa+nBSmnm2y7KGGDesaeZSPMn2A2dI9voEo5JNq+tpnh0l1f4KKtPLUaeM+lQb3cn5yNlphpJJhICgbU9K10kg/v5xF8++uI/Tp7qJp7N5/686m6e2RWg5co5n/vAB8UAVIXeQvXaaX269nV3nu9i5/T3ilxyEATXVNoNfXMk9d17DW7tb2PF+LxkjRH1vB/MqLf74dB0/33WQPW+cYigyj+DQeSKJJTR+9RqczDne6DzCwkw3D9yo2fZalLa+KI+3JAhYGTZUK25uriEYCBQH0dGbpuVYL1u+toIN1zfzozcOcvzVj/jgcDsb1i7nz/VzSWjBS2+f4M1XD3DsdCdnj3bhfNrHEz/ZRPnsKh7e8Q579x9j/bpGHtq8ns0bHYZcjx8+pTj+USutbWd4fU8nS/0UD357IbWx5VSEJAHbJtx8P2uM5wm17eCmr88i47Ty65a57D+V4bs3xKjUfaTTTnEQacfFvXAeZdlcvXYZ165ZQNmHxwFBdSzAyZ4kW367D5kYIu5o3GiMYStA54dnGZy/mLtuWYfjedx3dB5vv32Sy/Fh/tmX5K873mVAx+h2DSLA2pVNfGv5KV77y0kee3Ivt92xmu/fuoygbSFEDSuXPsTuc3W83P0uqevh82skqxbX8uDyGJaO5XU0mNBiO4YztF5OIKNVyLIoArh42AUNB4/3sPlnb7EikOaFX9zCLUtDVDaYBCoMXNdH1izCskz6HZ9nT/cB8OzeMzzx6B7uXt/Arkdvprm/ncGlK6mIhXl862Zeef4B1jWF2fGbXbz+ZttYe+0b8vneiwbPbS3npV814HXO5/7ag4RMiWWZk6hJ3k44vXHSHd1UzVZEwmm6+wYIHWvl/LKVrGyYRbj/Q4Y/ew3plEcq7bKxPEj5cArf81Fdp3nsmX7+dG6QzD/O0HjjIhZUGhwa6qc8UkEy4eL7iuY1AZ7a/jcOHennoXuvo7Yqim2b2LZBKuPyydHTfOfJjylv+wSqqgjevoFZgV1cOtyKK0xmVX8OIa3iIM4PKXp0kDubojRFgnT39NEwv4JwbSXX37Ca9d/op2fPYbYcOETANrnnjlV0JlySjs9ifYF39vRQbwdo/OZGtt6+GE9LBgbTPPfyfn6/3SVUZvLAkjnMrQqze/cJfvDIKwRsi7vvXM26tY2813KM373wPlxKomtqiNx9G6saM9woXS56c7h0sZXryq4iEFucB0LkytPEcIrey5cpj0Ypj0YYTmXoHxwgHAozuzyK47qcPHuBi11xZlWUsaSxnoe372PPi++x7ZGvsLSxCssyWbhg3thZkco4tJ3spG9giDmVIZY2NSANSU9/nMPHO6iqjHH1ormUBW06Oi9yxhf8dP8wQ45iyYIYX6o1ufcqk7ByANChKNjZoi4oT8NlQULBujHqHAkFiYTmjPEb27JY3tTA8iZAazKux+CnCdLBcm5at4LqynDeCimtCdgWa1YszHvveT511ZXUVVdm6chILcyfV8d8YItKkvI0ZQbcVm8RCgYoRUamdRybpoHn+ZimgR4RL1JKlFLce9e1bPzCZ4hGgiVj+L6PlNkTe3SXtNZorSfRmHsaw4VCTA+EEAIhwDBNtFJjJBDGhU3WJ/scsC1uXXtVUTqdK5yEkAVVWykqLoTAME28KbRMQSan/MlsspDikiOA3CLU2/fH2W6uuhul6kKIMaBZ5pw/ptKadDqT964QIy6YTlPRYd9XaMbvp0LhEK7rTtK/Ew+lUStEKgsxVFEgRiFyeUXacKIoch2noIAvZqWEn+O6eYs40dX1vLw0hxmAmEpjOzlSUmldVLFNJTlHZXBurSg1Loctc/KJPW0QuRp71LLdZeR7jpSURTQFTE9yep6PZdvj8WRxOQxXmE6jli3EmcvJqcyyTJzMeEFrrUte1F3ZDeCIGUb+bVypG5ArtTEt/98CQYG7PD+nHU99JwjuhFpRSk8q1LwRxdT3v6bWmsvxJK7nknEcIqEww6lhTNPEtmwG4oNUxGKAwPM9Uuk00XCEVDqFlBLLshBCMBAfpDJWMRbYcR083ycUzOrieGKIcCiEIHugxhMJyqMxNBo0DKdTWJaFbY7WjGYgHqciVp6N5XmEykJ5kx9dvH8DaZTAApjAPqwAAAAASUVORK5CYII=;" vertex="1" parent="1">
          <mxGeometry x="980" y="875" width="49" height="32" as="geometry" />
        </mxCell>
        <mxCell id="inAHwRH8JmEoSRbN4Fz0-61" value="" style="whiteSpace=wrap;html=1;rounded=0;shadow=0;labelBackgroundColor=none;strokeWidth=1;fillColor=none;fontFamily=Verdana;fontSize=12;align=center;comic=1;fontStyle=1" vertex="1" parent="1">
          <mxGeometry x="55.68" y="990" width="1010" height="80" as="geometry" />
        </mxCell>
        <mxCell id="inAHwRH8JmEoSRbN4Fz0-62" value="Connect with Us" style="text;html=1;points=[];align=left;verticalAlign=top;spacingTop=-4;fontSize=14;fontFamily=Verdana;fontStyle=1" vertex="1" parent="1">
          <mxGeometry x="70" y="990" width="100" height="20" as="geometry" />
        </mxCell>
        <mxCell id="inAHwRH8JmEoSRbN4Fz0-66" value="" style="shape=image;html=1;verticalAlign=top;verticalLabelPosition=bottom;labelBackgroundColor=#ffffff;imageAspect=0;aspect=fixed;image=https://cdn4.iconfinder.com/data/icons/picons-social/57/38-instagram-2-128.png;fontSize=21;" vertex="1" parent="1">
          <mxGeometry x="260" y="1005" width="60" height="60" as="geometry" />
        </mxCell>
        <mxCell id="inAHwRH8JmEoSRbN4Fz0-67" value="" style="shape=image;html=1;verticalAlign=top;verticalLabelPosition=bottom;labelBackgroundColor=#ffffff;imageAspect=0;aspect=fixed;image=https://cdn4.iconfinder.com/data/icons/ionicons/512/icon-social-youtube-outline-128.png;fontSize=21;" vertex="1" parent="1">
          <mxGeometry x="190" y="1005" width="60" height="60" as="geometry" />
        </mxCell>
        <mxCell id="inAHwRH8JmEoSRbN4Fz0-71" value="" style="shape=image;html=1;verticalAlign=top;verticalLabelPosition=bottom;labelBackgroundColor=#ffffff;imageAspect=0;aspect=fixed;image=https://cdn2.iconfinder.com/data/icons/social-media-2198/64/google_plus_social_media_network-128.png;fontSize=21;" vertex="1" parent="1">
          <mxGeometry x="117.5" y="997.5" width="80" height="80" as="geometry" />
        </mxCell>
        <mxCell id="inAHwRH8JmEoSRbN4Fz0-72" value="" style="shape=image;html=1;verticalAlign=top;verticalLabelPosition=bottom;labelBackgroundColor=#ffffff;imageAspect=0;aspect=fixed;image=https://cdn1.iconfinder.com/data/icons/social-media-outline-6/128/SocialMedia_Facebook-Outline-128.png;fontSize=21;" vertex="1" parent="1">
          <mxGeometry x="62" y="1010" width="58" height="58" as="geometry" />
        </mxCell>
        <mxCell id="inAHwRH8JmEoSRbN4Fz0-74" value="" style="shape=image;html=1;verticalAlign=top;verticalLabelPosition=bottom;labelBackgroundColor=#ffffff;imageAspect=0;aspect=fixed;image=https://cdn0.iconfinder.com/data/icons/phosphor-thin-vol-2/256/copyright-thin-128.png;fontSize=21;" vertex="1" parent="1">
          <mxGeometry x="870" y="1010" width="42.5" height="42.5" as="geometry" />
        </mxCell>
        <mxCell id="inAHwRH8JmEoSRbN4Fz0-75" value="E-Commerce Goap" style="text;html=1;points=[];align=left;verticalAlign=top;spacingTop=-4;fontSize=14;fontFamily=Verdana;fontStyle=0" vertex="1" parent="1">
          <mxGeometry x="920" y="1020" width="150" height="20" as="geometry" />
        </mxCell>
      </root>
    </mxGraphModel>
  </diagram>
</mxfile>
